SplineFontDB: 3.0
FontName: Route159-Light
FullName: Route 159 Light
FamilyName: Route 159 Light
Weight: Light
Copyright: __ 2015 Sora Sagano.
Version: 001.100
ItalicAngle: 0
UnderlinePosition: -100
UnderlineWidth: 50
Ascent: 770
Descent: 230
InvalidEm: 0
sfntRevision: 0x00011999
LayerCount: 2
Layer: 0 0 "Back" 1
Layer: 1 0 "Fore" 0
XUID: [1021 1017 285194369 12613]
StyleMap: 0x0040
FSType: 8
OS2Version: 3
OS2_WeightWidthSlopeOnly: 0
OS2_UseTypoMetrics: 0
CreationTime: 1458085815
ModificationTime: 1486462464
PfmFamily: 81
TTFWeight: 300
TTFWidth: 5
LineGap: 0
VLineGap: 0
Panose: 0 0 4 0 0 0 0 0 0 0
OS2TypoAscent: 770
OS2TypoAOffset: 0
OS2TypoDescent: -230
OS2TypoDOffset: 0
OS2TypoLinegap: 100
OS2WinAscent: 970
OS2WinAOffset: 0
OS2WinDescent: 230
OS2WinDOffset: 0
HheadAscent: 970
HheadAOffset: 0
HheadDescent: -230
HheadDOffset: 0
OS2SubXSize: 650
OS2SubYSize: 600
OS2SubXOff: 0
OS2SubYOff: 75
OS2SupXSize: 650
OS2SupYSize: 600
OS2SupXOff: 0
OS2SupYOff: 350
OS2StrikeYSize: 50
OS2StrikeYPos: 312
OS2CapHeight: 740
OS2XHeight: 520
OS2Vendor: 'UKWN'
OS2CodePages: 20000093.00000000
OS2UnicodeRanges: 00000007.00000000.00000000.00000000
Lookup: 6 0 0 "'locl' Localized Forms in Latin lookup 0" { "'locl' Localized Forms in Latin lookup 0 contextual 0"  "'locl' Localized Forms in Latin lookup 0 contextual 1"  } ['locl' ('latn' <'CAT ' > ) ]
Lookup: 4 0 1 "'liga' Standard Ligatures in Latin lookup 1" { "'liga' Standard Ligatures in Latin lookup 1 subtable"  } ['liga' ('DFLT' <'dflt' > 'latn' <'CAT ' 'dflt' > ) ]
Lookup: 4 0 0 "Ligature Substitution lookup 2" { "Ligature Substitution lookup 2 subtable"  } []
Lookup: 257 0 0 "'cpsp' Capital Spacing in Latin lookup 0" { "'cpsp' Capital Spacing in Latin lookup 0 subtable"  } ['cpsp' ('DFLT' <'dflt' > 'latn' <'CAT ' 'dflt' > ) ]

StartChar: .notdef
Encoding: 256 -1 0
Width: 500
Flags: MW
HStem: -230 69<167 333 167 410> -128 47<167 237 231 231 231 237 301 333> -48 23<167 333 167 333> 8 47<200 300 200 300> 88 60<167 333 167 333> 181 24<233 267 233 300> 261 22<167 200 167 333 233 333 233 233> 317 23<167 267 167 300 167 267> 373 37<167 233 167 233> 443 27<167 333 167 333> 504 36<200 233 200 233 200 333 200 267> 574 26<167 267 167 333> 633 37<168 233 168 233 167 233 168 267 267 333> 703 67<168 333 168 168>
VStem: 93 74<-161 -128 -81 -48 -25 88 148 261 283 317 340 373 410 443 470 574 600 633> 200 33<205 261 205 261 205 261 504 540> 267 33<205 228 340 383> 333 77<-161 -128 -128 -128 -81 -48 -48 -48 -25 88 88 88 148 261 261 261 283 383 383 383 410 443 443 443 470 504 504 504 600 633 633 633 670 703 703 703>
LayerCount: 2
Fore
SplineSet
410 770 m 1
 410 -230 l 1
 93 -230 l 1
 93 770 l 1
 410 770 l 1
333 703 m 1
 168 703 l 1
 168 670 l 1
 233 670 l 1
 233 633 l 1
 167 633 l 1
 167 600 l 1
 333 600 l 1
 333 633 l 1
 267 633 l 1
 267 670 l 1
 333 670 l 1
 333 703 l 1
267 574 m 1
 167 574 l 1
 167 470 l 1
 333 470 l 1
 333 504 l 1
 267 504 l 1
 267 574 l 1
233 540 m 1
 233 504 l 1
 200 504 l 1
 200 540 l 1
 233 540 l 1
333 443 m 1
 167 443 l 1
 167 410 l 1
 233 410 l 1
 233 373 l 1
 167 373 l 1
 167 340 l 1
 267 340 l 1
 267 410 l 1
 333 410 l 1
 333 443 l 1
333 383 m 1
 300 383 l 1
 300 317 l 1
 167 317 l 1
 167 283 l 1
 333 283 l 1
 333 383 l 1
333 261 m 1
 233 261 l 1
 233 205 l 1
 267 205 l 1
 267 228 l 1
 300 228 l 1
 300 181 l 1
 200 181 l 1
 200 261 l 1
 167 261 l 1
 167 148 l 1
 333 148 l 1
 333 261 l 1
333 88 m 1
 167 88 l 1
 167 -25 l 1
 333 -25 l 1
 333 88 l 1
300 55 m 1
 300 8 l 1
 200 8 l 1
 200 55 l 1
 300 55 l 1
333 -48 m 1
 167 -48 l 1
 167 -81 l 1
 237 -81 l 1
 167 -128 l 1
 167 -161 l 1
 333 -161 l 1
 333 -128 l 1
 231 -128 l 1
 301 -81 l 1
 333 -81 l 1
 333 -48 l 1
EndSplineSet
EndChar

StartChar: A
Encoding: 65 65 1
Width: 685
GlyphClass: 2
Flags: MW
HStem: 0 21G<30 100 30 30 573 646 573 573> 259 57<212 468 212 486 193 468> 682 58<345 345>
VStem: 30 616<0 0>
LayerCount: 2
Fore
SplineSet
573 0 m 1
 486 259 l 1
 193 259 l 1
 100 0 l 1
 30 0 l 1
 306 740 l 1
 390 740 l 1
 646 0 l 1
 573 0 l 1
345 682 m 1
 212 316 l 1
 468 316 l 1
 345 682 l 1
EndSplineSet
Position2: "'cpsp' Capital Spacing in Latin lookup 0 subtable" dx=5 dy=0 dh=10 dv=0
EndChar

StartChar: Aacute
Encoding: 257 193 2
Width: 685
GlyphClass: 2
Flags: MW
HStem: 0 21G<30 100 30 30 573 646 573 573> 259 57<212 468 212 486 193 468> 682 58<345 345> 799 136<311 474 311 474>
VStem: 30 616<0 0>
LayerCount: 2
Fore
SplineSet
474 935 m 1
 357 799 l 1
 311 799 l 1
 395 935 l 1
 474 935 l 1
573 0 m 1
 486 259 l 1
 193 259 l 1
 100 0 l 1
 30 0 l 1
 306 740 l 1
 390 740 l 1
 646 0 l 1
 573 0 l 1
345 682 m 1
 212 316 l 1
 468 316 l 1
 345 682 l 1
EndSplineSet
Position2: "'cpsp' Capital Spacing in Latin lookup 0 subtable" dx=5 dy=0 dh=10 dv=0
EndChar

StartChar: Abreve
Encoding: 258 258 3
Width: 685
GlyphClass: 2
Flags: MW
HStem: 0 21G<30 100 30 30 573 646 573 573> 259 57<212 468 212 486 193 468> 682 58<345 345> 786 53<323 373.5 323 388>
VStem: 227 45<935 935> 425 45<935 935>
LayerCount: 2
Fore
SplineSet
348 786 m 0
 267 786 218 844 227 935 c 1
 272 935 l 1
 270 879 298 839 348 839 c 0
 399 839 427 879 425 935 c 1
 470 935 l 1
 478 844 428 786 348 786 c 0
573 0 m 1
 486 259 l 1
 193 259 l 1
 100 0 l 1
 30 0 l 1
 306 740 l 1
 390 740 l 1
 646 0 l 1
 573 0 l 1
345 682 m 1
 212 316 l 1
 468 316 l 1
 345 682 l 1
EndSplineSet
Position2: "'cpsp' Capital Spacing in Latin lookup 0 subtable" dx=5 dy=0 dh=10 dv=0
EndChar

StartChar: Acircumflex
Encoding: 259 194 4
Width: 685
GlyphClass: 2
Flags: MW
HStem: 0 21G<30 100 30 30 573 646 573 573> 259 57<212 468 212 486 193 468> 682 58<345 345> 799 136<217 376 217 376 316 424 316 475>
VStem: 30 616<0 0>
LayerCount: 2
Fore
SplineSet
346 892 m 1
 268 799 l 1
 217 799 l 1
 316 935 l 1
 376 935 l 1
 475 799 l 1
 424 799 l 1
 346 892 l 1
573 0 m 1
 486 259 l 1
 193 259 l 1
 100 0 l 1
 30 0 l 1
 306 740 l 1
 390 740 l 1
 646 0 l 1
 573 0 l 1
345 682 m 1
 212 316 l 1
 468 316 l 1
 345 682 l 1
EndSplineSet
Position2: "'cpsp' Capital Spacing in Latin lookup 0 subtable" dx=5 dy=0 dh=10 dv=0
EndChar

StartChar: Adieresis
Encoding: 260 196 5
Width: 685
GlyphClass: 2
Flags: MW
HStem: 0 21G<30 100 30 30 573 646 573 573> 259 57<212 468 212 486 193 468> 682 58<345 345> 818.25 90.5
VStem: 249 64<822 905> 383 64<822 905>
LayerCount: 2
Fore
SplineSet
313 822 m 1
 297 817 265 817 249 822 c 1
 249 905 l 1
 265 910 297 910 313 905 c 1
 313 822 l 1
447 822 m 1
 430 817 399 817 383 822 c 1
 383 905 l 1
 399 910 430 910 447 905 c 1
 447 822 l 1
573 0 m 1
 486 259 l 1
 193 259 l 1
 100 0 l 1
 30 0 l 1
 306 740 l 1
 390 740 l 1
 646 0 l 1
 573 0 l 1
345 682 m 1
 212 316 l 1
 468 316 l 1
 345 682 l 1
EndSplineSet
Position2: "'cpsp' Capital Spacing in Latin lookup 0 subtable" dx=5 dy=0 dh=10 dv=0
EndChar

StartChar: Agrave
Encoding: 261 192 6
Width: 685
GlyphClass: 2
Flags: MW
HStem: 0 21G<30 100 30 30 573 646 573 573> 259 57<212 468 212 486 193 468> 682 58<345 345> 799 136<223 386 223 340>
VStem: 30 616<0 0>
LayerCount: 2
Fore
SplineSet
386 799 m 1
 340 799 l 1
 223 935 l 1
 302 935 l 1
 386 799 l 1
573 0 m 1
 486 259 l 1
 193 259 l 1
 100 0 l 1
 30 0 l 1
 306 740 l 1
 390 740 l 1
 646 0 l 1
 573 0 l 1
345 682 m 1
 212 316 l 1
 468 316 l 1
 345 682 l 1
EndSplineSet
Position2: "'cpsp' Capital Spacing in Latin lookup 0 subtable" dx=5 dy=0 dh=10 dv=0
EndChar

StartChar: Amacron
Encoding: 262 256 7
Width: 685
GlyphClass: 2
Flags: MW
HStem: 0 21G<30 100 30 30 573 646 573 573> 259 57<212 468 212 486 193 468> 682 58<345 345> 849 46<241 456 241 456>
VStem: 241 215<849 895 849 895>
LayerCount: 2
Fore
SplineSet
456 895 m 1
 456 849 l 1
 241 849 l 1
 241 895 l 1
 456 895 l 1
573 0 m 1
 486 259 l 1
 193 259 l 1
 100 0 l 1
 30 0 l 1
 306 740 l 1
 390 740 l 1
 646 0 l 1
 573 0 l 1
345 682 m 1
 212 316 l 1
 468 316 l 1
 345 682 l 1
EndSplineSet
Position2: "'cpsp' Capital Spacing in Latin lookup 0 subtable" dx=5 dy=0 dh=10 dv=0
EndChar

StartChar: Aogonek
Encoding: 263 260 8
Width: 685
GlyphClass: 2
Flags: MW
HStem: -220 43<586.5 595> 0 21G<30 100 30 30 646 647 647 647> 259 57<212 468 212 486 193 468> 682 58<345 345>
VStem: 487 60<-136.5 -100.5>
LayerCount: 2
Fore
SplineSet
604 -177 m 0
 620 -177 638 -173 656 -164 c 1
 652 -199 l 1
 628 -213 607 -220 583 -220 c 0
 529 -220 487 -190 487 -126 c 0
 487 -75 526 -21 572 3 c 1
 486 259 l 1
 193 259 l 1
 100 0 l 1
 30 0 l 1
 306 740 l 1
 390 740 l 1
 646 0 l 1
 647 0 l 1
 579 -25 547 -67 547 -117 c 0
 547 -156 569 -177 604 -177 c 0
345 682 m 1
 212 316 l 1
 468 316 l 1
 345 682 l 1
EndSplineSet
Position2: "'cpsp' Capital Spacing in Latin lookup 0 subtable" dx=5 dy=0 dh=10 dv=0
EndChar

StartChar: Aring
Encoding: 264 197 9
Width: 685
GlyphClass: 2
Flags: MW
HStem: 0 21G<30 100 30 30 573 646 573 573> 259 57<212 468 212 486 193 468> 682 58<345 345> 777 34<332 363.5 332 375.5> 917 34<332 363.5>
VStem: 248 44<848.5 879.5 848.5 889.5> 404 44<848.5 879.5>
LayerCount: 2
Fore
SplineSet
348 777 m 0
 293 777 248 814 248 864 c 0
 248 915 293 951 348 951 c 0
 403 951 448 915 448 864 c 0
 448 814 403 777 348 777 c 0
348 917 m 0
 316 917 292 895 292 864 c 0
 292 833 316 811 348 811 c 0
 379 811 404 833 404 864 c 0
 404 895 379 917 348 917 c 0
573 0 m 1
 486 259 l 1
 193 259 l 1
 100 0 l 1
 30 0 l 1
 306 740 l 1
 390 740 l 1
 646 0 l 1
 573 0 l 1
345 682 m 1
 212 316 l 1
 468 316 l 1
 345 682 l 1
EndSplineSet
Position2: "'cpsp' Capital Spacing in Latin lookup 0 subtable" dx=5 dy=0 dh=10 dv=0
EndChar

StartChar: Atilde
Encoding: 265 195 10
Width: 685
GlyphClass: 2
Flags: MW
HStem: 0 21G<30 100 30 30 573 646 573 573> 259 57<212 468 212 486 193 468> 682 58<345 345> 814 51<413 429 413 444> 866 51<275 291>
VStem: 212 38<808 812> 454 38<919 923>
LayerCount: 2
Fore
SplineSet
285 866 m 0
 265 866 256 853 250 808 c 1
 212 812 l 1
 217 883 239 917 281 917 c 0xee
 302 917 319 910 358 890 c 0
 396 869 407 865 419 865 c 0
 439 865 448 878 454 923 c 1
 492 919 l 1
 487 848 465 814 423 814 c 0xf6
 402 814 385 821 346 841 c 0
 307 862 297 866 285 866 c 0
573 0 m 1
 486 259 l 1
 193 259 l 1
 100 0 l 1
 30 0 l 1
 306 740 l 1
 390 740 l 1
 646 0 l 1
 573 0 l 1
345 682 m 1
 212 316 l 1
 468 316 l 1
 345 682 l 1
EndSplineSet
Position2: "'cpsp' Capital Spacing in Latin lookup 0 subtable" dx=5 dy=0 dh=10 dv=0
EndChar

StartChar: AE
Encoding: 266 198 11
Width: 896
GlyphClass: 2
Flags: MW
HStem: 0 55<508 841> 259 57<240 442 240 442 206 442> 350 55<508 808 508 816> 685 55<508 837 508 508>
VStem: 442 66<55 55 55 259 259 259 316 350 405 658 658 658>
AnchorPoint: "Anchor-0" 640 0 basechar 0
LayerCount: 2
Fore
SplineSet
508 55 m 1
 849 55 l 1
 841 0 l 1
 442 0 l 1
 442 259 l 1
 206 259 l 1
 53 0 l 1
 -17 0 l 1
 423 740 l 1
 486 740 l 1
 845 740 l 1
 837 685 l 1
 508 685 l 1
 508 405 l 1
 816 405 l 1
 808 350 l 1
 508 350 l 1
 508 55 l 1
240 316 m 1
 442 316 l 1
 442 658 l 1
 240 316 l 1
EndSplineSet
Position2: "'cpsp' Capital Spacing in Latin lookup 0 subtable" dx=5 dy=0 dh=10 dv=0
EndChar

StartChar: B
Encoding: 66 66 12
Width: 608
GlyphClass: 2
Flags: MW
HStem: 0 57<93 270 158 229> 352 57<158 318 158 330> 683 57<158 231 231 247 93 158>
VStem: 93 65<57 352 409 683> 429 71<525 598> 473 71<157 251>
LayerCount: 2
Fore
SplineSet
391 388 m 1xf4
 487 371 544 305 544 205 c 0xf4
 544 79 447 16 339 5 c 0
 307 2 270 0 229 0 c 2
 144 0 l 1
 93 0 l 1
 93 740 l 1
 158 740 l 1
 231 740 l 2
 263 740 293 740 323 738 c 0
 437 730 500 668 500 561 c 0xf8
 500 489 454 417 391 388 c 1xf4
269 683 m 2
 158 683 l 1
 158 409 l 1
 330 409 l 2
 384 409 429 478 429 547 c 0xf8
 429 649 381 683 269 683 c 2
270 57 m 2xf4
 409 57 473 108 473 206 c 0
 473 296 423 352 318 352 c 2
 158 352 l 1
 158 57 l 1
 270 57 l 2xf4
EndSplineSet
Position2: "'cpsp' Capital Spacing in Latin lookup 0 subtable" dx=5 dy=0 dh=10 dv=0
EndChar

StartChar: C
Encoding: 67 67 13
Width: 641
GlyphClass: 2
Flags: MW
HStem: -14 59<305 416> 695 59<320.5 439.5>
VStem: 44 71<250 473 250 485>
AnchorPoint: "Anchor-0" 367 0 basechar 0
LayerCount: 2
Fore
SplineSet
370 -14 m 0
 175 -14 44 102 44 361 c 0
 44 609 199 754 405 754 c 0
 483 754 546 739 598 710 c 1
 579 662 l 1
 532 683 474 695 405 695 c 0
 236 695 115 581 115 365 c 0
 115 135 232 45 378 45 c 0
 457 45 511 63 568 101 c 1
 593 53 l 1
 532 11 462 -14 370 -14 c 0
EndSplineSet
Position2: "'cpsp' Capital Spacing in Latin lookup 0 subtable" dx=5 dy=0 dh=10 dv=0
EndChar

StartChar: Cacute
Encoding: 267 262 14
Width: 641
GlyphClass: 2
Flags: MW
HStem: -14 59<305 416> 695 59<320.5 439.5> 799 136<325 488 325 488>
VStem: 44 71<250 473 250 485>
AnchorPoint: "Anchor-0" 367 0 basechar 0
LayerCount: 2
Fore
SplineSet
325 799 m 1
 409 935 l 1
 488 935 l 1
 371 799 l 1
 325 799 l 1
370 -14 m 0
 175 -14 44 102 44 361 c 0
 44 609 199 754 405 754 c 0
 483 754 546 739 598 710 c 1
 579 662 l 1
 532 683 474 695 405 695 c 0
 236 695 115 581 115 365 c 0
 115 135 232 45 378 45 c 0
 457 45 511 63 568 101 c 1
 593 53 l 1
 532 11 462 -14 370 -14 c 0
EndSplineSet
Position2: "'cpsp' Capital Spacing in Latin lookup 0 subtable" dx=5 dy=0 dh=10 dv=0
EndChar

StartChar: Ccaron
Encoding: 268 268 15
Width: 641
GlyphClass: 2
Flags: MW
HStem: -14 59<305 416> 695 59<320.5 439.5> 799 136<231 390 231 330>
VStem: 44 71<250 473 250 485>
AnchorPoint: "Anchor-0" 367 0 basechar 0
LayerCount: 2
Fore
SplineSet
390 799 m 1
 330 799 l 1
 231 935 l 1
 282 935 l 1
 360 842 l 1
 438 935 l 1
 489 935 l 1
 390 799 l 1
378 45 m 0
 457 45 511 63 568 101 c 1
 593 53 l 1
 532 11 462 -14 370 -14 c 0
 175 -14 44 102 44 361 c 0
 44 609 199 754 405 754 c 0
 483 754 546 739 598 710 c 1
 579 662 l 1
 532 683 474 695 405 695 c 0
 236 695 115 581 115 365 c 0
 115 135 232 45 378 45 c 0
EndSplineSet
Position2: "'cpsp' Capital Spacing in Latin lookup 0 subtable" dx=5 dy=0 dh=10 dv=0
EndChar

StartChar: Ccedilla
Encoding: 269 199 16
Width: 641
GlyphClass: 2
Flags: MW
HStem: -210 41<327 354.5 327 370> -81 35 -14 59<381 381> -13 58<342 342> 695 59<320.5 439.5>
VStem: 44 71<250 473 250 485> 404 52<-138.5 -106.5>
AnchorPoint: "Anchor-0" 367 0 basechar 0
LayerCount: 2
Fore
SplineSet
593 53 m 1xae
 534 13 467 -12 381 -14 c 1xae
 366 -46 l 1
 422 -51 456 -81 456 -123 c 0
 456 -180 402 -210 338 -210 c 0
 311 -210 289 -205 272 -194 c 1
 288 -160 l 1
 304 -167 319 -169 335 -169 c 0
 374 -169 404 -154 404 -123 c 0
 404 -90 370 -76 312 -81 c 1
 342 -13 l 1xde
 162 -3 44 114 44 361 c 0
 44 609 199 754 405 754 c 0
 483 754 546 739 598 710 c 1
 579 662 l 1
 532 683 474 695 405 695 c 0
 236 695 115 581 115 365 c 0
 115 135 232 45 378 45 c 0
 457 45 511 63 568 101 c 1
 593 53 l 1xae
EndSplineSet
Position2: "'cpsp' Capital Spacing in Latin lookup 0 subtable" dx=5 dy=0 dh=10 dv=0
EndChar

StartChar: Cdotaccent
Encoding: 270 266 17
Width: 641
GlyphClass: 2
Flags: MW
HStem: -14 59<305 416> 695 59<320.5 439.5> 818.25 90.5
VStem: 44 71<250 473 250 485> 330 64<822 905 822 905>
AnchorPoint: "Anchor-0" 367 0 basechar 0
LayerCount: 2
Fore
SplineSet
330 822 m 1
 330 905 l 1
 346 910 378 910 394 905 c 1
 394 822 l 1
 378 817 346 817 330 822 c 1
370 -14 m 0
 175 -14 44 102 44 361 c 0
 44 609 199 754 405 754 c 0
 483 754 546 739 598 710 c 1
 579 662 l 1
 532 683 474 695 405 695 c 0
 236 695 115 581 115 365 c 0
 115 135 232 45 378 45 c 0
 457 45 511 63 568 101 c 1
 593 53 l 1
 532 11 462 -14 370 -14 c 0
EndSplineSet
Position2: "'cpsp' Capital Spacing in Latin lookup 0 subtable" dx=5 dy=0 dh=10 dv=0
EndChar

StartChar: D
Encoding: 68 68 18
Width: 709
GlyphClass: 2
Flags: MW
HStem: 0 57<158 252> 683 57<158 266 266 284 93 288 158 158>
VStem: 93 65<57 57 57 683> 594 71<282 484>
LayerCount: 2
Fore
SplineSet
93 0 m 1
 93 740 l 1
 266 740 l 2
 302 740 344 739 375 735 c 0
 540 712 665 603 665 389 c 0
 665 155 531 40 382 10 c 0
 345 3 295 0 252 0 c 2
 93 0 l 1
158 57 m 1
 286 57 l 2
 472 57 594 177 594 387 c 0
 594 581 488 683 288 683 c 2
 158 683 l 1
 158 57 l 1
EndSplineSet
Position2: "'cpsp' Capital Spacing in Latin lookup 0 subtable" dx=5 dy=0 dh=10 dv=0
EndChar

StartChar: Eth
Encoding: 271 208 19
Width: 709
GlyphClass: 2
Flags: MW
HStem: 0 57<158 252> 335 52<35 93 35 93 158 307> 683 57<158 266 266 284 93 288 158 158>
VStem: 93 65<57 335 57 335 57 335 387 683> 594 71<282 484>
LayerCount: 2
Fore
SplineSet
375 735 m 0
 540 712 665 603 665 389 c 0
 665 155 531 40 382 10 c 0
 345 3 295 0 252 0 c 2
 93 0 l 1
 93 335 l 1
 35 335 l 1
 35 387 l 1
 93 387 l 1
 93 740 l 1
 266 740 l 2
 302 740 344 739 375 735 c 0
286 57 m 2
 472 57 594 177 594 387 c 0
 594 581 488 683 288 683 c 2
 158 683 l 1
 158 387 l 1
 307 387 l 1
 307 335 l 1
 158 335 l 1
 158 57 l 1
 286 57 l 2
EndSplineSet
Position2: "'cpsp' Capital Spacing in Latin lookup 0 subtable" dx=5 dy=0 dh=10 dv=0
EndChar

StartChar: Dcaron
Encoding: 272 270 20
Width: 709
GlyphClass: 2
Flags: MW
HStem: 0 57<158 252> 683 57<158 266 266 284 93 288 158 158> 799 136<196 355 196 295>
VStem: 93 65<57 683 57 740 57 740> 594 71<282 484>
LayerCount: 2
Fore
SplineSet
355 799 m 1
 295 799 l 1
 196 935 l 1
 247 935 l 1
 325 842 l 1
 403 935 l 1
 454 935 l 1
 355 799 l 1
375 735 m 0
 540 712 665 603 665 389 c 0
 665 155 531 40 382 10 c 0
 345 3 295 0 252 0 c 2
 93 0 l 1
 93 740 l 1
 266 740 l 2
 302 740 344 739 375 735 c 0
286 57 m 2
 472 57 594 177 594 387 c 0
 594 581 488 683 288 683 c 2
 158 683 l 1
 158 57 l 1
 286 57 l 2
EndSplineSet
Position2: "'cpsp' Capital Spacing in Latin lookup 0 subtable" dx=5 dy=0 dh=10 dv=0
EndChar

StartChar: Dcroat
Encoding: 273 272 21
Width: 709
GlyphClass: 2
Flags: MW
HStem: 0 57<158 252> 335 52<35 93 35 93 158 307> 683 57<158 266 266 284 93 288 158 158>
VStem: 93 65<57 335 57 335 57 335 387 683> 594 71<282 484>
LayerCount: 2
Fore
SplineSet
375 735 m 0
 540 712 665 603 665 389 c 0
 665 155 531 40 382 10 c 0
 345 3 295 0 252 0 c 2
 93 0 l 1
 93 335 l 1
 35 335 l 1
 35 387 l 1
 93 387 l 1
 93 740 l 1
 266 740 l 2
 302 740 344 739 375 735 c 0
286 57 m 2
 472 57 594 177 594 387 c 0
 594 581 488 683 288 683 c 2
 158 683 l 1
 158 387 l 1
 307 387 l 1
 307 335 l 1
 158 335 l 1
 158 57 l 1
 286 57 l 2
EndSplineSet
Position2: "'cpsp' Capital Spacing in Latin lookup 0 subtable" dx=5 dy=0 dh=10 dv=0
EndChar

StartChar: E
Encoding: 69 69 22
Width: 546
GlyphClass: 2
Flags: MW
HStem: 0 55<158 491> 350 55<158 458 158 466> 685 55<158 487 158 158>
VStem: 93 65<55 350 405 685>
AnchorPoint: "Anchor-0" 290 0 basechar 0
LayerCount: 2
Fore
SplineSet
93 0 m 1
 93 740 l 1
 495 740 l 1
 487 685 l 1
 158 685 l 1
 158 405 l 1
 466 405 l 1
 458 350 l 1
 158 350 l 1
 158 55 l 1
 499 55 l 1
 491 0 l 1
 93 0 l 1
EndSplineSet
Position2: "'cpsp' Capital Spacing in Latin lookup 0 subtable" dx=5 dy=0 dh=10 dv=0
EndChar

StartChar: Eacute
Encoding: 274 201 23
Width: 546
GlyphClass: 2
Flags: MW
HStem: 0 55<158 491> 350 55<158 458 158 466> 685 55<158 487 158 158> 799 136<263 426 263 426>
VStem: 93 65<55 350 405 685>
AnchorPoint: "Anchor-0" 290 0 basechar 0
LayerCount: 2
Fore
SplineSet
263 799 m 1
 347 935 l 1
 426 935 l 1
 309 799 l 1
 263 799 l 1
93 0 m 1
 93 740 l 1
 495 740 l 1
 487 685 l 1
 158 685 l 1
 158 405 l 1
 466 405 l 1
 458 350 l 1
 158 350 l 1
 158 55 l 1
 499 55 l 1
 491 0 l 1
 93 0 l 1
EndSplineSet
Position2: "'cpsp' Capital Spacing in Latin lookup 0 subtable" dx=5 dy=0 dh=10 dv=0
EndChar

StartChar: Ecaron
Encoding: 275 282 24
Width: 546
GlyphClass: 2
Flags: MW
HStem: 0 55<158 491> 350 55<158 458 158 466> 685 55<158 487 158 158> 799 136<170 329 170 269>
VStem: 93 65<55 55 55 350 405 685>
AnchorPoint: "Anchor-0" 290 0 basechar 0
LayerCount: 2
Fore
SplineSet
329 799 m 1
 269 799 l 1
 170 935 l 1
 221 935 l 1
 299 842 l 1
 377 935 l 1
 428 935 l 1
 329 799 l 1
158 55 m 1
 499 55 l 1
 491 0 l 1
 93 0 l 1
 93 740 l 1
 495 740 l 1
 487 685 l 1
 158 685 l 1
 158 405 l 1
 466 405 l 1
 458 350 l 1
 158 350 l 1
 158 55 l 1
EndSplineSet
Position2: "'cpsp' Capital Spacing in Latin lookup 0 subtable" dx=5 dy=0 dh=10 dv=0
EndChar

StartChar: Ecircumflex
Encoding: 276 202 25
Width: 546
GlyphClass: 2
Flags: MW
HStem: 0 55<158 491> 350 55<158 458 158 466> 685 55<158 487 158 158> 799 136<170 329 170 329 269 377 269 428>
VStem: 93 65<55 55 55 350 405 685>
AnchorPoint: "Anchor-0" 290 0 basechar 0
LayerCount: 2
Fore
SplineSet
299 892 m 1
 221 799 l 1
 170 799 l 1
 269 935 l 1
 329 935 l 1
 428 799 l 1
 377 799 l 1
 299 892 l 1
158 55 m 1
 499 55 l 1
 491 0 l 1
 93 0 l 1
 93 740 l 1
 495 740 l 1
 487 685 l 1
 158 685 l 1
 158 405 l 1
 466 405 l 1
 458 350 l 1
 158 350 l 1
 158 55 l 1
EndSplineSet
Position2: "'cpsp' Capital Spacing in Latin lookup 0 subtable" dx=5 dy=0 dh=10 dv=0
EndChar

StartChar: Edieresis
Encoding: 277 203 26
Width: 546
GlyphClass: 2
Flags: MW
HStem: 0 55<158 491> 350 55<158 458 158 466> 685 55<158 487 158 158> 818.25 90.5
VStem: 93 65<55 350 405 685> 202 64<822 905 822 905> 336 64<822 905 822 905>
AnchorPoint: "Anchor-0" 290 0 basechar 0
LayerCount: 2
Fore
SplineSet
202 822 m 1
 202 905 l 1
 218 910 250 910 266 905 c 1
 266 822 l 1
 250 817 218 817 202 822 c 1
336 822 m 1
 336 905 l 1
 352 910 383 910 400 905 c 1
 400 822 l 1
 383 817 352 817 336 822 c 1
93 0 m 1
 93 740 l 1
 495 740 l 1
 487 685 l 1
 158 685 l 1
 158 405 l 1
 466 405 l 1
 458 350 l 1
 158 350 l 1
 158 55 l 1
 499 55 l 1
 491 0 l 1
 93 0 l 1
EndSplineSet
Position2: "'cpsp' Capital Spacing in Latin lookup 0 subtable" dx=5 dy=0 dh=10 dv=0
EndChar

StartChar: Edotaccent
Encoding: 278 278 27
Width: 546
GlyphClass: 2
Flags: MW
HStem: 0 55<158 491> 350 55<158 458 158 466> 685 55<158 487 158 158> 818.25 90.5
VStem: 93 65<55 350 405 685> 269 64<822 905 822 905>
AnchorPoint: "Anchor-0" 290 0 basechar 0
LayerCount: 2
Fore
SplineSet
269 822 m 1
 269 905 l 1
 285 910 317 910 333 905 c 1
 333 822 l 1
 317 817 285 817 269 822 c 1
93 0 m 1
 93 740 l 1
 495 740 l 1
 487 685 l 1
 158 685 l 1
 158 405 l 1
 466 405 l 1
 458 350 l 1
 158 350 l 1
 158 55 l 1
 499 55 l 1
 491 0 l 1
 93 0 l 1
EndSplineSet
Position2: "'cpsp' Capital Spacing in Latin lookup 0 subtable" dx=5 dy=0 dh=10 dv=0
EndChar

StartChar: Egrave
Encoding: 279 200 28
Width: 546
GlyphClass: 2
Flags: MW
HStem: 0 55<158 491> 350 55<158 458 158 466> 685 55<158 487 158 158> 799 136<175 338 175 292>
VStem: 93 65<55 350 405 685>
AnchorPoint: "Anchor-0" 290 0 basechar 0
LayerCount: 2
Fore
SplineSet
338 799 m 1
 292 799 l 1
 175 935 l 1
 254 935 l 1
 338 799 l 1
93 0 m 1
 93 740 l 1
 495 740 l 1
 487 685 l 1
 158 685 l 1
 158 405 l 1
 466 405 l 1
 458 350 l 1
 158 350 l 1
 158 55 l 1
 499 55 l 1
 491 0 l 1
 93 0 l 1
EndSplineSet
Position2: "'cpsp' Capital Spacing in Latin lookup 0 subtable" dx=5 dy=0 dh=10 dv=0
EndChar

StartChar: Emacron
Encoding: 280 274 29
Width: 546
GlyphClass: 2
Flags: MW
HStem: 0 55<158 491> 350 55<158 458 158 466> 685 55<158 487 158 158> 849 46<193 408 193 408>
VStem: 93 65<55 350 405 685> 193 215<849 895 849 895>
AnchorPoint: "Anchor-0" 290 0 basechar 0
LayerCount: 2
Fore
SplineSet
193 849 m 1
 193 895 l 1
 408 895 l 1
 408 849 l 1
 193 849 l 1
93 0 m 1
 93 740 l 1
 495 740 l 1
 487 685 l 1
 158 685 l 1
 158 405 l 1
 466 405 l 1
 458 350 l 1
 158 350 l 1
 158 55 l 1
 499 55 l 1
 491 0 l 1
 93 0 l 1
EndSplineSet
Position2: "'cpsp' Capital Spacing in Latin lookup 0 subtable" dx=5 dy=0 dh=10 dv=0
EndChar

StartChar: Eogonek
Encoding: 281 280 30
Width: 546
GlyphClass: 2
Flags: MW
HStem: -220 43<431.5 440> 0 55<158 411 491 492 492 492> 350 55<158 458 158 466> 685 55<158 487 158 158>
VStem: 93 65<55 350 405 685> 332 60<-136.5 -101.5>
AnchorPoint: "Anchor-0" 290 0 basechar 0
LayerCount: 2
Fore
SplineSet
449 -177 m 0
 465 -177 483 -173 501 -164 c 1
 497 -199 l 1
 473 -213 452 -220 428 -220 c 0
 374 -220 332 -190 332 -126 c 0
 332 -77 367 -25 411 0 c 1
 93 0 l 1
 93 740 l 1
 495 740 l 1
 487 685 l 1
 158 685 l 1
 158 405 l 1
 466 405 l 1
 458 350 l 1
 158 350 l 1
 158 55 l 1
 499 55 l 1
 491 0 l 1
 492 0 l 1
 424 -25 392 -67 392 -117 c 0
 392 -156 414 -177 449 -177 c 0
EndSplineSet
Position2: "'cpsp' Capital Spacing in Latin lookup 0 subtable" dx=5 dy=0 dh=10 dv=0
EndChar

StartChar: F
Encoding: 70 70 31
Width: 537
GlyphClass: 2
Flags: MW
HStem: 0 21G<93 93 93 158> 347 54<158 464 158 472> 685 55<158 489 158 158>
VStem: 93 65<0 347 401 685>
LayerCount: 2
Fore
SplineSet
93 0 m 1
 93 740 l 1
 497 740 l 1
 489 685 l 1
 158 685 l 1
 158 401 l 1
 472 401 l 1
 464 347 l 1
 158 347 l 1
 158 0 l 1
 93 0 l 1
EndSplineSet
Position2: "'cpsp' Capital Spacing in Latin lookup 0 subtable" dx=5 dy=0 dh=10 dv=0
EndChar

StartChar: G
Encoding: 71 71 32
Width: 672
GlyphClass: 2
Flags: MW
HStem: -14 59<310.5 413 310.5 421> 695 59<315.5 437.5>
VStem: 44 71<251 479 251 492> 531 65<71 353 36 353>
AnchorPoint: "Anchor-0" 364 0 basechar 0
LayerCount: 2
Fore
SplineSet
531 71 m 1
 531 353 l 1
 596 353 l 1
 596 36 l 1
 539 3 468 -14 374 -14 c 0
 191 -14 44 96 44 361 c 0
 44 623 198 754 396 754 c 0
 488 754 550 740 601 713 c 1
 581 662 l 1
 532 685 479 695 396 695 c 0
 235 695 115 591 115 367 c 0
 115 135 238 45 383 45 c 0
 443 45 487 51 531 71 c 1
EndSplineSet
Position2: "'cpsp' Capital Spacing in Latin lookup 0 subtable" dx=5 dy=0 dh=10 dv=0
EndChar

StartChar: Gbreve
Encoding: 282 286 33
Width: 672
GlyphClass: 2
Flags: MW
HStem: -14 59<310.5 413 310.5 421> 695 59<315.5 437.5> 786 53<336 386.5 336 401>
VStem: 44 71<251 479 251 492> 240 45<935 935> 438 45<935 935> 531 65<71 353 36 353>
AnchorPoint: "Anchor-0" 364 0 basechar 0
LayerCount: 2
Fore
SplineSet
361 786 m 0
 280 786 231 844 240 935 c 1
 285 935 l 1
 283 879 311 839 361 839 c 0
 412 839 440 879 438 935 c 1
 483 935 l 1
 491 844 441 786 361 786 c 0
531 71 m 1
 531 353 l 1
 596 353 l 1
 596 36 l 1
 539 3 468 -14 374 -14 c 0
 191 -14 44 96 44 361 c 0
 44 623 198 754 396 754 c 0
 488 754 550 740 601 713 c 1
 581 662 l 1
 532 685 479 695 396 695 c 0
 235 695 115 591 115 367 c 0
 115 135 238 45 383 45 c 0
 443 45 487 51 531 71 c 1
EndSplineSet
Position2: "'cpsp' Capital Spacing in Latin lookup 0 subtable" dx=5 dy=0 dh=10 dv=0
EndChar

StartChar: Gcommaaccent
Encoding: 283 290 34
Width: 672
GlyphClass: 2
Flags: MW
HStem: -14 59<310.5 413 310.5 421> 695 59<315.5 437.5>
VStem: 44 71<251 479 251 492> 334 62 531 65<71 353 36 353>
AnchorPoint: "Anchor-0" 364 0 basechar 0
LayerCount: 2
Fore
SplineSet
531 71 m 1
 531 353 l 1
 596 353 l 1
 596 36 l 1
 539 3 468 -14 374 -14 c 0
 191 -14 44 96 44 361 c 0
 44 623 198 754 396 754 c 0
 488 754 550 740 601 713 c 1
 581 662 l 1
 532 685 479 695 396 695 c 0
 235 695 115 591 115 367 c 0
 115 135 238 45 383 45 c 0
 443 45 487 51 531 71 c 1
334 -66 m 1
 346 -58 379 -50 396 -51 c 1
 399 -132 370 -195 319 -252 c 1
 272 -252 l 1
 317 -176 332 -124 334 -66 c 1
EndSplineSet
Position2: "'cpsp' Capital Spacing in Latin lookup 0 subtable" dx=5 dy=0 dh=10 dv=0
EndChar

StartChar: Gdotaccent
Encoding: 284 288 35
Width: 672
GlyphClass: 2
Flags: MW
HStem: -14 59<310.5 413 310.5 421> 695 59<315.5 437.5> 818.25 90.5
VStem: 44 71<251 479 251 492> 329 64<822 905> 531 65<71 353 36 353>
AnchorPoint: "Anchor-0" 364 0 basechar 0
LayerCount: 2
Fore
SplineSet
393 822 m 1
 377 817 345 817 329 822 c 1
 329 905 l 1
 345 910 377 910 393 905 c 1
 393 822 l 1
531 71 m 1
 531 353 l 1
 596 353 l 1
 596 36 l 1
 539 3 468 -14 374 -14 c 0
 191 -14 44 96 44 361 c 0
 44 623 198 754 396 754 c 0
 488 754 550 740 601 713 c 1
 581 662 l 1
 532 685 479 695 396 695 c 0
 235 695 115 591 115 367 c 0
 115 135 238 45 383 45 c 0
 443 45 487 51 531 71 c 1
EndSplineSet
Position2: "'cpsp' Capital Spacing in Latin lookup 0 subtable" dx=5 dy=0 dh=10 dv=0
EndChar

StartChar: H
Encoding: 72 72 36
Width: 740
GlyphClass: 2
Flags: MW
HStem: 0 21G<93 93 93 158 583 583 583 648> 346 55<158 583 158 583> 720 20G<93 158 158 158 583 648 648 648>
VStem: 93 65<0 346 401 740> 583 65<0 346 346 346 401 740 0 740>
LayerCount: 2
Fore
SplineSet
93 0 m 1
 93 740 l 1
 158 740 l 1
 158 401 l 1
 583 401 l 1
 583 740 l 1
 648 740 l 1
 648 0 l 1
 583 0 l 1
 583 346 l 1
 158 346 l 1
 158 0 l 1
 93 0 l 1
EndSplineSet
Position2: "'cpsp' Capital Spacing in Latin lookup 0 subtable" dx=5 dy=0 dh=10 dv=0
EndChar

StartChar: Hbar
Encoding: 285 294 37
Width: 740
GlyphClass: 2
Flags: MW
HStem: 0 21G<93 158 93 93 583 648 583 583> 346 55<158 583 158 583> 539 52<41 93 41 93 158 583 648 699> 539 201<41 158 41 158 93 158 93 583>
VStem: 93 65<0 346 0 401 401 539 591 740> 583 65<0 346 346 346 401 539 0 539 591 740>
LayerCount: 2
Fore
SplineSet
699 591 m 1xec
 699 539 l 1
 648 539 l 1
 648 0 l 1
 583 0 l 1
 583 346 l 1
 158 346 l 1
 158 0 l 1
 93 0 l 1
 93 539 l 1
 41 539 l 1
 41 591 l 1
 93 591 l 1xec
 93 740 l 1
 158 740 l 1xdc
 158 591 l 1
 583 591 l 1xec
 583 740 l 1
 648 740 l 1xdc
 648 591 l 1
 699 591 l 1xec
583 401 m 1
 583 539 l 1
 158 539 l 1
 158 401 l 1
 583 401 l 1
EndSplineSet
Position2: "'cpsp' Capital Spacing in Latin lookup 0 subtable" dx=5 dy=0 dh=10 dv=0
EndChar

StartChar: I
Encoding: 73 73 38
Width: 250
GlyphClass: 2
Flags: MW
HStem: 0 21G<93 93 93 158> 720 20G<93 158 158 158>
VStem: 93 65<0 740 0 740>
LayerCount: 2
Fore
SplineSet
93 0 m 1
 93 740 l 1
 158 740 l 1
 158 0 l 1
 93 0 l 1
EndSplineSet
Position2: "'cpsp' Capital Spacing in Latin lookup 0 subtable" dx=5 dy=0 dh=10 dv=0
EndChar

StartChar: IJ
Encoding: 286 306 39
Width: 628
GlyphClass: 2
Flags: MW
HStem: -14 56<369 409.5 363 431> 0 21G<93 93 93 158> 720 20G<93 158 158 158 470 535 535 535>
VStem: 93 65<0 740 0 740> 470 65<185 200 200 740>
LayerCount: 2
Fore
SplineSet
93 0 m 1x78
 93 740 l 1
 158 740 l 1
 158 0 l 1
 93 0 l 1x78
384 -14 m 0xb8
 354 -14 326 -9 304 2 c 1
 313 50 l 1
 335 44 352 42 374 42 c 0
 445 42 470 74 470 172 c 2
 470 740 l 1
 535 740 l 1
 535 200 l 2
 535 170 535 147 534 127 c 0
 528 37 478 -14 384 -14 c 0xb8
EndSplineSet
Position2: "'cpsp' Capital Spacing in Latin lookup 0 subtable" dx=5 dy=0 dh=10 dv=0
EndChar

StartChar: Iacute
Encoding: 287 205 40
Width: 250
GlyphClass: 2
Flags: MW
HStem: 0 21G<93 93 93 158> 720 20G<93 158 158 158> 799 136<88 251 88 251>
VStem: 93 65<0 740 0 740>
LayerCount: 2
Fore
SplineSet
88 799 m 1
 172 935 l 1
 251 935 l 1
 134 799 l 1
 88 799 l 1
93 0 m 1
 93 740 l 1
 158 740 l 1
 158 0 l 1
 93 0 l 1
EndSplineSet
Position2: "'cpsp' Capital Spacing in Latin lookup 0 subtable" dx=5 dy=0 dh=10 dv=0
EndChar

StartChar: Icircumflex
Encoding: 288 206 41
Width: 250
GlyphClass: 2
Flags: MW
HStem: 0 21G<93 93 93 158> 720 20G<93 158 158 158> 799 136<-6 153 -6 153 93 252 93 201>
VStem: 93 65<0 740 0 740>
LayerCount: 2
Fore
SplineSet
153 935 m 1
 252 799 l 1
 201 799 l 1
 123 892 l 1
 45 799 l 1
 -6 799 l 1
 93 935 l 1
 153 935 l 1
93 0 m 1
 93 740 l 1
 158 740 l 1
 158 0 l 1
 93 0 l 1
EndSplineSet
Position2: "'cpsp' Capital Spacing in Latin lookup 0 subtable" dx=5 dy=0 dh=10 dv=0
EndChar

StartChar: Idieresis
Encoding: 289 207 42
Width: 250
GlyphClass: 2
Flags: MW
HStem: 0 21G<93 93 93 158> 720 20G<93 158 158 158> 818.25 90.5
VStem: 26 64<822 905 822 905> 93 65<0 740 0 740> 160 64<822 905 822 905>
LayerCount: 2
Fore
SplineSet
26 822 m 1
 26 905 l 1
 42 910 74 910 90 905 c 1
 90 822 l 1
 74 817 42 817 26 822 c 1
160 822 m 1
 160 905 l 1
 176 910 207 910 224 905 c 1
 224 822 l 1
 207 817 176 817 160 822 c 1
93 0 m 1xe8
 93 740 l 1
 158 740 l 1
 158 0 l 1
 93 0 l 1xe8
EndSplineSet
Position2: "'cpsp' Capital Spacing in Latin lookup 0 subtable" dx=5 dy=0 dh=10 dv=0
EndChar

StartChar: Idotaccent
Encoding: 290 304 43
Width: 250
GlyphClass: 2
Flags: MW
HStem: 0 21G<93 93 93 158> 720 20G<93 158 158 158> 818.25 90.5
VStem: 93 65<0 740 0 740>
LayerCount: 2
Fore
SplineSet
93 822 m 1
 93 905 l 1
 109 910 141 910 157 905 c 1
 157 822 l 1
 141 817 109 817 93 822 c 1
93 0 m 1
 93 740 l 1
 158 740 l 1
 158 0 l 1
 93 0 l 1
EndSplineSet
Position2: "'cpsp' Capital Spacing in Latin lookup 0 subtable" dx=5 dy=0 dh=10 dv=0
EndChar

StartChar: Igrave
Encoding: 291 204 44
Width: 250
GlyphClass: 2
Flags: MW
HStem: 0 21G<93 93 93 158> 720 20G<93 158 158 158> 799 136<0 163 0 117>
VStem: 93 65<0 740 0 740>
LayerCount: 2
Fore
SplineSet
163 799 m 1
 117 799 l 1
 0 935 l 1
 79 935 l 1
 163 799 l 1
93 0 m 1
 93 740 l 1
 158 740 l 1
 158 0 l 1
 93 0 l 1
EndSplineSet
Position2: "'cpsp' Capital Spacing in Latin lookup 0 subtable" dx=5 dy=0 dh=10 dv=0
EndChar

StartChar: Imacron
Encoding: 292 298 45
Width: 250
GlyphClass: 2
Flags: MW
HStem: 0 21G<93 93 93 158> 720 20G<93 158 158 158> 849 46<18 233 18 233>
VStem: 93 65<0 740 0 740>
LayerCount: 2
Fore
SplineSet
18 849 m 1
 18 895 l 1
 233 895 l 1
 233 849 l 1
 18 849 l 1
93 0 m 1
 93 740 l 1
 158 740 l 1
 158 0 l 1
 93 0 l 1
EndSplineSet
Position2: "'cpsp' Capital Spacing in Latin lookup 0 subtable" dx=5 dy=0 dh=10 dv=0
EndChar

StartChar: Iogonek
Encoding: 293 302 46
Width: 250
GlyphClass: 2
Flags: MW
HStem: -220 43<97.5 106> 0 21G<158 158> 720 20G<93 158 158 158>
VStem: -2 60<-136.5 -98.5> 93 65<8 740 0 740>
LayerCount: 2
Fore
SplineSet
115 -177 m 0
 131 -177 149 -173 167 -164 c 1
 163 -199 l 1
 139 -213 118 -220 94 -220 c 0
 40 -220 -2 -190 -2 -126 c 0
 -2 -71 42 -14 93 8 c 1
 93 740 l 1
 158 740 l 1
 158 0 l 1
 90 -25 58 -67 58 -117 c 0
 58 -156 80 -177 115 -177 c 0
EndSplineSet
Position2: "'cpsp' Capital Spacing in Latin lookup 0 subtable" dx=5 dy=0 dh=10 dv=0
EndChar

StartChar: J
Encoding: 74 74 47
Width: 378
GlyphClass: 2
Flags: MW
HStem: -14 56<119 159.5 113 181> 720 20G<220 285 285 285>
VStem: 220 65<185 200 200 740>
LayerCount: 2
Fore
SplineSet
134 -14 m 0
 104 -14 76 -9 54 2 c 1
 63 50 l 1
 85 44 102 42 124 42 c 0
 195 42 220 74 220 172 c 2
 220 740 l 1
 285 740 l 1
 285 200 l 2
 285 170 285 147 284 127 c 0
 278 37 228 -14 134 -14 c 0
EndSplineSet
Position2: "'cpsp' Capital Spacing in Latin lookup 0 subtable" dx=5 dy=0 dh=10 dv=0
EndChar

StartChar: K
Encoding: 75 75 48
Width: 607
GlyphClass: 2
Flags: MW
HStem: 0 21G<93 93 93 158 500 594 500 500> 720 20G<93 158 158 158 508 508>
VStem: 93 65<0 740 0 740>
AnchorPoint: "Anchor-0" 306 0 basechar 0
LayerCount: 2
Fore
SplineSet
93 0 m 1
 93 740 l 1
 158 740 l 1
 158 0 l 1
 93 0 l 1
500 0 m 1
 172 369 l 1
 508 740 l 1
 580 730 l 1
 254 374 l 1
 594 0 l 1
 500 0 l 1
EndSplineSet
Position2: "'cpsp' Capital Spacing in Latin lookup 0 subtable" dx=5 dy=0 dh=10 dv=0
EndChar

StartChar: Kcommaaccent
Encoding: 294 310 49
Width: 607
GlyphClass: 2
Flags: MW
HStem: 0 21G<93 93 93 158 500 594 500 500> 720 20G<93 158 158 158 508 508>
VStem: 93 65<0 740 0 740> 275 62
AnchorPoint: "Anchor-0" 306 0 basechar 0
LayerCount: 2
Fore
SplineSet
93 0 m 1
 93 740 l 1
 158 740 l 1
 158 0 l 1
 93 0 l 1
500 0 m 1
 172 369 l 1
 508 740 l 1
 580 730 l 1
 254 374 l 1
 594 0 l 1
 500 0 l 1
213 -252 m 1
 258 -176 273 -124 275 -66 c 1
 287 -58 320 -50 337 -51 c 1
 340 -132 311 -195 260 -252 c 1
 213 -252 l 1
EndSplineSet
Position2: "'cpsp' Capital Spacing in Latin lookup 0 subtable" dx=5 dy=0 dh=10 dv=0
EndChar

StartChar: L
Encoding: 76 76 50
Width: 560
GlyphClass: 2
Flags: MW
HStem: 0 55<158 514> 720 20G<93 158 158 158>
VStem: 93 65<55 740 55 740 55 740>
AnchorPoint: "Anchor-0" 308 0 basechar 0
LayerCount: 2
Fore
SplineSet
93 0 m 1
 93 740 l 1
 158 740 l 1
 158 55 l 1
 522 55 l 1
 514 0 l 1
 93 0 l 1
EndSplineSet
Position2: "'cpsp' Capital Spacing in Latin lookup 0 subtable" dx=5 dy=0 dh=10 dv=0
EndChar

StartChar: Lacute
Encoding: 295 313 51
Width: 560
GlyphClass: 2
Flags: MW
HStem: 0 55<158 514> 720 20G<93 158 158 158> 799 136<88 251 88 251>
VStem: 93 65<55 740 55 740 55 740>
AnchorPoint: "Anchor-0" 308 0 basechar 0
LayerCount: 2
Fore
SplineSet
88 799 m 1
 172 935 l 1
 251 935 l 1
 134 799 l 1
 88 799 l 1
93 0 m 1
 93 740 l 1
 158 740 l 1
 158 55 l 1
 522 55 l 1
 514 0 l 1
 93 0 l 1
EndSplineSet
Position2: "'cpsp' Capital Spacing in Latin lookup 0 subtable" dx=5 dy=0 dh=10 dv=0
EndChar

StartChar: Lcaron
Encoding: 296 317 52
Width: 560
GlyphClass: 2
Flags: MW
HStem: 0 55<158 514> 556 184<93 211 93 258> 720 20G<93 158 158 158> 737 20G
VStem: 93 65<55 740 55 740 55 740> 273 61
AnchorPoint: "Anchor-0" 308 0 basechar 0
LayerCount: 2
Fore
SplineSet
211 556 m 1xcc
 256 632 270 684 273 742 c 1
 285 750 318 758 334 757 c 1x9c
 338 676 309 613 258 556 c 1
 211 556 l 1xcc
93 0 m 1xa8
 93 740 l 1
 158 740 l 1
 158 55 l 1
 522 55 l 1
 514 0 l 1
 93 0 l 1xa8
EndSplineSet
Position2: "'cpsp' Capital Spacing in Latin lookup 0 subtable" dx=5 dy=0 dh=10 dv=0
EndChar

StartChar: Lcommaaccent
Encoding: 297 315 53
Width: 560
GlyphClass: 2
Flags: MW
HStem: 0 55<158 514> 720 20G<93 158 158 158>
VStem: 93 65<55 740 55 740 55 740> 277 62
AnchorPoint: "Anchor-0" 308 0 basechar 0
LayerCount: 2
Fore
SplineSet
93 0 m 1
 93 740 l 1
 158 740 l 1
 158 55 l 1
 522 55 l 1
 514 0 l 1
 93 0 l 1
215 -252 m 1
 260 -176 275 -124 277 -66 c 1
 289 -58 322 -50 339 -51 c 1
 342 -132 313 -195 262 -252 c 1
 215 -252 l 1
EndSplineSet
Position2: "'cpsp' Capital Spacing in Latin lookup 0 subtable" dx=5 dy=0 dh=10 dv=0
EndChar

StartChar: Ldot
Encoding: 298 319 54
Width: 560
GlyphClass: 2
Flags: MW
HStem: 0 55<158 514> 318 115<395 464 395 464> 720 20G<93 158 158 158>
VStem: 93 65<55 740 55 740 55 740> 395 69<318 433 318 433>
AnchorPoint: "Anchor-0" 308 0 basechar 0
LayerCount: 2
Fore
SplineSet
93 0 m 1
 93 740 l 1
 158 740 l 1
 158 55 l 1
 522 55 l 1
 514 0 l 1
 93 0 l 1
395 318 m 1
 395 433 l 1
 412 438 447 438 464 433 c 1
 464 318 l 1
 447 314 412 314 395 318 c 1
EndSplineSet
Ligature2: "Ligature Substitution lookup 2 subtable" L periodcentered
Position2: "'cpsp' Capital Spacing in Latin lookup 0 subtable" dx=5 dy=0 dh=10 dv=0
EndChar

StartChar: Lslash
Encoding: 299 321 55
Width: 560
GlyphClass: 2
Flags: MW
HStem: 0 55<158 514> 720 20G<93 158 158 158>
VStem: 93 65<55 55 55 274 274 274 385 740>
AnchorPoint: "Anchor-0" 308 0 basechar 0
LayerCount: 2
Fore
SplineSet
158 55 m 1
 522 55 l 1
 514 0 l 1
 93 0 l 1
 93 274 l 1
 42 240 l 1
 42 307 l 1
 93 341 l 1
 93 740 l 1
 158 740 l 1
 158 385 l 1
 269 460 l 1
 269 393 l 1
 158 318 l 1
 158 55 l 1
EndSplineSet
Position2: "'cpsp' Capital Spacing in Latin lookup 0 subtable" dx=5 dy=0 dh=10 dv=0
EndChar

StartChar: M
Encoding: 77 77 56
Width: 919
GlyphClass: 2
Flags: MW
HStem: 1.38889 119
LayerCount: 2
Fore
SplineSet
839 0 m 1
 774 0 l 1
 717 653 l 1
 474 20 l 1
 422 20 l 1
 201 633 l 1
 138 0 l 1
 78 0 l 1
 153 740 l 1
 227 740 l 1
 453 112 l 1
 694 740 l 1
 773 740 l 1
 839 0 l 1
EndSplineSet
Position2: "'cpsp' Capital Spacing in Latin lookup 0 subtable" dx=5 dy=0 dh=10 dv=0
EndChar

StartChar: N
Encoding: 78 78 57
Width: 748
GlyphClass: 2
Flags: MW
HStem: 0 21G<93 155 93 93 596 655 596 596> 720 20G<93 151 151 151 593 655 655 655>
VStem: 93 62<0 626 0 740> 593 62<114 740 0 740>
AnchorPoint: "Anchor-0" 368 0 basechar 0
LayerCount: 2
Fore
SplineSet
593 740 m 1
 655 740 l 1
 655 0 l 1
 596 0 l 1
 155 626 l 1
 155 0 l 1
 93 0 l 1
 93 740 l 1
 151 740 l 1
 593 114 l 1
 593 740 l 1
EndSplineSet
Position2: "'cpsp' Capital Spacing in Latin lookup 0 subtable" dx=5 dy=0 dh=10 dv=0
EndChar

StartChar: Nacute
Encoding: 300 323 58
Width: 748
GlyphClass: 2
Flags: MW
HStem: 0 21G<93 155 93 93 596 655 596 596> 720 20G<93 151 151 151 593 655 655 655> 799 136<330 493 330 493>
VStem: 93 62<0 626 0 740> 593 62<114 740 0 740>
AnchorPoint: "Anchor-0" 368 0 basechar 0
LayerCount: 2
Fore
SplineSet
493 935 m 1
 376 799 l 1
 330 799 l 1
 414 935 l 1
 493 935 l 1
593 740 m 1
 655 740 l 1
 655 0 l 1
 596 0 l 1
 155 626 l 1
 155 0 l 1
 93 0 l 1
 93 740 l 1
 151 740 l 1
 593 114 l 1
 593 740 l 1
EndSplineSet
Position2: "'cpsp' Capital Spacing in Latin lookup 0 subtable" dx=5 dy=0 dh=10 dv=0
EndChar

StartChar: Ncaron
Encoding: 301 327 59
Width: 748
GlyphClass: 2
Flags: MW
HStem: 0 21G<93 155 93 93 596 655 596 596> 720 20G<93 151 151 151 593 655 655 655> 799 136<236 395 236 335>
VStem: 93 62<0 626 0 740> 593 62<114 740 0 740>
AnchorPoint: "Anchor-0" 368 0 basechar 0
LayerCount: 2
Fore
SplineSet
395 799 m 1
 335 799 l 1
 236 935 l 1
 287 935 l 1
 365 842 l 1
 443 935 l 1
 494 935 l 1
 395 799 l 1
593 740 m 1
 655 740 l 1
 655 0 l 1
 596 0 l 1
 155 626 l 1
 155 0 l 1
 93 0 l 1
 93 740 l 1
 151 740 l 1
 593 114 l 1
 593 740 l 1
EndSplineSet
Position2: "'cpsp' Capital Spacing in Latin lookup 0 subtable" dx=5 dy=0 dh=10 dv=0
EndChar

StartChar: Ncommaaccent
Encoding: 302 325 60
Width: 748
GlyphClass: 2
Flags: MW
HStem: 0 21G<93 155 93 93 596 655 596 596> 720 20G<93 151 151 151 593 655 655 655>
VStem: 93 62<0 626 0 740> 337 62 593 62<114 740 0 740>
AnchorPoint: "Anchor-0" 368 0 basechar 0
LayerCount: 2
Fore
SplineSet
593 740 m 1
 655 740 l 1
 655 0 l 1
 596 0 l 1
 155 626 l 1
 155 0 l 1
 93 0 l 1
 93 740 l 1
 151 740 l 1
 593 114 l 1
 593 740 l 1
337 -66 m 1
 349 -58 382 -50 399 -51 c 1
 402 -132 373 -195 322 -252 c 1
 275 -252 l 1
 320 -176 335 -124 337 -66 c 1
EndSplineSet
Position2: "'cpsp' Capital Spacing in Latin lookup 0 subtable" dx=5 dy=0 dh=10 dv=0
EndChar

StartChar: Eng
Encoding: 303 330 61
Width: 748
GlyphClass: 2
Flags: MW
HStem: -223 54<472 538> 0 21G<93 155 93 93 655 655> 720 20G<93 151 151 151 593 655 655 655>
VStem: 93 62<0 626 0 740> 593 62<4 4 114 740>
AnchorPoint: "Anchor-0" 368 0 basechar 0
LayerCount: 2
Fore
SplineSet
593 740 m 1
 655 740 l 1
 655 0 l 2
 655 -35 655 -64 650 -98 c 0
 642 -167 604 -223 472 -223 c 1
 472 -169 l 1
 567 -166 597 -140 594 -13 c 1
 593 4 l 1
 155 626 l 1
 155 0 l 1
 93 0 l 1
 93 740 l 1
 151 740 l 1
 593 114 l 1
 593 740 l 1
EndSplineSet
Position2: "'cpsp' Capital Spacing in Latin lookup 0 subtable" dx=5 dy=0 dh=10 dv=0
EndChar

StartChar: Ntilde
Encoding: 304 209 62
Width: 748
GlyphClass: 2
Flags: MW
HStem: 0 21G<93 155 93 93 596 655 596 596> 720 20G<93 151 151 151 593 655 655 655> 814 51<432 448 432 463> 866 51<294 310>
VStem: 93 62<0 626 0 740> 231 38<808 812> 473 38<919 923> 593 62<114 740 0 740>
AnchorPoint: "Anchor-0" 368 0 basechar 0
LayerCount: 2
Fore
SplineSet
304 866 m 0
 284 866 275 853 269 808 c 1
 231 812 l 1
 236 883 258 917 300 917 c 0xdd
 321 917 338 910 377 890 c 0
 415 869 426 865 438 865 c 0
 458 865 467 878 473 923 c 1
 511 919 l 1
 506 848 484 814 442 814 c 0xef
 421 814 404 821 365 841 c 0
 326 862 316 866 304 866 c 0
593 740 m 1
 655 740 l 1
 655 0 l 1
 596 0 l 1
 155 626 l 1
 155 0 l 1
 93 0 l 1
 93 740 l 1
 151 740 l 1
 593 114 l 1
 593 740 l 1
EndSplineSet
Position2: "'cpsp' Capital Spacing in Latin lookup 0 subtable" dx=5 dy=0 dh=10 dv=0
EndChar

StartChar: O
Encoding: 79 79 63
Width: 757
GlyphClass: 2
Flags: MW
HStem: -14 56<301 455.5 301 469.5> 698 56<301 455.5>
VStem: 44 71<269 471 269 494.5> 641 71<269 471>
LayerCount: 2
Fore
SplineSet
378 754 m 0
 561 754 712 619 712 370 c 0
 712 121 561 -14 378 -14 c 0
 196 -14 44 121 44 370 c 0
 44 619 196 754 378 754 c 0
378 42 m 0
 533 42 641 168 641 370 c 0
 641 572 533 698 378 698 c 0
 224 698 115 572 115 370 c 0
 115 168 224 42 378 42 c 0
EndSplineSet
Position2: "'cpsp' Capital Spacing in Latin lookup 0 subtable" dx=5 dy=0 dh=10 dv=0
EndChar

StartChar: Oacute
Encoding: 305 211 64
Width: 757
GlyphClass: 2
Flags: MW
HStem: -14 56<301 455.5 301 469.5> 698 56<301 455.5> 799 136<341 504 341 504>
VStem: 44 71<269 471 269 494.5> 641 71<269 471>
LayerCount: 2
Fore
SplineSet
504 935 m 1
 387 799 l 1
 341 799 l 1
 425 935 l 1
 504 935 l 1
378 754 m 0
 561 754 712 619 712 370 c 0
 712 121 561 -14 378 -14 c 0
 196 -14 44 121 44 370 c 0
 44 619 196 754 378 754 c 0
378 42 m 0
 533 42 641 168 641 370 c 0
 641 572 533 698 378 698 c 0
 224 698 115 572 115 370 c 0
 115 168 224 42 378 42 c 0
EndSplineSet
Position2: "'cpsp' Capital Spacing in Latin lookup 0 subtable" dx=5 dy=0 dh=10 dv=0
EndChar

StartChar: Ocircumflex
Encoding: 306 212 65
Width: 757
GlyphClass: 2
Flags: MW
HStem: -14 56<301 455.5 301 469.5> 698 56<301 455.5> 799 136<247 406 247 406 346 454 346 505>
VStem: 44 71<269 471 269 494.5> 641 71<269 471>
LayerCount: 2
Fore
SplineSet
376 892 m 1
 298 799 l 1
 247 799 l 1
 346 935 l 1
 406 935 l 1
 505 799 l 1
 454 799 l 1
 376 892 l 1
378 754 m 0
 561 754 712 619 712 370 c 0
 712 121 561 -14 378 -14 c 0
 196 -14 44 121 44 370 c 0
 44 619 196 754 378 754 c 0
378 42 m 0
 533 42 641 168 641 370 c 0
 641 572 533 698 378 698 c 0
 224 698 115 572 115 370 c 0
 115 168 224 42 378 42 c 0
EndSplineSet
Position2: "'cpsp' Capital Spacing in Latin lookup 0 subtable" dx=5 dy=0 dh=10 dv=0
EndChar

StartChar: Odieresis
Encoding: 307 214 66
Width: 757
GlyphClass: 2
Flags: MW
HStem: -14 56<301 455.5 301 469.5> 698 56<301 455.5> 818.25 90.5
VStem: 44 71<269 471 269 494.5> 279 64<822 905> 413 64<822 905> 641 71<269 471>
LayerCount: 2
Fore
SplineSet
343 822 m 1
 327 817 295 817 279 822 c 1
 279 905 l 1
 295 910 327 910 343 905 c 1
 343 822 l 1
477 822 m 1
 460 817 429 817 413 822 c 1
 413 905 l 1
 429 910 460 910 477 905 c 1
 477 822 l 1
378 754 m 0
 561 754 712 619 712 370 c 0
 712 121 561 -14 378 -14 c 0
 196 -14 44 121 44 370 c 0
 44 619 196 754 378 754 c 0
378 42 m 0
 533 42 641 168 641 370 c 0
 641 572 533 698 378 698 c 0
 224 698 115 572 115 370 c 0
 115 168 224 42 378 42 c 0
EndSplineSet
Position2: "'cpsp' Capital Spacing in Latin lookup 0 subtable" dx=5 dy=0 dh=10 dv=0
EndChar

StartChar: Ograve
Encoding: 308 210 67
Width: 757
GlyphClass: 2
Flags: MW
HStem: -14 56<301 455.5 301 469.5> 698 56<301 455.5> 799 136<253 416 253 370>
VStem: 44 71<269 471 269 494.5> 641 71<269 471>
LayerCount: 2
Fore
SplineSet
416 799 m 1
 370 799 l 1
 253 935 l 1
 332 935 l 1
 416 799 l 1
378 754 m 0
 561 754 712 619 712 370 c 0
 712 121 561 -14 378 -14 c 0
 196 -14 44 121 44 370 c 0
 44 619 196 754 378 754 c 0
378 42 m 0
 533 42 641 168 641 370 c 0
 641 572 533 698 378 698 c 0
 224 698 115 572 115 370 c 0
 115 168 224 42 378 42 c 0
EndSplineSet
Position2: "'cpsp' Capital Spacing in Latin lookup 0 subtable" dx=5 dy=0 dh=10 dv=0
EndChar

StartChar: Ohungarumlaut
Encoding: 309 336 68
Width: 757
GlyphClass: 2
Flags: MW
HStem: -14 56<301 455.5 301 469.5> 698 56<301 455.5> 799 136<266 429 266 429 402 402 402 429 350 448>
VStem: 44 71<269 471 269 494.5> 641 71<269 471>
LayerCount: 2
Fore
SplineSet
429 935 m 1
 312 799 l 1
 266 799 l 1
 350 935 l 1
 429 935 l 1
448 799 m 1
 402 799 l 1
 486 935 l 1
 565 935 l 1
 448 799 l 1
378 754 m 0
 561 754 712 619 712 370 c 0
 712 121 561 -14 378 -14 c 0
 196 -14 44 121 44 370 c 0
 44 619 196 754 378 754 c 0
378 42 m 0
 533 42 641 168 641 370 c 0
 641 572 533 698 378 698 c 0
 224 698 115 572 115 370 c 0
 115 168 224 42 378 42 c 0
EndSplineSet
Position2: "'cpsp' Capital Spacing in Latin lookup 0 subtable" dx=5 dy=0 dh=10 dv=0
EndChar

StartChar: Omacron
Encoding: 310 332 69
Width: 757
GlyphClass: 2
Flags: MW
HStem: -14 56<301 455.5 301 469.5> 698 56<301 455.5> 849 46<271 486 271 486>
VStem: 44 71<269 471 269 494.5> 271 215<849 895 849 895> 641 71<269 471>
LayerCount: 2
Fore
SplineSet
486 895 m 1
 486 849 l 1
 271 849 l 1
 271 895 l 1
 486 895 l 1
378 754 m 0
 561 754 712 619 712 370 c 0
 712 121 561 -14 378 -14 c 0
 196 -14 44 121 44 370 c 0
 44 619 196 754 378 754 c 0
378 42 m 0
 533 42 641 168 641 370 c 0
 641 572 533 698 378 698 c 0
 224 698 115 572 115 370 c 0
 115 168 224 42 378 42 c 0
EndSplineSet
Position2: "'cpsp' Capital Spacing in Latin lookup 0 subtable" dx=5 dy=0 dh=10 dv=0
EndChar

StartChar: Oslash
Encoding: 311 216 70
Width: 757
GlyphClass: 2
Flags: MW
HStem: -14 56<347 455.5 347 469.5> -2 21G<78 78> 698 56<301 410> 723 20G<687 687>
VStem: 44 71<322 471 322 494.5> 641 71<269 416>
LayerCount: 2
Fore
SplineSet
619 649 m 1x9c
 676 585 712 491 712 370 c 0
 712 121 561 -14 378 -14 c 0
 305 -14 237 8 182 49 c 1
 126 -28 l 1xac
 78 -2 l 1
 142 86 l 1
 82 150 44 246 44 370 c 0
 44 619 196 754 378 754 c 0
 453 754 523 731 580 687 c 1
 639 768 l 1x6c
 687 743 l 1
 619 649 l 1x9c
115 370 m 0xac
 115 274 139 196 181 140 c 1
 543 636 l 1
 499 676 442 698 378 698 c 0
 224 698 115 572 115 370 c 0xac
378 42 m 0
 533 42 641 168 641 370 c 0
 641 462 618 539 579 595 c 1
 219 99 l 1
 262 62 316 42 378 42 c 0
EndSplineSet
Position2: "'cpsp' Capital Spacing in Latin lookup 0 subtable" dx=5 dy=0 dh=10 dv=0
EndChar

StartChar: Otilde
Encoding: 312 213 71
Width: 757
GlyphClass: 2
Flags: MW
HStem: -14 56<301 455.5 301 469.5> 698 56<301 455.5> 814 51<443 459 443 474> 866 51<305 321>
VStem: 44 71<269 471 269 494.5> 242 38<808 812> 484 38<919 923> 641 71<269 471>
LayerCount: 2
Fore
SplineSet
315 866 m 0
 295 866 286 853 280 808 c 1
 242 812 l 1
 247 883 269 917 311 917 c 0xdd
 332 917 349 910 388 890 c 0
 426 869 437 865 449 865 c 0
 469 865 478 878 484 923 c 1
 522 919 l 1
 517 848 495 814 453 814 c 0xef
 432 814 415 821 376 841 c 0
 337 862 327 866 315 866 c 0
378 754 m 0
 561 754 712 619 712 370 c 0
 712 121 561 -14 378 -14 c 0
 196 -14 44 121 44 370 c 0
 44 619 196 754 378 754 c 0
378 42 m 0
 533 42 641 168 641 370 c 0
 641 572 533 698 378 698 c 0
 224 698 115 572 115 370 c 0
 115 168 224 42 378 42 c 0
EndSplineSet
Position2: "'cpsp' Capital Spacing in Latin lookup 0 subtable" dx=5 dy=0 dh=10 dv=0
EndChar

StartChar: OE
Encoding: 313 338 72
Width: 1014
GlyphClass: 2
Flags: MW
HStem: -14 56<301 378 301 378 378 412.5 301 415> 0 55<547.5 968 626 960> 350 55<626 926 626 935> 685 55<626 956 626 626> 698 56<301 378 378 411>
VStem: 44 71<269 471 269 494.5> 561 65<58 350 405 682 682 682>
AnchorPoint: "Anchor-0" 758 0 basechar 0
LayerCount: 2
Fore
SplineSet
44 370 m 0xae
 44 619 196 754 378 754 c 1
 378 698 l 1
 224 698 115 572 115 370 c 0
 115 168 224 42 378 42 c 1
 378 -14 l 1
 196 -14 44 121 44 370 c 0xae
626 55 m 1x76
 968 55 l 1
 960 0 l 1
 577 0 l 2x76
 518 0 452 -14 378 -14 c 1
 378 42 l 1
 447 42 511 50 561 58 c 1
 561 682 l 1
 509 690 444 698 378 698 c 1
 378 754 l 1xae
 452 754 518 740 577 740 c 2
 964 740 l 1
 956 685 l 1
 626 685 l 1
 626 405 l 1
 935 405 l 1
 926 350 l 1
 626 350 l 1
 626 55 l 1x76
EndSplineSet
Position2: "'cpsp' Capital Spacing in Latin lookup 0 subtable" dx=5 dy=0 dh=10 dv=0
EndChar

StartChar: P
Encoding: 80 80 73
Width: 559
GlyphClass: 2
Flags: MW
HStem: 0 21G<93 158 93 93> 297 58<158 204 158 266> 683 57<158 196 196 220.5 93 277 158 158>
VStem: 93 65<0 297 0 355 355 683> 456 69<470 571.5>
LayerCount: 2
Fore
SplineSet
326 737 m 0
 456 723 525 647 525 524 c 0
 525 402 442 313 316 302 c 0
 274 297 244 297 204 297 c 2
 158 297 l 1
 158 0 l 1
 93 0 l 1
 93 740 l 1
 196 740 l 2
 245 740 294 739 326 737 c 0
266 355 m 2
 392 355 456 419 456 521 c 0
 456 622 403 683 277 683 c 2
 158 683 l 1
 158 355 l 1
 266 355 l 2
EndSplineSet
Position2: "'cpsp' Capital Spacing in Latin lookup 0 subtable" dx=5 dy=0 dh=10 dv=0
EndChar

StartChar: Thorn
Encoding: 314 222 74
Width: 569
GlyphClass: 2
Flags: MW
HStem: 0 21G<93 158 93 93> 178 58<158 205 158 261> 544 57<158 209 209 229.5 158 272 158 209> 720 20G<93 158 158 158>
VStem: 93 65<0 178 0 236 236 544 601 740> 451 69<340.5 438.5>
LayerCount: 2
Fore
SplineSet
327 598 m 0
 457 584 520 502 520 393 c 0
 520 280 443 195 317 183 c 0
 275 178 245 178 205 178 c 2
 158 178 l 1
 158 0 l 1
 93 0 l 1
 93 740 l 1
 158 740 l 1
 158 601 l 1
 209 601 l 2
 250 601 293 601 327 598 c 0
261 236 m 2
 387 235 451 290 451 391 c 0
 451 486 398 544 272 544 c 2
 158 544 l 1
 158 236 l 1
 261 236 l 2
EndSplineSet
Position2: "'cpsp' Capital Spacing in Latin lookup 0 subtable" dx=5 dy=0 dh=10 dv=0
EndChar

StartChar: Q
Encoding: 81 81 75
Width: 757
GlyphClass: 2
Flags: MW
HStem: -213 21G<653 653> -14 56<301 378> 698 56<301 455.5>
VStem: 44 71<269 471 269 494.5> 641 71<270.5 471>
LayerCount: 2
Fore
SplineSet
484 2 m 1
 719 -177 l 1
 653 -213 l 1
 478 -60 l 2
 438 -24 412 -16 378 -14 c 0
 196 -14 44 121 44 370 c 0
 44 619 196 754 378 754 c 0
 561 754 712 619 712 370 c 0
 712 171 616 45 484 2 c 1
115 370 m 0
 115 168 224 42 378 42 c 0
 533 42 641 168 641 370 c 0
 641 572 533 698 378 698 c 0
 224 698 115 572 115 370 c 0
EndSplineSet
Position2: "'cpsp' Capital Spacing in Latin lookup 0 subtable" dx=5 dy=0 dh=10 dv=0
EndChar

StartChar: R
Encoding: 82 82 76
Width: 592
GlyphClass: 2
Flags: MW
HStem: 0 21G<93 158 93 93 473 551 473 473> 316 55<158 314 314 324 158 314> 685 55<158 248 248 266 93 283 158 158>
VStem: 93 65<0 316 371 685> 457 71<487 581>
AnchorPoint: "Anchor-0" 293 0 basechar 0
LayerCount: 2
Fore
SplineSet
473 0 m 1
 324 316 l 1
 158 316 l 1
 158 0 l 1
 93 0 l 1
 93 740 l 1
 248 740 l 2
 284 740 318 739 341 737 c 0
 462 724 528 645 528 533 c 0
 528 434 473 360 387 331 c 1
 551 0 l 1
 473 0 l 1
158 371 m 1
 314 371 l 2
 407 371 457 448 457 526 c 0
 457 636 400 685 283 685 c 2
 158 685 l 1
 158 371 l 1
EndSplineSet
Position2: "'cpsp' Capital Spacing in Latin lookup 0 subtable" dx=5 dy=0 dh=10 dv=0
EndChar

StartChar: Racute
Encoding: 315 340 77
Width: 592
GlyphClass: 2
Flags: MW
HStem: 0 21G<93 158 93 93 473 551 473 473> 316 55<158 314 314 324 158 314> 685 55<158 248 248 266 93 283 158 158> 799 136<242 405 242 405>
VStem: 93 65<0 316 371 685> 457 71<487 581>
AnchorPoint: "Anchor-0" 293 0 basechar 0
LayerCount: 2
Fore
SplineSet
405 935 m 1
 288 799 l 1
 242 799 l 1
 326 935 l 1
 405 935 l 1
473 0 m 1
 324 316 l 1
 158 316 l 1
 158 0 l 1
 93 0 l 1
 93 740 l 1
 248 740 l 2
 284 740 318 739 341 737 c 0
 462 724 528 645 528 533 c 0
 528 434 473 360 387 331 c 1
 551 0 l 1
 473 0 l 1
158 371 m 1
 314 371 l 2
 407 371 457 448 457 526 c 0
 457 636 400 685 283 685 c 2
 158 685 l 1
 158 371 l 1
EndSplineSet
Position2: "'cpsp' Capital Spacing in Latin lookup 0 subtable" dx=5 dy=0 dh=10 dv=0
EndChar

StartChar: Rcaron
Encoding: 316 344 78
Width: 592
GlyphClass: 2
Flags: MW
HStem: 0 21G<93 158 93 93 473 551 473 473> 316 55<158 314 314 324 158 314> 685 55<158 248 248 266 93 283 158 158> 799 136<148 307 148 247>
VStem: 93 65<0 316 371 685> 457 71<487 581>
AnchorPoint: "Anchor-0" 293 0 basechar 0
LayerCount: 2
Fore
SplineSet
307 799 m 1
 247 799 l 1
 148 935 l 1
 199 935 l 1
 277 842 l 1
 355 935 l 1
 406 935 l 1
 307 799 l 1
473 0 m 1
 324 316 l 1
 158 316 l 1
 158 0 l 1
 93 0 l 1
 93 740 l 1
 248 740 l 2
 284 740 318 739 341 737 c 0
 462 724 528 645 528 533 c 0
 528 434 473 360 387 331 c 1
 551 0 l 1
 473 0 l 1
158 371 m 1
 314 371 l 2
 407 371 457 448 457 526 c 0
 457 636 400 685 283 685 c 2
 158 685 l 1
 158 371 l 1
EndSplineSet
Position2: "'cpsp' Capital Spacing in Latin lookup 0 subtable" dx=5 dy=0 dh=10 dv=0
EndChar

StartChar: Rcommaaccent
Encoding: 317 342 79
Width: 592
GlyphClass: 2
Flags: MW
HStem: 0 21G<93 158 93 93 473 551 473 473> 316 55<158 314 314 324 158 314> 685 55<158 248 248 266 93 283 158 158>
VStem: 93 65<0 316 371 685> 263 62 457 71<487 581>
AnchorPoint: "Anchor-0" 293 0 basechar 0
LayerCount: 2
Fore
SplineSet
387 331 m 1
 551 0 l 1
 473 0 l 1
 324 316 l 1
 158 316 l 1
 158 0 l 1
 93 0 l 1
 93 740 l 1
 248 740 l 2
 284 740 318 739 341 737 c 0
 462 724 528 645 528 533 c 0
 528 434 473 360 387 331 c 1
158 371 m 1
 314 371 l 2
 407 371 457 448 457 526 c 0
 457 636 400 685 283 685 c 2
 158 685 l 1
 158 371 l 1
263 -66 m 1
 275 -58 308 -50 325 -51 c 1
 328 -132 299 -195 248 -252 c 1
 201 -252 l 1
 246 -176 261 -124 263 -66 c 1
EndSplineSet
Position2: "'cpsp' Capital Spacing in Latin lookup 0 subtable" dx=5 dy=0 dh=10 dv=0
EndChar

StartChar: S
Encoding: 83 83 80
Width: 555
GlyphClass: 2
Flags: MW
HStem: -14 59<225 300 225 318> 695 59<267 339>
VStem: 95 69<544.5 612 544.5 626.5> 417 71<131 209.5>
AnchorPoint: "Anchor-0" 275 0 basechar 0
LayerCount: 2
Fore
SplineSet
253 -14 m 0
 182 -14 108 3 58 50 c 1
 87 98 l 1
 138 61 193 45 257 45 c 0
 343 45 417 88 417 174 c 0
 417 245 370 290 251 361 c 0
 152 421 95 473 95 569 c 0
 95 684 190 754 321 754 c 0
 380 754 427 743 472 716 c 1
 450 667 l 1
 409 689 363 695 315 695 c 0
 219 695 164 647 164 577 c 0
 164 512 206 465 294 412 c 0
 424 334 488 278 488 179 c 0
 488 56 383 -14 253 -14 c 0
EndSplineSet
Position2: "'cpsp' Capital Spacing in Latin lookup 0 subtable" dx=5 dy=0 dh=10 dv=0
EndChar

StartChar: Sacute
Encoding: 318 346 81
Width: 555
GlyphClass: 2
Flags: MW
HStem: -14 59<225 300 225 318> 695 59<267 339> 799 136<257 420 257 420>
VStem: 95 69<544.5 612 544.5 626.5> 417 71<131 209.5>
AnchorPoint: "Anchor-0" 275 0 basechar 0
LayerCount: 2
Fore
SplineSet
257 799 m 1
 341 935 l 1
 420 935 l 1
 303 799 l 1
 257 799 l 1
253 -14 m 0
 182 -14 108 3 58 50 c 1
 87 98 l 1
 138 61 193 45 257 45 c 0
 343 45 417 88 417 174 c 0
 417 245 370 290 251 361 c 0
 152 421 95 473 95 569 c 0
 95 684 190 754 321 754 c 0
 380 754 427 743 472 716 c 1
 450 667 l 1
 409 689 363 695 315 695 c 0
 219 695 164 647 164 577 c 0
 164 512 206 465 294 412 c 0
 424 334 488 278 488 179 c 0
 488 56 383 -14 253 -14 c 0
EndSplineSet
Position2: "'cpsp' Capital Spacing in Latin lookup 0 subtable" dx=5 dy=0 dh=10 dv=0
EndChar

StartChar: Scaron
Encoding: 319 352 82
Width: 555
GlyphClass: 2
Flags: MW
HStem: -14 59<225 300 225 318> 695 59<267 339> 799 136<163 322 163 262>
VStem: 95 69<544.5 612 544.5 626.5> 417 71<131 209.5>
AnchorPoint: "Anchor-0" 275 0 basechar 0
LayerCount: 2
Fore
SplineSet
322 799 m 1
 262 799 l 1
 163 935 l 1
 214 935 l 1
 292 842 l 1
 370 935 l 1
 421 935 l 1
 322 799 l 1
294 412 m 0
 424 334 488 278 488 179 c 0
 488 56 383 -14 253 -14 c 0
 182 -14 108 3 58 50 c 1
 87 98 l 1
 138 61 193 45 257 45 c 0
 343 45 417 88 417 174 c 0
 417 245 370 290 251 361 c 0
 152 421 95 473 95 569 c 0
 95 684 190 754 321 754 c 0
 380 754 427 743 472 716 c 1
 450 667 l 1
 409 689 363 695 315 695 c 0
 219 695 164 647 164 577 c 0
 164 512 206 465 294 412 c 0
EndSplineSet
Position2: "'cpsp' Capital Spacing in Latin lookup 0 subtable" dx=5 dy=0 dh=10 dv=0
EndChar

StartChar: Scedilla
Encoding: 320 350 83
Width: 555
GlyphClass: 2
Flags: MW
HStem: -210 41<236 263.5 236 279> -81 35 -14 59<225 251> 695 59<267 339>
VStem: 95 69<544.5 612 544.5 626.5> 313 52<-138.5 -106.5> 417 71<131 209.5>
AnchorPoint: "Anchor-0" 275 0 basechar 0
LayerCount: 2
Fore
SplineSet
488 179 m 0
 488 68 402 0 291 -12 c 1
 275 -46 l 1
 331 -51 365 -81 365 -123 c 0
 365 -180 311 -210 247 -210 c 0
 220 -210 198 -205 181 -194 c 1
 197 -160 l 1
 213 -167 228 -169 244 -169 c 0
 283 -169 313 -154 313 -123 c 0
 313 -90 279 -76 221 -81 c 1
 251 -14 l 1
 180 -14 107 4 58 50 c 1
 87 98 l 1
 138 61 193 45 257 45 c 0
 343 45 417 88 417 174 c 0
 417 245 370 290 251 361 c 0
 152 421 95 473 95 569 c 0
 95 684 190 754 321 754 c 0
 380 754 427 743 472 716 c 1
 450 667 l 1
 409 689 363 695 315 695 c 0
 219 695 164 647 164 577 c 0
 164 512 206 465 294 412 c 0
 424 334 488 278 488 179 c 0
EndSplineSet
Position2: "'cpsp' Capital Spacing in Latin lookup 0 subtable" dx=5 dy=0 dh=10 dv=0
EndChar

StartChar: T
Encoding: 84 84 84
Width: 564
GlyphClass: 2
Flags: MW
HStem: 0 21G<246 246 246 312> 685 55<16 246 16 553 312 312 312 543>
VStem: 246 66<0 685 0 685>
AnchorPoint: "Anchor-0" 277 0 basechar 0
LayerCount: 2
Fore
SplineSet
246 0 m 1
 246 685 l 1
 16 685 l 1
 16 740 l 1
 553 740 l 1
 543 685 l 1
 312 685 l 1
 312 0 l 1
 246 0 l 1
EndSplineSet
Position2: "'cpsp' Capital Spacing in Latin lookup 0 subtable" dx=5 dy=0 dh=10 dv=0
EndChar

StartChar: Tbar
Encoding: 321 358 85
Width: 564
GlyphClass: 2
Flags: MW
HStem: 0 21G<246 312 246 246> 365 52<143 246 143 246 312 415> 685 55<16 246 16 553 312 543 312 312>
VStem: 246 66<0 365 0 365 417 685>
AnchorPoint: "Anchor-0" 277 0 basechar 0
LayerCount: 2
Fore
SplineSet
543 685 m 1
 312 685 l 1
 312 417 l 1
 415 417 l 1
 415 365 l 1
 312 365 l 1
 312 0 l 1
 246 0 l 1
 246 365 l 1
 143 365 l 1
 143 417 l 1
 246 417 l 1
 246 685 l 1
 16 685 l 1
 16 740 l 1
 553 740 l 1
 543 685 l 1
EndSplineSet
Position2: "'cpsp' Capital Spacing in Latin lookup 0 subtable" dx=5 dy=0 dh=10 dv=0
EndChar

StartChar: Tcaron
Encoding: 322 356 86
Width: 564
GlyphClass: 2
Flags: MW
HStem: 0 21G<246 312 246 246> 685 55<16 246 16 553 312 543 312 312> 799 136<145 304 145 244>
VStem: 246 66<0 685 0 685>
AnchorPoint: "Anchor-0" 277 0 basechar 0
LayerCount: 2
Fore
SplineSet
304 799 m 1
 244 799 l 1
 145 935 l 1
 196 935 l 1
 274 842 l 1
 352 935 l 1
 403 935 l 1
 304 799 l 1
16 740 m 1
 553 740 l 1
 543 685 l 1
 312 685 l 1
 312 0 l 1
 246 0 l 1
 246 685 l 1
 16 685 l 1
 16 740 l 1
EndSplineSet
Position2: "'cpsp' Capital Spacing in Latin lookup 0 subtable" dx=5 dy=0 dh=10 dv=0
EndChar

StartChar: uni0162
Encoding: 323 354 87
Width: 564
GlyphClass: 2
Flags: MW
HStem: -210 41<237 264.5 237 280> -81 35 0 21G<246 258 246 246 297 312 297 297> 685 55<16 246 16 553 312 312 312 543>
VStem: 246 66<0 685> 314 52<-138.5 -106.5>
AnchorPoint: "Anchor-0" 277 0 basechar 0
LayerCount: 2
Fore
SplineSet
312 0 m 1
 297 0 l 1xf8
 276 -46 l 1
 332 -51 366 -81 366 -123 c 0
 366 -180 312 -210 248 -210 c 0
 221 -210 199 -205 182 -194 c 1
 198 -160 l 1
 214 -167 229 -169 245 -169 c 0
 284 -169 314 -154 314 -123 c 0
 314 -90 280 -76 222 -81 c 1
 258 0 l 1xf4
 246 0 l 1
 246 685 l 1
 16 685 l 1
 16 740 l 1
 553 740 l 1
 543 685 l 1
 312 685 l 1
 312 0 l 1
EndSplineSet
Position2: "'cpsp' Capital Spacing in Latin lookup 0 subtable" dx=5 dy=0 dh=10 dv=0
EndChar

StartChar: U
Encoding: 85 85 88
Width: 647
GlyphClass: 2
Flags: MW
HStem: -14 56<274 381.5 274 394> 720 20G<83 148 148 148 499 564 564 564>
VStem: 83 65<330 740> 499 65<306.5 330 330 740>
LayerCount: 2
Fore
SplineSet
324 -14 m 0
 181 -14 100 58 86 204 c 0
 83 237 83 283 83 330 c 2
 83 740 l 1
 148 740 l 1
 148 254 l 2
 148 93 221 42 327 42 c 0
 436 42 499 105 499 254 c 2
 499 740 l 1
 564 740 l 1
 564 330 l 2
 564 283 564 237 561 204 c 0
 548 65 464 -14 324 -14 c 0
EndSplineSet
Position2: "'cpsp' Capital Spacing in Latin lookup 0 subtable" dx=5 dy=0 dh=10 dv=0
EndChar

StartChar: Uacute
Encoding: 324 218 89
Width: 647
GlyphClass: 2
Flags: MW
HStem: -14 56<274 381.5 274 394> 720 20G<83 148 148 148 499 564 564 564> 799 136<286 449 286 449>
VStem: 83 65<330 740> 499 65<306.5 330 330 740>
LayerCount: 2
Fore
SplineSet
286 799 m 1
 370 935 l 1
 449 935 l 1
 332 799 l 1
 286 799 l 1
324 -14 m 0
 181 -14 100 58 86 204 c 0
 83 237 83 283 83 330 c 2
 83 740 l 1
 148 740 l 1
 148 254 l 2
 148 93 221 42 327 42 c 0
 436 42 499 105 499 254 c 2
 499 740 l 1
 564 740 l 1
 564 330 l 2
 564 283 564 237 561 204 c 0
 548 65 464 -14 324 -14 c 0
EndSplineSet
Position2: "'cpsp' Capital Spacing in Latin lookup 0 subtable" dx=5 dy=0 dh=10 dv=0
EndChar

StartChar: Ucircumflex
Encoding: 325 219 90
Width: 647
GlyphClass: 2
Flags: MW
HStem: -14 56<274 381.5 274 394> 720 20G<83 148 148 148 499 564 564 564> 799 136<192 351 192 351 291 399 291 450>
VStem: 83 65<330 740> 499 65<306.5 330 330 740>
LayerCount: 2
Fore
SplineSet
321 892 m 1
 243 799 l 1
 192 799 l 1
 291 935 l 1
 351 935 l 1
 450 799 l 1
 399 799 l 1
 321 892 l 1
499 740 m 1
 564 740 l 1
 564 330 l 2
 564 283 564 237 561 204 c 0
 548 65 464 -14 324 -14 c 0
 181 -14 100 58 86 204 c 0
 83 237 83 283 83 330 c 2
 83 740 l 1
 148 740 l 1
 148 254 l 2
 148 93 221 42 327 42 c 0
 436 42 499 105 499 254 c 2
 499 740 l 1
EndSplineSet
Position2: "'cpsp' Capital Spacing in Latin lookup 0 subtable" dx=5 dy=0 dh=10 dv=0
EndChar

StartChar: Udieresis
Encoding: 326 220 91
Width: 647
GlyphClass: 2
Flags: MW
HStem: -14 56<274 381.5 274 394> 720 20G<83 148 148 148 499 564 564 564> 818.25 90.5
VStem: 83 65<330 740> 225 64<822 905 822 905> 359 64<822 905 822 905> 499 65<306.5 330 330 740>
LayerCount: 2
Fore
SplineSet
225 822 m 1
 225 905 l 1
 241 910 273 910 289 905 c 1
 289 822 l 1
 273 817 241 817 225 822 c 1
359 822 m 1
 359 905 l 1
 375 910 406 910 423 905 c 1
 423 822 l 1
 406 817 375 817 359 822 c 1
324 -14 m 0
 181 -14 100 58 86 204 c 0
 83 237 83 283 83 330 c 2
 83 740 l 1
 148 740 l 1
 148 254 l 2
 148 93 221 42 327 42 c 0
 436 42 499 105 499 254 c 2
 499 740 l 1
 564 740 l 1
 564 330 l 2
 564 283 564 237 561 204 c 0
 548 65 464 -14 324 -14 c 0
EndSplineSet
Position2: "'cpsp' Capital Spacing in Latin lookup 0 subtable" dx=5 dy=0 dh=10 dv=0
EndChar

StartChar: Ugrave
Encoding: 327 217 92
Width: 647
GlyphClass: 2
Flags: MW
HStem: -14 56<274 381.5 274 394> 720 20G<83 148 148 148 499 564 564 564> 799 136<198 361 198 315>
VStem: 83 65<330 740> 499 65<306.5 330 330 740>
LayerCount: 2
Fore
SplineSet
361 799 m 1
 315 799 l 1
 198 935 l 1
 277 935 l 1
 361 799 l 1
324 -14 m 0
 181 -14 100 58 86 204 c 0
 83 237 83 283 83 330 c 2
 83 740 l 1
 148 740 l 1
 148 254 l 2
 148 93 221 42 327 42 c 0
 436 42 499 105 499 254 c 2
 499 740 l 1
 564 740 l 1
 564 330 l 2
 564 283 564 237 561 204 c 0
 548 65 464 -14 324 -14 c 0
EndSplineSet
Position2: "'cpsp' Capital Spacing in Latin lookup 0 subtable" dx=5 dy=0 dh=10 dv=0
EndChar

StartChar: Uhungarumlaut
Encoding: 328 368 93
Width: 647
GlyphClass: 2
Flags: MW
HStem: -14 56<274 381.5 274 394> 720 20G<83 148 148 148 499 564 564 564> 799 136<212 375 212 375 348 375 296 394 348 348>
VStem: 83 65<330 740> 499 65<306.5 330 330 740>
LayerCount: 2
Fore
SplineSet
212 799 m 1
 296 935 l 1
 375 935 l 1
 258 799 l 1
 212 799 l 1
348 799 m 1
 432 935 l 1
 511 935 l 1
 394 799 l 1
 348 799 l 1
324 -14 m 0
 181 -14 100 58 86 204 c 0
 83 237 83 283 83 330 c 2
 83 740 l 1
 148 740 l 1
 148 254 l 2
 148 93 221 42 327 42 c 0
 436 42 499 105 499 254 c 2
 499 740 l 1
 564 740 l 1
 564 330 l 2
 564 283 564 237 561 204 c 0
 548 65 464 -14 324 -14 c 0
EndSplineSet
Position2: "'cpsp' Capital Spacing in Latin lookup 0 subtable" dx=5 dy=0 dh=10 dv=0
EndChar

StartChar: Umacron
Encoding: 329 362 94
Width: 647
GlyphClass: 2
Flags: MW
HStem: -14 56<274 381.5 274 394> 720 20G<83 148 148 148 499 564 564 564> 849 46<216 431 216 431>
VStem: 83 65<330 740> 216 215<849 895 849 895> 499 65<306.5 330 330 740>
LayerCount: 2
Fore
SplineSet
216 849 m 1
 216 895 l 1
 431 895 l 1
 431 849 l 1
 216 849 l 1
324 -14 m 0
 181 -14 100 58 86 204 c 0
 83 237 83 283 83 330 c 2
 83 740 l 1
 148 740 l 1
 148 254 l 2
 148 93 221 42 327 42 c 0
 436 42 499 105 499 254 c 2
 499 740 l 1
 564 740 l 1
 564 330 l 2
 564 283 564 237 561 204 c 0
 548 65 464 -14 324 -14 c 0
EndSplineSet
Position2: "'cpsp' Capital Spacing in Latin lookup 0 subtable" dx=5 dy=0 dh=10 dv=0
EndChar

StartChar: Uogonek
Encoding: 330 370 95
Width: 647
GlyphClass: 2
Flags: MW
HStem: -220 43<380.5 389> -14 56<274 327.5> 720 20G<83 148 148 148 499 564 564 564>
VStem: 83 65<330 740> 281 61<-136.5 -105.5> 499 65<306.5 330 330 740>
LayerCount: 2
Fore
SplineSet
499 740 m 1
 564 740 l 1
 564 330 l 2
 564 283 564 237 561 204 c 0
 551 107 507 38 433 6 c 1
 371 -26 342 -70 342 -117 c 0
 342 -156 363 -177 398 -177 c 0
 415 -177 432 -173 450 -164 c 1
 446 -199 l 1
 423 -213 401 -220 377 -220 c 0
 323 -220 281 -193 281 -128 c 0
 281 -83 308 -39 344 -13 c 1
 338 -14 331 -14 324 -14 c 0
 181 -14 100 58 86 204 c 0
 83 237 83 283 83 330 c 2
 83 740 l 1
 148 740 l 1
 148 254 l 2
 148 93 221 42 327 42 c 0
 436 42 499 105 499 254 c 2
 499 740 l 1
EndSplineSet
Position2: "'cpsp' Capital Spacing in Latin lookup 0 subtable" dx=5 dy=0 dh=10 dv=0
EndChar

StartChar: Uring
Encoding: 331 366 96
Width: 647
GlyphClass: 2
Flags: MW
HStem: -14 56<274 381.5 274 394> 720 20G<83 148 148 148 499 564 564 564> 777 34<308 339.5 308 351.5> 917 34<308 339.5>
VStem: 83 65<330 740> 224 44<848.5 879.5 848.5 889.5> 380 44<848.5 879.5> 499 65<306.5 330 330 740>
LayerCount: 2
Fore
SplineSet
324 777 m 0
 269 777 224 814 224 864 c 0
 224 915 269 951 324 951 c 0
 379 951 424 915 424 864 c 0
 424 814 379 777 324 777 c 0
324 811 m 0
 355 811 380 833 380 864 c 0
 380 895 355 917 324 917 c 0
 292 917 268 895 268 864 c 0
 268 833 292 811 324 811 c 0
324 -14 m 0
 181 -14 100 58 86 204 c 0
 83 237 83 283 83 330 c 2
 83 740 l 1
 148 740 l 1
 148 254 l 2
 148 93 221 42 327 42 c 0
 436 42 499 105 499 254 c 2
 499 740 l 1
 564 740 l 1
 564 330 l 2
 564 283 564 237 561 204 c 0
 548 65 464 -14 324 -14 c 0
EndSplineSet
Position2: "'cpsp' Capital Spacing in Latin lookup 0 subtable" dx=5 dy=0 dh=10 dv=0
EndChar

StartChar: V
Encoding: 86 86 97
Width: 657
GlyphClass: 2
Flags: MW
HStem: 0 58<323 323 323 363 279 323> 720 20G<23 95 95 95 569 639 639 639>
VStem: 23 616<740 740>
LayerCount: 2
Fore
SplineSet
569 740 m 1
 639 740 l 1
 363 0 l 1
 279 0 l 1
 23 740 l 1
 95 740 l 1
 323 58 l 1
 569 740 l 1
EndSplineSet
Position2: "'cpsp' Capital Spacing in Latin lookup 0 subtable" dx=5 dy=0 dh=10 dv=0
EndChar

StartChar: W
Encoding: 87 87 98
Width: 957
GlyphClass: 2
Flags: MW
HStem: 0 21G<223 296 223 223 655 729 655 655> 0 70<696 696 696 729 655 696> 0 78<261 261 261 296 223 261> 720 20G<23 95 95 95 875 940 940 940>
VStem: 23 917<740 740>
LayerCount: 2
Fore
SplineSet
875 740 m 1x98
 940 740 l 1
 729 0 l 1
 655 0 l 1
 482 625 l 1
 296 0 l 1
 223 0 l 1
 23 740 l 1
 95 740 l 1
 261 78 l 1x38
 452 719 l 1
 515 719 l 1
 696 70 l 1x58
 875 740 l 1x98
EndSplineSet
Position2: "'cpsp' Capital Spacing in Latin lookup 0 subtable" dx=5 dy=0 dh=10 dv=0
EndChar

StartChar: Wacute
Encoding: 332 7810 99
Width: 957
GlyphClass: 2
Flags: MW
HStem: 0 21G<223 296 223 223 655 729 655 655> 0 70<696 696 696 729 655 696> 0 78<261 261 261 296 223 261> 720 20G<23 95 95 95 875 940 940 940> 799 136<446 609 446 609>
VStem: 23 917<740 740>
LayerCount: 2
Fore
SplineSet
609 935 m 1x9c
 492 799 l 1
 446 799 l 1
 530 935 l 1
 609 935 l 1x9c
875 740 m 1
 940 740 l 1
 729 0 l 1
 655 0 l 1
 482 625 l 1
 296 0 l 1
 223 0 l 1
 23 740 l 1
 95 740 l 1
 261 78 l 1x3c
 452 719 l 1
 515 719 l 1
 696 70 l 1x5c
 875 740 l 1
EndSplineSet
Position2: "'cpsp' Capital Spacing in Latin lookup 0 subtable" dx=5 dy=0 dh=10 dv=0
EndChar

StartChar: Wcircumflex
Encoding: 333 372 100
Width: 957
GlyphClass: 2
Flags: MW
HStem: 0 21G<223 296 223 223 655 729 655 655> 0 70<696 696 696 729 655 696> 0 78<261 261 261 296 223 261> 720 20G<23 95 95 95 875 940 940 940> 799 136<353 512 353 512 452 560 452 611>
VStem: 23 917<740 740>
LayerCount: 2
Fore
SplineSet
482 892 m 1x9c
 404 799 l 1
 353 799 l 1
 452 935 l 1
 512 935 l 1
 611 799 l 1
 560 799 l 1
 482 892 l 1x9c
875 740 m 1
 940 740 l 1
 729 0 l 1
 655 0 l 1
 482 625 l 1
 296 0 l 1
 223 0 l 1
 23 740 l 1
 95 740 l 1
 261 78 l 1x3c
 452 719 l 1
 515 719 l 1
 696 70 l 1x5c
 875 740 l 1
EndSplineSet
Position2: "'cpsp' Capital Spacing in Latin lookup 0 subtable" dx=5 dy=0 dh=10 dv=0
EndChar

StartChar: Wdieresis
Encoding: 334 7812 101
Width: 957
GlyphClass: 2
Flags: MW
HStem: 0 21G<223 296 223 223 655 729 655 655> 0 70<696 696 696 729 655 696> 0 78<261 261 261 296 223 261> 720 20G<23 95 95 95 875 940 940 940> 818.25 90.5
VStem: 385 64<822 905> 519 64<822 905>
LayerCount: 2
Fore
SplineSet
449 822 m 1x9e
 433 817 401 817 385 822 c 1
 385 905 l 1
 401 910 433 910 449 905 c 1
 449 822 l 1x9e
583 822 m 1
 566 817 535 817 519 822 c 1
 519 905 l 1
 535 910 566 910 583 905 c 1
 583 822 l 1
875 740 m 1
 940 740 l 1
 729 0 l 1
 655 0 l 1
 482 625 l 1
 296 0 l 1
 223 0 l 1
 23 740 l 1
 95 740 l 1
 261 78 l 1x3e
 452 719 l 1
 515 719 l 1
 696 70 l 1x5e
 875 740 l 1
EndSplineSet
Position2: "'cpsp' Capital Spacing in Latin lookup 0 subtable" dx=5 dy=0 dh=10 dv=0
EndChar

StartChar: Wgrave
Encoding: 335 7808 102
Width: 957
GlyphClass: 2
Flags: MW
HStem: 0 21G<223 296 223 223 655 729 655 655> 0 70<696 696 696 729 655 696> 0 78<261 261 261 296 223 261> 720 20G<23 95 95 95 875 940 940 940> 799 136<358 521 358 475>
VStem: 23 917<740 740>
LayerCount: 2
Fore
SplineSet
521 799 m 1x9c
 475 799 l 1
 358 935 l 1
 437 935 l 1
 521 799 l 1x9c
875 740 m 1
 940 740 l 1
 729 0 l 1
 655 0 l 1
 482 625 l 1
 296 0 l 1
 223 0 l 1
 23 740 l 1
 95 740 l 1
 261 78 l 1x3c
 452 719 l 1
 515 719 l 1
 696 70 l 1x5c
 875 740 l 1
EndSplineSet
Position2: "'cpsp' Capital Spacing in Latin lookup 0 subtable" dx=5 dy=0 dh=10 dv=0
EndChar

StartChar: X
Encoding: 88 88 103
Width: 639
GlyphClass: 2
Flags: MW
HStem: 0 21G<47 126 47 47 509 589 509 509> 720 20G<68 146 146 146 511 586 586 586>
VStem: 47 542<0 0>
LayerCount: 2
Fore
SplineSet
589 0 m 1
 509 0 l 1
 320 328 l 1
 126 0 l 1
 47 0 l 1
 285 373 l 1
 68 740 l 1
 146 740 l 1
 323 423 l 1
 511 740 l 1
 586 740 l 1
 361 381 l 1
 589 0 l 1
EndSplineSet
Position2: "'cpsp' Capital Spacing in Latin lookup 0 subtable" dx=5 dy=0 dh=10 dv=0
EndChar

StartChar: Y
Encoding: 89 89 104
Width: 575
GlyphClass: 2
Flags: MW
HStem: 0 21G<255 320 255 255> 720 20G<18 96 96 96 490 561 561 561>
VStem: 255 65<0 325 0 326 0 326>
LayerCount: 2
Fore
SplineSet
561 740 m 1
 320 325 l 1
 320 0 l 1
 255 0 l 1
 255 326 l 1
 18 740 l 1
 96 740 l 1
 290 381 l 1
 490 740 l 1
 561 740 l 1
EndSplineSet
Position2: "'cpsp' Capital Spacing in Latin lookup 0 subtable" dx=5 dy=0 dh=10 dv=0
EndChar

StartChar: Yacute
Encoding: 336 221 105
Width: 575
GlyphClass: 2
Flags: MW
HStem: 0 21G<255 320 255 255> 720 20G<18 96 96 96 490 561 561 561> 799 136<255 418 255 418>
VStem: 255 65<0 325 0 326 0 326>
LayerCount: 2
Fore
SplineSet
418 935 m 1
 301 799 l 1
 255 799 l 1
 339 935 l 1
 418 935 l 1
561 740 m 1
 320 325 l 1
 320 0 l 1
 255 0 l 1
 255 326 l 1
 18 740 l 1
 96 740 l 1
 290 381 l 1
 490 740 l 1
 561 740 l 1
EndSplineSet
Position2: "'cpsp' Capital Spacing in Latin lookup 0 subtable" dx=5 dy=0 dh=10 dv=0
EndChar

StartChar: Ycircumflex
Encoding: 337 374 106
Width: 575
GlyphClass: 2
Flags: MW
HStem: 0 21G<255 320 255 255> 720 20G<18 96 96 96 490 561 561 561> 799 136<162 321 162 321 261 369 261 420>
VStem: 255 65<0 325 0 326 0 326>
LayerCount: 2
Fore
SplineSet
291 892 m 1
 213 799 l 1
 162 799 l 1
 261 935 l 1
 321 935 l 1
 420 799 l 1
 369 799 l 1
 291 892 l 1
561 740 m 1
 320 325 l 1
 320 0 l 1
 255 0 l 1
 255 326 l 1
 18 740 l 1
 96 740 l 1
 290 381 l 1
 490 740 l 1
 561 740 l 1
EndSplineSet
Position2: "'cpsp' Capital Spacing in Latin lookup 0 subtable" dx=5 dy=0 dh=10 dv=0
EndChar

StartChar: Ydieresis
Encoding: 338 376 107
Width: 575
GlyphClass: 2
Flags: MW
HStem: 0 21G<255 320 255 255> 720 20G<18 96 96 96 490 561 561 561> 818.25 90.5
VStem: 194 64<822 905> 255 65<0 325 0 326 0 326> 328 64<822 905>
LayerCount: 2
Fore
SplineSet
258 822 m 1xf4
 242 817 210 817 194 822 c 1
 194 905 l 1
 210 910 242 910 258 905 c 1
 258 822 l 1xf4
392 822 m 1
 375 817 344 817 328 822 c 1
 328 905 l 1
 344 910 375 910 392 905 c 1
 392 822 l 1
561 740 m 1
 320 325 l 1
 320 0 l 1
 255 0 l 1
 255 326 l 1xe8
 18 740 l 1
 96 740 l 1
 290 381 l 1
 490 740 l 1
 561 740 l 1
EndSplineSet
Position2: "'cpsp' Capital Spacing in Latin lookup 0 subtable" dx=5 dy=0 dh=10 dv=0
EndChar

StartChar: Ygrave
Encoding: 339 7922 108
Width: 575
GlyphClass: 2
Flags: MW
HStem: 0 21G<255 320 255 255> 720 20G<18 96 96 96 490 561 561 561> 799 136<167 330 167 284>
VStem: 255 65<0 325 0 326 0 326>
LayerCount: 2
Fore
SplineSet
330 799 m 1
 284 799 l 1
 167 935 l 1
 246 935 l 1
 330 799 l 1
561 740 m 1
 320 325 l 1
 320 0 l 1
 255 0 l 1
 255 326 l 1
 18 740 l 1
 96 740 l 1
 290 381 l 1
 490 740 l 1
 561 740 l 1
EndSplineSet
Position2: "'cpsp' Capital Spacing in Latin lookup 0 subtable" dx=5 dy=0 dh=10 dv=0
EndChar

StartChar: Z
Encoding: 90 90 109
Width: 616
GlyphClass: 2
Flags: MW
HStem: 0 55<146 564> 685 55<90 457 90 539>
VStem: 65 509<0 55 40 55>
LayerCount: 2
Fore
SplineSet
146 55 m 1
 574 55 l 1
 564 0 l 1
 65 0 l 1
 65 40 l 1
 457 685 l 1
 90 685 l 1
 90 740 l 1
 539 740 l 1
 539 702 l 1
 146 55 l 1
EndSplineSet
Position2: "'cpsp' Capital Spacing in Latin lookup 0 subtable" dx=5 dy=0 dh=10 dv=0
EndChar

StartChar: Zacute
Encoding: 340 377 110
Width: 616
GlyphClass: 2
Flags: MW
HStem: 0 55<146 564> 685 55<90 457 90 539> 799 136<275 438 275 438>
VStem: 65 509<0 55 40 55>
LayerCount: 2
Fore
SplineSet
438 935 m 1
 321 799 l 1
 275 799 l 1
 359 935 l 1
 438 935 l 1
146 55 m 1
 574 55 l 1
 564 0 l 1
 65 0 l 1
 65 40 l 1
 457 685 l 1
 90 685 l 1
 90 740 l 1
 539 740 l 1
 539 702 l 1
 146 55 l 1
EndSplineSet
Position2: "'cpsp' Capital Spacing in Latin lookup 0 subtable" dx=5 dy=0 dh=10 dv=0
EndChar

StartChar: Zcaron
Encoding: 341 381 111
Width: 616
GlyphClass: 2
Flags: MW
HStem: 0 55<146 564> 685 55<90 457 90 539> 799 136<181 340 181 280>
VStem: 65 509<0 55 40 55>
LayerCount: 2
Fore
SplineSet
340 799 m 1
 280 799 l 1
 181 935 l 1
 232 935 l 1
 310 842 l 1
 388 935 l 1
 439 935 l 1
 340 799 l 1
146 55 m 1
 574 55 l 1
 564 0 l 1
 65 0 l 1
 65 40 l 1
 457 685 l 1
 90 685 l 1
 90 740 l 1
 539 740 l 1
 539 702 l 1
 146 55 l 1
EndSplineSet
Position2: "'cpsp' Capital Spacing in Latin lookup 0 subtable" dx=5 dy=0 dh=10 dv=0
EndChar

StartChar: Zdotaccent
Encoding: 342 379 112
Width: 616
GlyphClass: 2
Flags: MW
HStem: 0 55<146 564> 685 55<90 457 90 539> 818.25 90.5
VStem: 280 64<822 905>
LayerCount: 2
Fore
SplineSet
344 822 m 1
 328 817 296 817 280 822 c 1
 280 905 l 1
 296 910 328 910 344 905 c 1
 344 822 l 1
146 55 m 1
 574 55 l 1
 564 0 l 1
 65 0 l 1
 65 40 l 1
 457 685 l 1
 90 685 l 1
 90 740 l 1
 539 740 l 1
 539 702 l 1
 146 55 l 1
EndSplineSet
Position2: "'cpsp' Capital Spacing in Latin lookup 0 subtable" dx=5 dy=0 dh=10 dv=0
EndChar

StartChar: a
Encoding: 97 97 113
Width: 516
GlyphClass: 2
Flags: MW
HStem: -14 52<191 230.5> -8 21G<379 379> 0 21G<442 442> 250 51<216.5 282> 480 53<224 284>
VStem: 53 66<111.5 184 111.5 195.5> 365 64<96 118 118 242 242 242 290 307>
LayerCount: 2
Fore
SplineSet
442 0 m 1x3e
 379 -8 l 1x5e
 367 43 l 1
 309 3 257 -14 204 -14 c 0x9e
 118 -14 53 26 53 143 c 0
 53 248 136 301 264 301 c 0
 300 301 337 296 365 290 c 1
 365 356 l 2
 365 434 330 480 238 480 c 0
 199 480 153 470 110 446 c 1
 91 490 l 1
 142 519 196 533 252 533 c 0
 355 533 422 482 428 387 c 0
 429 364 429 341 429 307 c 2
 429 118 l 2
 429 74 431 51 442 0 c 1x3e
119 148 m 0x9e
 119 75 156 38 226 38 c 0
 269 38 317 52 365 85 c 1
 365 242 l 1
 337 247 304 250 260 250 c 0
 173 250 119 220 119 148 c 0x9e
EndSplineSet
EndChar

StartChar: aacute
Encoding: 343 225 114
Width: 516
GlyphClass: 2
Flags: MW
HStem: -14 52<191 230.5> -8 21G<379 379> 0 21G<442 442> 250 51<216.5 282> 480 53<224 284> 604 156<229 385 229 385>
VStem: 53 66<111.5 184 111.5 195.5> 365 64<96 118 118 242 242 242 290 307>
LayerCount: 2
Fore
SplineSet
385 760 m 1x9f
 270 604 l 1
 229 604 l 1
 307 760 l 1
 385 760 l 1x9f
442 0 m 1x3f
 379 -8 l 1x5f
 367 43 l 1
 309 3 257 -14 204 -14 c 0x9f
 118 -14 53 26 53 143 c 0
 53 248 136 301 264 301 c 0
 300 301 337 296 365 290 c 1
 365 356 l 2
 365 434 330 480 238 480 c 0
 199 480 153 470 110 446 c 1
 91 490 l 1
 142 519 196 533 252 533 c 0
 355 533 422 482 428 387 c 0
 429 364 429 341 429 307 c 2
 429 118 l 2
 429 74 431 51 442 0 c 1x3f
119 148 m 0x9f
 119 75 156 38 226 38 c 0
 269 38 317 52 365 85 c 1
 365 242 l 1
 337 247 304 250 260 250 c 0
 173 250 119 220 119 148 c 0x9f
EndSplineSet
EndChar

StartChar: abreve
Encoding: 344 259 115
Width: 516
GlyphClass: 2
Flags: MW
HStem: -14 52<191 230.5> -8 21G<379 379> 0 21G<442 442> 250 51<216.5 282> 480 53<224 284> 588 52<233 283 233 298> 734 20G<140 184 184 184 333 376 376 376>
VStem: 53 66<111.5 184 111.5 195.5> 140 44<754 754> 333 43<754 754> 365 64<96 118 118 242 242 242 290 307>
LayerCount: 2
Fore
SplineSet
258 588 m 0x9fc0
 177 588 131 642 140 754 c 1
 184 754 l 1
 181 677 208 640 258 640 c 0
 308 640 335 677 333 754 c 1
 376 754 l 1
 385 642 338 588 258 588 c 0x9fc0
442 0 m 1x3f20
 379 -8 l 1x5f20
 367 43 l 1
 309 3 257 -14 204 -14 c 0x9f20
 118 -14 53 26 53 143 c 0
 53 248 136 301 264 301 c 0
 300 301 337 296 365 290 c 1
 365 356 l 2
 365 434 330 480 238 480 c 0
 199 480 153 470 110 446 c 1
 91 490 l 1
 142 519 196 533 252 533 c 0
 355 533 422 482 428 387 c 0
 429 364 429 341 429 307 c 2
 429 118 l 2
 429 74 431 51 442 0 c 1x3f20
119 148 m 0x9f20
 119 75 156 38 226 38 c 0
 269 38 317 52 365 85 c 1
 365 242 l 1
 337 247 304 250 260 250 c 0
 173 250 119 220 119 148 c 0x9f20
EndSplineSet
EndChar

StartChar: acircumflex
Encoding: 345 226 116
Width: 516
GlyphClass: 2
Flags: MW
HStem: -14 52<191 230.5> -8 21G<379 379> 0 21G<442 442> 250 51<216.5 282> 480 53<224 284> 604 156<136 287 136 287 230 330 230 381> 714 46<257 257>
VStem: 53 66<111.5 184 111.5 195.5> 365 64<96 118 118 242 242 242 290 307>
LayerCount: 2
Fore
SplineSet
257 714 m 1x9b80
 183 604 l 1
 136 604 l 1
 230 760 l 1
 287 760 l 1
 381 604 l 1
 330 604 l 1x3d80
 257 714 l 1x9b80
442 0 m 1
 379 -8 l 1x5d80
 367 43 l 1
 309 3 257 -14 204 -14 c 0x9d80
 118 -14 53 26 53 143 c 0
 53 248 136 301 264 301 c 0
 300 301 337 296 365 290 c 1
 365 356 l 2
 365 434 330 480 238 480 c 0
 199 480 153 470 110 446 c 1
 91 490 l 1
 142 519 196 533 252 533 c 0
 355 533 422 482 428 387 c 0
 429 364 429 341 429 307 c 2
 429 118 l 2
 429 74 431 51 442 0 c 1
119 148 m 0x9d80
 119 75 156 38 226 38 c 0
 269 38 317 52 365 85 c 1
 365 242 l 1
 337 247 304 250 260 250 c 0
 173 250 119 220 119 148 c 0x9d80
EndSplineSet
EndChar

StartChar: adieresis
Encoding: 346 228 117
Width: 516
GlyphClass: 2
Flags: MW
HStem: -14 52<191 230.5> -8 21G<379 379> 0 21G<442 442> 250 51<216.5 282> 480 53<224 284> 623.25 90.5
VStem: 53 66<111.5 184 111.5 195.5> 162 64<627 710> 296 64<627 710> 365 64<96 118 118 242 242 242 290 307>
LayerCount: 2
Fore
SplineSet
226 627 m 1x9f40
 210 622 178 622 162 627 c 1
 162 710 l 1
 178 715 210 715 226 710 c 1
 226 627 l 1x9f40
360 627 m 1x9f80
 343 622 312 622 296 627 c 1
 296 710 l 1
 312 715 343 715 360 710 c 1
 360 627 l 1x9f80
442 0 m 1x3f40
 379 -8 l 1x5f40
 367 43 l 1
 309 3 257 -14 204 -14 c 0x9f40
 118 -14 53 26 53 143 c 0
 53 248 136 301 264 301 c 0
 300 301 337 296 365 290 c 1
 365 356 l 2
 365 434 330 480 238 480 c 0
 199 480 153 470 110 446 c 1
 91 490 l 1
 142 519 196 533 252 533 c 0
 355 533 422 482 428 387 c 0
 429 364 429 341 429 307 c 2
 429 118 l 2
 429 74 431 51 442 0 c 1x3f40
119 148 m 0x9f40
 119 75 156 38 226 38 c 0
 269 38 317 52 365 85 c 1
 365 242 l 1
 337 247 304 250 260 250 c 0
 173 250 119 220 119 148 c 0x9f40
EndSplineSet
EndChar

StartChar: agrave
Encoding: 347 224 118
Width: 516
GlyphClass: 2
Flags: MW
HStem: -14 52<191 230.5> -8 21G<379 379> 0 21G<442 442> 250 51<216.5 282> 480 53<224 284> 604 156<140 296 140 255>
VStem: 53 66<111.5 184 111.5 195.5> 365 64<96 118 118 242 242 242 290 307>
LayerCount: 2
Fore
SplineSet
296 604 m 1x9f
 255 604 l 1
 140 760 l 1
 218 760 l 1
 296 604 l 1x9f
442 0 m 1x3f
 379 -8 l 1x5f
 367 43 l 1
 309 3 257 -14 204 -14 c 0x9f
 118 -14 53 26 53 143 c 0
 53 248 136 301 264 301 c 0
 300 301 337 296 365 290 c 1
 365 356 l 2
 365 434 330 480 238 480 c 0
 199 480 153 470 110 446 c 1
 91 490 l 1
 142 519 196 533 252 533 c 0
 355 533 422 482 428 387 c 0
 429 364 429 341 429 307 c 2
 429 118 l 2
 429 74 431 51 442 0 c 1x3f
119 148 m 0x9f
 119 75 156 38 226 38 c 0
 269 38 317 52 365 85 c 1
 365 242 l 1
 337 247 304 250 260 250 c 0
 173 250 119 220 119 148 c 0x9f
EndSplineSet
EndChar

StartChar: amacron
Encoding: 348 257 119
Width: 516
GlyphClass: 2
Flags: MW
HStem: -14 52<191 230.5> -8 21G<379 379> 0 21G<442 442> 250 51<216.5 282> 480 53<224 284> 652 44<163 358 163 358>
VStem: 53 66<111.5 184 111.5 195.5> 163 195<652 696 652 696> 365 64<96 118 118 242 242 242 290 307>
LayerCount: 2
Fore
SplineSet
358 696 m 1x9f
 358 652 l 1
 163 652 l 1
 163 696 l 1
 358 696 l 1x9f
442 0 m 1x3e80
 379 -8 l 1x5e80
 367 43 l 1
 309 3 257 -14 204 -14 c 0x9e80
 118 -14 53 26 53 143 c 0
 53 248 136 301 264 301 c 0
 300 301 337 296 365 290 c 1
 365 356 l 2
 365 434 330 480 238 480 c 0
 199 480 153 470 110 446 c 1
 91 490 l 1
 142 519 196 533 252 533 c 0
 355 533 422 482 428 387 c 0
 429 364 429 341 429 307 c 2
 429 118 l 2
 429 74 431 51 442 0 c 1x3e80
119 148 m 0x9e80
 119 75 156 38 226 38 c 0
 269 38 317 52 365 85 c 1
 365 242 l 1
 337 247 304 250 260 250 c 0
 173 250 119 220 119 148 c 0x9e80
EndSplineSet
EndChar

StartChar: aogonek
Encoding: 349 261 120
Width: 516
GlyphClass: 2
Flags: MW
HStem: -220 43<382 390.5> -14 21G -14 52<191 230.5> 0 21G 250 51<216.5 282> 480 53<224 284>
VStem: 53 66<111.5 184 111.5 195.5> 283 60<-136.5 -98.5> 365 64<96 118 118 242 242 242 290 307>
LayerCount: 2
Fore
SplineSet
400 -177 m 0x9f80
 416 -177 434 -173 452 -164 c 1
 448 -199 l 1
 424 -213 403 -220 378 -220 c 0
 325 -220 283 -190 283 -126 c 0
 283 -71 327 -15 375 7 c 1xcf80
 367 43 l 1xaf80
 309 3 257 -14 204 -14 c 0
 118 -14 53 26 53 143 c 0
 53 248 136 301 264 301 c 0
 300 301 337 296 365 290 c 1
 365 356 l 2
 365 434 330 480 238 480 c 0
 199 480 153 470 110 446 c 1
 91 490 l 1
 142 519 196 533 252 533 c 0
 355 533 422 482 428 387 c 0
 429 364 429 341 429 307 c 2
 429 118 l 2xae80
 429 74 431 51 442 0 c 1
 375 -25 343 -67 343 -117 c 0
 343 -156 364 -177 400 -177 c 0x9f80
119 148 m 0xae80
 119 75 156 38 226 38 c 0
 269 38 317 52 365 85 c 1
 365 242 l 1
 337 247 304 250 260 250 c 0
 173 250 119 220 119 148 c 0xae80
EndSplineSet
EndChar

StartChar: aring
Encoding: 350 229 121
Width: 516
GlyphClass: 2
Flags: MW
HStem: -14 52<191 230.5> -8 21G<379 379> 0 21G<442 442> 250 51<216.5 282> 480 53<224 284> 580 34<245.5 276 245.5 288> 726 34<245.5 276>
VStem: 53 66<111.5 184 111.5 195.5> 163 42<653 687 653 697> 316 42<653 687> 365 64<96 118 118 242 242 242 290 307>
LayerCount: 2
Fore
SplineSet
261 580 m 0x9fc0
 206 580 163 617 163 670 c 0
 163 724 206 760 261 760 c 0
 315 760 358 724 358 670 c 0
 358 617 315 580 261 580 c 0x9fc0
261 726 m 0
 230 726 205 704 205 670 c 0
 205 636 230 614 261 614 c 0
 291 614 316 636 316 670 c 0
 316 704 291 726 261 726 c 0
442 0 m 1x3fa0
 379 -8 l 1x5fa0
 367 43 l 1
 309 3 257 -14 204 -14 c 0x9fa0
 118 -14 53 26 53 143 c 0
 53 248 136 301 264 301 c 0
 300 301 337 296 365 290 c 1
 365 356 l 2
 365 434 330 480 238 480 c 0
 199 480 153 470 110 446 c 1
 91 490 l 1
 142 519 196 533 252 533 c 0
 355 533 422 482 428 387 c 0
 429 364 429 341 429 307 c 2
 429 118 l 2
 429 74 431 51 442 0 c 1x3fa0
119 148 m 0x9fa0
 119 75 156 38 226 38 c 0
 269 38 317 52 365 85 c 1
 365 242 l 1
 337 247 304 250 260 250 c 0
 173 250 119 220 119 148 c 0x9fa0
EndSplineSet
EndChar

StartChar: atilde
Encoding: 351 227 122
Width: 516
GlyphClass: 2
Flags: MW
HStem: -14 52<191 230.5> -8 21G<379 379> 0 21G<442 442> 250 51<216.5 282> 480 53<224 284> 625 51<322 338 322 353> 677 52<184 200>
VStem: 53 66<111.5 184 111.5 195.5> 121 38<619 623> 363 38<730 734> 365 64<96 118 118 242 242 242 290 307>
LayerCount: 2
Fore
SplineSet
194 677 m 0x9aa0
 174 677 165 664 159 619 c 1
 121 623 l 1
 126 694 148 729 190 729 c 0x9aa0
 211 729 228 722 267 701 c 0
 305 680 316 676 328 676 c 0
 348 676 357 690 363 734 c 1
 401 730 l 1
 396 659 374 625 332 625 c 0x9d40
 311 625 294 632 255 653 c 0
 216 674 206 677 194 677 c 0x9aa0
442 0 m 1x3920
 379 -8 l 1x5920
 367 43 l 1
 309 3 257 -14 204 -14 c 0x9920
 118 -14 53 26 53 143 c 0
 53 248 136 301 264 301 c 0
 300 301 337 296 365 290 c 1
 365 356 l 2
 365 434 330 480 238 480 c 0
 199 480 153 470 110 446 c 1
 91 490 l 1
 142 519 196 533 252 533 c 0
 355 533 422 482 428 387 c 0
 429 364 429 341 429 307 c 2
 429 118 l 2
 429 74 431 51 442 0 c 1x3920
119 148 m 0x9920
 119 75 156 38 226 38 c 0
 269 38 317 52 365 85 c 1
 365 242 l 1
 337 247 304 250 260 250 c 0
 173 250 119 220 119 148 c 0x9920
EndSplineSet
EndChar

StartChar: ae
Encoding: 352 230 123
Width: 828
GlyphClass: 2
Flags: MW
HStem: -14 54<539 610.5> 247 50<430 703 430 765 429 703> 250 51<229 287> 480 53<545.5 622>
VStem: 53 67<105 180 105 195> 365 64<221 247> 372 58<297 349 297 395> 703 62<247 297>
AnchorPoint: "Anchor-0" 578 0 basechar 0
LayerCount: 2
Fore
SplineSet
587 40 m 0xdb
 643 40 689 49 734 69 c 1
 750 22 l 1
 692 -5 638 -14 583 -14 c 0
 495 -14 436 13 401 73 c 1
 349 11 279 -14 221 -14 c 0
 124 -14 53 29 53 136 c 0
 53 254 149 301 274 301 c 0
 305 301 338 299 366 294 c 1
 367 311 369 327 372 342 c 2
 372 349 l 2xbb
 372 441 338 481 250 481 c 0
 202 481 156 469 109 445 c 1
 90 488 l 1
 143 520 199 533 263 533 c 0
 344 533 389 509 409 446 c 1
 447 507 508 533 583 533 c 0
 698 533 755 466 764 334 c 0
 765 301 765 279 765 247 c 1
 429 247 l 1xdd
 432 90 487 40 587 40 c 0xdb
579 480 m 0
 489 480 437 430 430 297 c 1
 703 297 l 1
 701 437 665 480 579 480 c 0
230 38 m 0
 285 38 343 67 380 123 c 1
 371 157 365 197 365 245 c 1
 336 249 304 250 270 250 c 0xbd
 188 250 120 221 120 139 c 0
 120 71 161 38 230 38 c 0
EndSplineSet
EndChar

StartChar: b
Encoding: 98 98 124
Width: 560
GlyphClass: 2
Flags: MW
HStem: -14 52<251.5 322.5 251.5 348> 480 53<254.5 322> 732 20G<93 93> 740 20G<157 157>
VStem: 93 64<52 468 520 752 752 752> 442 66<182.5 341.5>
LayerCount: 2
Fore
SplineSet
276 533 m 0xdc
 417 533 508 468 508 272 c 0
 508 93 432 -14 264 -14 c 0
 197 -14 147 -6 93 12 c 1
 93 752 l 1xec
 157 760 l 1
 157 520 l 1
 196 529 233 533 276 533 c 0xdc
270 38 m 0
 375 38 442 102 442 262 c 0
 442 421 382 480 262 480 c 0
 222 480 193 478 157 468 c 1
 157 52 l 1
 200 42 233 38 270 38 c 0
EndSplineSet
EndChar

StartChar: c
Encoding: 99 99 125
Width: 465
GlyphClass: 2
Flags: MW
HStem: -14 52<222.5 292> 480 53<237.5 313.5>
VStem: 52 66<180 340.5 180 349>
AnchorPoint: "Anchor-0" 268 0 basechar 0
LayerCount: 2
Fore
SplineSet
262 -14 m 0
 131 -14 52 61 52 251 c 0
 52 447 139 533 300 533 c 0
 346 533 394 522 426 507 c 1
 414 462 l 1
 375 474 333 480 294 480 c 0
 181 480 118 424 118 257 c 0
 118 103 170 38 275 38 c 0
 319 38 361 46 412 64 c 1
 424 19 l 1
 371 -5 322 -14 262 -14 c 0
EndSplineSet
EndChar

StartChar: cacute
Encoding: 353 263 126
Width: 465
GlyphClass: 2
Flags: MW
HStem: -14 52<222.5 292> 480 53<237.5 313.5> 604 156<235 391 235 391>
VStem: 52 66<180 340.5 180 349>
AnchorPoint: "Anchor-0" 268 0 basechar 0
LayerCount: 2
Fore
SplineSet
235 604 m 1
 313 760 l 1
 391 760 l 1
 276 604 l 1
 235 604 l 1
262 -14 m 0
 131 -14 52 61 52 251 c 0
 52 447 139 533 300 533 c 0
 346 533 394 522 426 507 c 1
 414 462 l 1
 375 474 333 480 294 480 c 0
 181 480 118 424 118 257 c 0
 118 103 170 38 275 38 c 0
 319 38 361 46 412 64 c 1
 424 19 l 1
 371 -5 322 -14 262 -14 c 0
EndSplineSet
EndChar

StartChar: ccaron
Encoding: 354 269 127
Width: 465
GlyphClass: 2
Flags: MW
HStem: -14 52<222.5 292> 480 53<237.5 313.5> 604 47<269 269 269 295 238 269> 604 156<144 295 144 238>
VStem: 52 66<180 340.5 180 349>
AnchorPoint: "Anchor-0" 268 0 basechar 0
LayerCount: 2
Fore
SplineSet
295 604 m 1xd8
 238 604 l 1
 144 760 l 1
 195 760 l 1xd8
 269 651 l 1xe8
 343 760 l 1
 389 760 l 1
 295 604 l 1xd8
275 38 m 0
 319 38 361 46 412 64 c 1
 424 19 l 1
 371 -5 322 -14 262 -14 c 0
 131 -14 52 61 52 251 c 0
 52 447 139 533 300 533 c 0
 346 533 394 522 426 507 c 1
 414 462 l 1
 375 474 333 480 294 480 c 0
 181 480 118 424 118 257 c 0
 118 103 170 38 275 38 c 0
EndSplineSet
EndChar

StartChar: ccedilla
Encoding: 355 231 128
Width: 465
GlyphClass: 2
Flags: MW
HStem: -210 41<228 255.5 228 271> -81 35 -14 52<282 282> -13 51<243 243> 480 53<237.5 313.5>
VStem: 52 66<180 340.5 180 349> 305 52<-138.5 -106.5>
AnchorPoint: "Anchor-0" 268 0 basechar 0
LayerCount: 2
Fore
SplineSet
424 19 m 1xde
 377 -2 333 -12 282 -14 c 1xee
 267 -46 l 1
 323 -51 357 -81 357 -123 c 0
 357 -180 303 -210 239 -210 c 0
 212 -210 190 -205 173 -194 c 1
 189 -160 l 1
 205 -167 220 -169 236 -169 c 0
 275 -169 305 -154 305 -123 c 0
 305 -90 271 -76 213 -81 c 1
 243 -13 l 1
 124 -6 52 70 52 251 c 0
 52 447 139 533 300 533 c 0
 346 533 394 522 426 507 c 1
 414 462 l 1
 375 474 333 480 294 480 c 0
 181 480 118 424 118 257 c 0
 118 103 170 38 275 38 c 0
 319 38 361 46 412 64 c 1
 424 19 l 1xde
EndSplineSet
EndChar

StartChar: cdotaccent
Encoding: 356 267 129
Width: 465
GlyphClass: 2
Flags: MW
HStem: -14 52<222.5 292> 480 53<237.5 313.5> 623.25 90.5
VStem: 52 66<180 340.5 180 349> 235 64<627 710 627 710>
AnchorPoint: "Anchor-0" 268 0 basechar 0
LayerCount: 2
Fore
SplineSet
235 627 m 1
 235 710 l 1
 251 715 283 715 299 710 c 1
 299 627 l 1
 283 622 251 622 235 627 c 1
262 -14 m 0
 131 -14 52 61 52 251 c 0
 52 447 139 533 300 533 c 0
 346 533 394 522 426 507 c 1
 414 462 l 1
 375 474 333 480 294 480 c 0
 181 480 118 424 118 257 c 0
 118 103 170 38 275 38 c 0
 319 38 361 46 412 64 c 1
 424 19 l 1
 371 -5 322 -14 262 -14 c 0
EndSplineSet
EndChar

StartChar: d
Encoding: 100 100 130
Width: 560
GlyphClass: 2
Flags: MW
HStem: -14 52<238 318 238 318> 480 53<237.5 308.5> 502 20G<403 403> 732 20G<403 403> 740 20G<467 467>
VStem: 52 66<177.5 336> 403 64<50 467 467 467 522 752 752 752>
LayerCount: 2
Fore
SplineSet
403 752 m 1xb6
 467 760 l 1
 467 13 l 1
 402 -6 352 -14 284 -14 c 0
 143 -14 52 50 52 247 c 0
 52 425 128 533 296 533 c 0xce
 337 533 371 529 403 522 c 1
 403 752 l 1xb6
118 257 m 0
 118 98 178 38 298 38 c 0
 338 38 367 41 403 50 c 1
 403 467 l 1
 360 477 327 480 290 480 c 0
 185 480 118 417 118 257 c 0
EndSplineSet
EndChar

StartChar: eth
Encoding: 357 240 131
Width: 562
GlyphClass: 2
Flags: MW
HStem: -14 52<223.5 319.5 223.5 325> 478 52<259 332> 740 20G<246 246>
VStem: 52 66<178.5 329 178.5 331.5> 432 64<329 352>
LayerCount: 2
Fore
SplineSet
398 641 m 1
 476 546 496 434 496 327 c 0
 496 58 385 -14 265 -14 c 0
 132 -14 52 78 52 243 c 0
 52 420 153 530 313 530 c 0
 354 530 385 521 408 505 c 1
 394 546 372 586 339 622 c 1
 226 586 l 1
 226 634 l 1
 302 658 l 1
 273 683 238 707 195 729 c 1
 246 760 l 1
 293 736 332 708 363 678 c 1
 469 712 l 1
 469 663 l 1
 398 641 l 1
432 329 m 0
 432 375 429 419 420 460 c 1
 387 472 351 478 313 478 c 0
 205 478 118 411 118 247 c 0
 118 110 177 38 270 38 c 0
 369 38 431 115 432 329 c 0
EndSplineSet
EndChar

StartChar: dcaron
Encoding: 358 271 132
Width: 615
GlyphClass: 2
Flags: MW
HStem: -14 52<238 318 238 318> 480 53<237.5 308.5> 502 20G<403 403> 732 20G<403 403> 737 20G 740 20G<467 467>
VStem: 52 66<177.5 336> 403 64<50 467 467 467 522 752 752 752> 574 61
LayerCount: 2
Fore
SplineSet
403 752 m 1xb3
 467 760 l 1
 467 13 l 1
 402 -6 352 -14 284 -14 c 0
 143 -14 52 50 52 247 c 0
 52 425 128 533 296 533 c 0xc780
 337 533 371 529 403 522 c 1
 403 752 l 1xb3
512 556 m 1
 557 632 571 684 574 742 c 1
 586 750 619 758 635 757 c 1xcb80
 639 676 610 613 559 556 c 1
 512 556 l 1
118 257 m 0
 118 98 178 38 298 38 c 0
 338 38 367 41 403 50 c 1
 403 467 l 1
 360 477 327 480 290 480 c 0
 185 480 118 417 118 257 c 0
EndSplineSet
EndChar

StartChar: dcroat
Encoding: 359 273 133
Width: 560
GlyphClass: 2
Flags: MW
HStem: -14 52<238 318 238 318> 480 53<237.5 308.5> 502 20G<403 403> 607 44<271 403 271 403 467 516> 732 20G<403 403> 740 20G<467 467>
VStem: 52 66<177.5 336> 403 64<50 467 467 467 522 607 13 607 651 752 752 752>
LayerCount: 2
Fore
SplineSet
516 651 m 1xd7
 516 607 l 1
 467 607 l 1
 467 13 l 1
 402 -6 352 -14 284 -14 c 0
 143 -14 52 50 52 247 c 0
 52 425 128 533 296 533 c 0xd7
 337 533 371 529 403 522 c 1
 403 607 l 1
 271 607 l 1
 271 651 l 1
 403 651 l 1
 403 752 l 1xbb
 467 760 l 1
 467 651 l 1
 516 651 l 1xd7
403 50 m 1
 403 467 l 1
 360 477 327 480 290 480 c 0
 185 480 118 417 118 257 c 0
 118 98 178 38 298 38 c 0
 338 38 367 41 403 50 c 1
EndSplineSet
EndChar

StartChar: e
Encoding: 101 101 134
Width: 510
GlyphClass: 2
Flags: MW
HStem: -14 54<224 297.5> 247 50<117 390 117 452 115 390> 480 53<221 309>
VStem: 52 63<247 247 247 352> 390 62<247 297>
AnchorPoint: "Anchor-0" 264 0 basechar 0
LayerCount: 2
Fore
SplineSet
274 40 m 0
 330 40 376 49 421 69 c 1
 436 22 l 1
 379 -5 325 -14 270 -14 c 0
 119 -14 52 67 52 252 c 0
 52 452 138 533 269 533 c 0
 385 533 442 466 450 334 c 0
 452 301 452 279 452 247 c 1
 115 247 l 1
 119 90 174 40 274 40 c 0
266 480 m 0
 176 480 123 430 117 297 c 1
 390 297 l 1
 387 437 352 480 266 480 c 0
EndSplineSet
EndChar

StartChar: eacute
Encoding: 360 233 135
Width: 510
GlyphClass: 2
Flags: MW
HStem: -14 54<224 297.5> 247 50<117 390 117 452 115 390> 480 53<221 309> 604 156<223 379 223 379>
VStem: 52 63<247 247 247 352> 390 62<247 297>
AnchorPoint: "Anchor-0" 264 0 basechar 0
LayerCount: 2
Fore
SplineSet
379 760 m 1
 264 604 l 1
 223 604 l 1
 301 760 l 1
 379 760 l 1
274 40 m 0
 330 40 376 49 421 69 c 1
 436 22 l 1
 379 -5 325 -14 270 -14 c 0
 119 -14 52 67 52 252 c 0
 52 452 138 533 269 533 c 0
 385 533 442 466 450 334 c 0
 452 301 452 279 452 247 c 1
 115 247 l 1
 119 90 174 40 274 40 c 0
266 480 m 0
 176 480 123 430 117 297 c 1
 390 297 l 1
 387 437 352 480 266 480 c 0
EndSplineSet
EndChar

StartChar: ecaron
Encoding: 361 283 136
Width: 510
GlyphClass: 2
Flags: MW
HStem: -14 54<224 297.5> 247 50<117 390 117 452 115 390> 480 53<221 309> 604 47<257 257 257 283 226 257> 604 156<132 283 132 226>
VStem: 52 63<247 247 247 352> 390 62<247 297>
AnchorPoint: "Anchor-0" 264 0 basechar 0
LayerCount: 2
Fore
SplineSet
283 604 m 1xee
 226 604 l 1
 132 760 l 1
 183 760 l 1xee
 257 651 l 1xf6
 331 760 l 1
 377 760 l 1
 283 604 l 1xee
274 40 m 0
 330 40 376 49 421 69 c 1
 436 22 l 1
 379 -5 325 -14 270 -14 c 0
 119 -14 52 67 52 252 c 0
 52 452 138 533 269 533 c 0
 385 533 442 466 450 334 c 0
 452 301 452 279 452 247 c 1
 115 247 l 1
 119 90 174 40 274 40 c 0
266 480 m 0
 176 480 123 430 117 297 c 1
 390 297 l 1
 387 437 352 480 266 480 c 0
EndSplineSet
EndChar

StartChar: ecircumflex
Encoding: 362 234 137
Width: 510
GlyphClass: 2
Flags: MW
HStem: -14 54<224 297.5> 247 50<117 390 117 452 115 390> 480 53<221 309> 604 156<130 281 130 281 224 324 224 375> 714 46<251 251>
VStem: 52 63<247 247 247 352> 390 62<247 297>
AnchorPoint: "Anchor-0" 264 0 basechar 0
LayerCount: 2
Fore
SplineSet
251 714 m 1xee
 177 604 l 1
 130 604 l 1
 224 760 l 1
 281 760 l 1
 375 604 l 1
 324 604 l 1xf6
 251 714 l 1xee
274 40 m 0
 330 40 376 49 421 69 c 1
 436 22 l 1
 379 -5 325 -14 270 -14 c 0
 119 -14 52 67 52 252 c 0
 52 452 138 533 269 533 c 0
 385 533 442 466 450 334 c 0
 452 301 452 279 452 247 c 1
 115 247 l 1
 119 90 174 40 274 40 c 0
266 480 m 0
 176 480 123 430 117 297 c 1
 390 297 l 1
 387 437 352 480 266 480 c 0
EndSplineSet
EndChar

StartChar: edieresis
Encoding: 363 235 138
Width: 510
GlyphClass: 2
Flags: MW
HStem: -14 54<224 297.5> 247 50<117 390 117 452 115 390> 480 53<221 309> 623.25 90.5
VStem: 52 63<247 247 247 352> 156 64<627 710> 290 64<627 710> 390 62<247 297>
AnchorPoint: "Anchor-0" 264 0 basechar 0
LayerCount: 2
Fore
SplineSet
220 627 m 1
 204 622 172 622 156 627 c 1
 156 710 l 1
 172 715 204 715 220 710 c 1
 220 627 l 1
354 627 m 1
 337 622 306 622 290 627 c 1
 290 710 l 1
 306 715 337 715 354 710 c 1
 354 627 l 1
274 40 m 0
 330 40 376 49 421 69 c 1
 436 22 l 1
 379 -5 325 -14 270 -14 c 0
 119 -14 52 67 52 252 c 0
 52 452 138 533 269 533 c 0
 385 533 442 466 450 334 c 0
 452 301 452 279 452 247 c 1
 115 247 l 1
 119 90 174 40 274 40 c 0
266 480 m 0
 176 480 123 430 117 297 c 1
 390 297 l 1
 387 437 352 480 266 480 c 0
EndSplineSet
EndChar

StartChar: edotaccent
Encoding: 364 279 139
Width: 510
GlyphClass: 2
Flags: MW
HStem: -14 54<224 297.5> 247 50<117 390 117 452 115 390> 480 53<221 309> 623.25 90.5
VStem: 52 63<247 247 247 352> 223 64<627 710> 390 62<247 297>
AnchorPoint: "Anchor-0" 264 0 basechar 0
LayerCount: 2
Fore
SplineSet
287 627 m 1
 271 622 239 622 223 627 c 1
 223 710 l 1
 239 715 271 715 287 710 c 1
 287 627 l 1
274 40 m 0
 330 40 376 49 421 69 c 1
 436 22 l 1
 379 -5 325 -14 270 -14 c 0
 119 -14 52 67 52 252 c 0
 52 452 138 533 269 533 c 0
 385 533 442 466 450 334 c 0
 452 301 452 279 452 247 c 1
 115 247 l 1
 119 90 174 40 274 40 c 0
266 480 m 0
 176 480 123 430 117 297 c 1
 390 297 l 1
 387 437 352 480 266 480 c 0
EndSplineSet
EndChar

StartChar: egrave
Encoding: 365 232 140
Width: 510
GlyphClass: 2
Flags: MW
HStem: -14 54<224 297.5> 247 50<117 390 117 452 115 390> 480 53<221 309> 604 156<134 290 134 249>
VStem: 52 63<247 247 247 352> 390 62<247 297>
AnchorPoint: "Anchor-0" 264 0 basechar 0
LayerCount: 2
Fore
SplineSet
290 604 m 1
 249 604 l 1
 134 760 l 1
 212 760 l 1
 290 604 l 1
274 40 m 0
 330 40 376 49 421 69 c 1
 436 22 l 1
 379 -5 325 -14 270 -14 c 0
 119 -14 52 67 52 252 c 0
 52 452 138 533 269 533 c 0
 385 533 442 466 450 334 c 0
 452 301 452 279 452 247 c 1
 115 247 l 1
 119 90 174 40 274 40 c 0
266 480 m 0
 176 480 123 430 117 297 c 1
 390 297 l 1
 387 437 352 480 266 480 c 0
EndSplineSet
EndChar

StartChar: emacron
Encoding: 366 275 141
Width: 510
GlyphClass: 2
Flags: MW
HStem: -14 54<224 297.5> 247 50<117 390 117 452 115 390> 480 53<221 309> 652 44<157 352 157 352>
VStem: 52 63<247 247 247 352> 157 195<652 696 652 696> 390 62<247 297>
AnchorPoint: "Anchor-0" 264 0 basechar 0
LayerCount: 2
Fore
SplineSet
352 696 m 1
 352 652 l 1
 157 652 l 1
 157 696 l 1
 352 696 l 1
274 40 m 0
 330 40 376 49 421 69 c 1
 436 22 l 1
 379 -5 325 -14 270 -14 c 0
 119 -14 52 67 52 252 c 0
 52 452 138 533 269 533 c 0
 385 533 442 466 450 334 c 0
 452 301 452 279 452 247 c 1
 115 247 l 1
 119 90 174 40 274 40 c 0
266 480 m 0
 176 480 123 430 117 297 c 1
 390 297 l 1
 387 437 352 480 266 480 c 0
EndSplineSet
EndChar

StartChar: eogonek
Encoding: 367 281 142
Width: 515
GlyphClass: 2
Flags: MW
HStem: -216 42<346 354.5> -14 54<224 278.5> 247 50<117 390 117 452 115 390> 480 53<221 309>
VStem: 52 63<247 247 247 352> 247 60<-132.5 -102> 390 62<247 297>
AnchorPoint: "Anchor-0" 264 0 basechar 0
LayerCount: 2
Fore
SplineSet
441 22 m 1
 339 -25 307 -65 307 -113 c 0
 307 -152 328 -174 364 -174 c 0
 380 -174 398 -169 415 -161 c 1
 412 -195 l 1
 388 -210 367 -216 342 -216 c 0
 289 -216 247 -189 247 -124 c 0
 247 -80 273 -38 322 -11 c 1
 305 -13 287 -14 270 -14 c 0
 119 -14 52 67 52 252 c 0
 52 452 138 533 269 533 c 0
 385 533 442 466 450 334 c 0
 452 301 452 279 452 247 c 1
 115 247 l 1
 119 90 174 40 274 40 c 0
 330 40 376 49 421 69 c 1
 436 22 l 2
 435 22 434 21 433 21 c 2
 441 22 l 1
266 480 m 0
 176 480 123 430 117 297 c 1
 390 297 l 1
 387 437 352 480 266 480 c 0
EndSplineSet
EndChar

StartChar: f
Encoding: 102 102 143
Width: 354
GlyphClass: 2
Flags: MW
HStem: 0 21G<129 193 129 129> 469 49<50 129 50 129 193 313> 712 52<263 301.5 242.5 305.5>
VStem: 129 64<0 469 0 469 518 532 532 542.5>
LayerCount: 2
Fore
SplineSet
296 712 m 0
 230 712 193 674 193 585 c 2
 193 518 l 1
 321 518 l 1
 313 469 l 1
 193 469 l 1
 193 0 l 1
 129 0 l 1
 129 469 l 1
 50 469 l 1
 50 518 l 1
 129 518 l 1
 129 532 l 2
 129 553 129 574 130 605 c 0
 134 700 199 764 286 764 c 0
 317 764 348 754 365 738 c 1
 347 701 l 1
 331 708 315 712 296 712 c 0
EndSplineSet
EndChar

StartChar: g
Encoding: 103 103 144
Width: 537
GlyphClass: 2
Flags: MW
HStem: -220 52<202.5 299 202.5 313.5> 68 45<216 255.5 189 283> 191 50<224.5 264> 469 50<410 483 410 410> 481 50<226.5 275 208.5 293.5>
VStem: 36 63<-92 -13 -92 -1.5> 67 62<320.5 399.5 320.5 411.5> 291 57<155.5 157.5> 384 63<334 384 334 400.5> 405 66<-79 -23>
AnchorPoint: "Anchor-0" 269 0 basechar 0
LayerCount: 2
Fore
SplineSet
491 519 m 1xf440
 483 469 l 1
 410 469 l 1
 433 441 447 406 447 362 c 0xf280
 447 306 419 257 374 227 c 1
 356 206 348 188 348 167 c 0
 348 144 360 124 385 105 c 0
 435 67 471 22 471 -44 c 0
 471 -148 384 -220 243 -220 c 0
 123 -220 36 -170 36 -60 c 0xf540
 36 57 135 113 243 113 c 0
 268 113 289 110 309 103 c 1
 298 116 291 131 291 150 c 0
 291 165 295 180 306 197 c 1
 290 193 273 191 255 191 c 0
 149 191 67 257 67 359 c 0
 67 464 155 531 262 531 c 0xeb40
 288 531 314 527 338 519 c 1
 491 519 l 1xf440
257 241 m 0
 323 241 384 280 384 362 c 0
 384 439 328 481 259 481 c 0xea80
 194 481 129 440 129 359 c 0
 129 282 192 241 257 241 c 0
405 -45 m 0xf440
 405 -1 387 33 358 55 c 1
 329 64 297 68 269 68 c 0
 163 68 99 27 99 -53 c 0
 99 -131 159 -168 246 -168 c 0
 352 -168 405 -113 405 -45 c 0xf440
EndSplineSet
EndChar

StartChar: gbreve
Encoding: 368 287 145
Width: 537
GlyphClass: 2
Flags: MW
HStem: -220 52<202.5 299 202.5 313.5> 68 45<216 255.5 189 283> 191 50<224.5 264> 469 50<410 483 410 410> 481 50<226.5 275 208.5 293.5> 588 52<242 292 242 307> 734 20G<149 193 193 193 342 385 385 385>
VStem: 36 63<-92 -13 -92 -1.5> 67 62<320.5 399.5 320.5 411.5> 149 44<754 754> 291 57<155.5 157.5> 342 43<754 754> 384 63<334 384 334 400.5> 405 66<-79 -23>
AnchorPoint: "Anchor-0" 269 0 basechar 0
LayerCount: 2
Fore
SplineSet
267 588 m 0xf744
 186 588 140 642 149 754 c 1
 193 754 l 1
 190 677 217 640 267 640 c 0
 317 640 344 677 342 754 c 1
 385 754 l 1xf754
 394 642 347 588 267 588 c 0xf744
491 519 m 1
 483 469 l 1
 410 469 l 1
 433 441 447 406 447 362 c 0xf6c8
 447 306 419 257 374 227 c 1
 356 206 348 188 348 167 c 0
 348 144 360 124 385 105 c 0
 435 67 471 22 471 -44 c 0
 471 -148 384 -220 243 -220 c 0
 123 -220 36 -170 36 -60 c 0xf764
 36 57 135 113 243 113 c 0
 268 113 289 110 309 103 c 1
 298 116 291 131 291 150 c 0
 291 165 295 180 306 197 c 1
 290 193 273 191 255 191 c 0
 149 191 67 257 67 359 c 0
 67 464 155 531 262 531 c 0xeee4
 288 531 314 527 338 519 c 1
 491 519 l 1
257 241 m 0
 323 241 384 280 384 362 c 0
 384 439 328 481 259 481 c 0xeec8
 194 481 129 440 129 359 c 0
 129 282 192 241 257 241 c 0
405 -45 m 0xf744
 405 -1 387 33 358 55 c 1
 329 64 297 68 269 68 c 0
 163 68 99 27 99 -53 c 0
 99 -131 159 -168 246 -168 c 0
 352 -168 405 -113 405 -45 c 0xf744
EndSplineSet
EndChar

StartChar: gcommaaccent
Encoding: 369 291 146
Width: 537
GlyphClass: 2
Flags: MW
HStem: -220 52<202.5 299 202.5 313.5> 68 45<216 255.5 189 283> 191 50<224.5 264> 469 50<410 483 410 410> 481 50<226.5 275 208.5 293.5>
VStem: 36 63<-92 -13 -92 -1.5> 67 62<320.5 399.5 320.5 411.5> 225 62 291 57<155.5 157.5> 384 63<334 384 334 400.5> 405 66<-79 -23>
AnchorPoint: "Anchor-0" 269 0 basechar 0
LayerCount: 2
Fore
SplineSet
287 613 m 1xf520
 274 605 242 597 225 598 c 1
 222 680 249 742 297 799 c 1
 344 799 l 1
 303 723 289 672 287 613 c 1xf520
491 519 m 1
 483 469 l 1
 410 469 l 1
 433 441 447 406 447 362 c 0xf340
 447 306 419 257 374 227 c 1
 356 206 348 188 348 167 c 0
 348 144 360 124 385 105 c 0
 435 67 471 22 471 -44 c 0
 471 -148 384 -220 243 -220 c 0
 123 -220 36 -170 36 -60 c 0xf4a0
 36 57 135 113 243 113 c 0
 268 113 289 110 309 103 c 1
 298 116 291 131 291 150 c 0
 291 165 295 180 306 197 c 1
 290 193 273 191 255 191 c 0
 149 191 67 257 67 359 c 0
 67 464 155 531 262 531 c 0xeaa0
 288 531 314 527 338 519 c 1
 491 519 l 1
257 241 m 0
 323 241 384 280 384 362 c 0
 384 439 328 481 259 481 c 0xeb40
 194 481 129 440 129 359 c 0
 129 282 192 241 257 241 c 0
405 -45 m 0xf520
 405 -1 387 33 358 55 c 1
 329 64 297 68 269 68 c 0
 163 68 99 27 99 -53 c 0
 99 -131 159 -168 246 -168 c 0
 352 -168 405 -113 405 -45 c 0xf520
EndSplineSet
EndChar

StartChar: gdotaccent
Encoding: 370 289 147
Width: 537
GlyphClass: 2
Flags: MW
HStem: -220 52<202.5 299 202.5 313.5> 68 45<216 255.5 189 283> 191 50<224.5 264> 469 50<410 483 410 410> 481 50<226.5 275 208.5 293.5> 623.25 90.5
VStem: 36 63<-92 -13 -92 -1.5> 67 62<320.5 399.5 320.5 411.5> 237 64<627 710> 291 57<155.5 157.5> 384 63<334 384 334 400.5> 405 66<-79 -23>
AnchorPoint: "Anchor-0" 269 0 basechar 0
LayerCount: 2
Fore
SplineSet
301 627 m 1xf690
 285 622 253 622 237 627 c 1
 237 710 l 1
 253 715 285 715 301 710 c 1
 301 627 l 1xf690
491 519 m 1
 483 469 l 1
 410 469 l 1
 433 441 447 406 447 362 c 0xf5a0
 447 306 419 257 374 227 c 1
 356 206 348 188 348 167 c 0
 348 144 360 124 385 105 c 0
 435 67 471 22 471 -44 c 0
 471 -148 384 -220 243 -220 c 0
 123 -220 36 -170 36 -60 c 0
 36 57 135 113 243 113 c 0
 268 113 289 110 309 103 c 1
 298 116 291 131 291 150 c 0
 291 165 295 180 306 197 c 1xf650
 290 193 273 191 255 191 c 0
 149 191 67 257 67 359 c 0
 67 464 155 531 262 531 c 0xed90
 288 531 314 527 338 519 c 1
 491 519 l 1
257 241 m 0
 323 241 384 280 384 362 c 0
 384 439 328 481 259 481 c 0xeda0
 194 481 129 440 129 359 c 0
 129 282 192 241 257 241 c 0
405 -45 m 0xf690
 405 -1 387 33 358 55 c 1
 329 64 297 68 269 68 c 0
 163 68 99 27 99 -53 c 0
 99 -131 159 -168 246 -168 c 0
 352 -168 405 -113 405 -45 c 0xf690
EndSplineSet
EndChar

StartChar: h
Encoding: 104 104 148
Width: 566
GlyphClass: 2
Flags: MW
HStem: 0 21G<93 157 93 93 424 488 424 424> 480 53<287.5 338.5> 732 20G<93 93> 740 20G<157 157>
VStem: 93 64<0 428 0 480 480 752 752 752> 424 64<0 314 0 337 0 389>
LayerCount: 2
Fore
SplineSet
486 393 m 0xdc
 488 370 488 348 488 314 c 2
 488 0 l 1
 424 0 l 1
 424 337 l 2
 424 441 384 480 293 480 c 0
 244 480 201 463 157 428 c 1
 157 0 l 1
 93 0 l 1
 93 752 l 1xec
 157 760 l 1
 157 480 l 1
 202 513 258 533 317 533 c 0
 414 533 476 496 486 393 c 0xdc
EndSplineSet
EndChar

StartChar: hbar
Encoding: 371 295 149
Width: 566
GlyphClass: 2
Flags: MW
HStem: 0 21G<93 157 93 93 424 488 424 424> 480 53<287.5 338.5> 607 44<45 93 45 93 157 290> 732 20G<93 93> 740 20G<157 157>
VStem: 93 64<0 428 0 480 480 607 651 752 752 752> 424 64<0 314 0 337 0 389>
LayerCount: 2
Fore
SplineSet
486 393 m 0xee
 488 370 488 348 488 314 c 2
 488 0 l 1
 424 0 l 1
 424 337 l 2
 424 441 384 480 293 480 c 0
 244 480 201 463 157 428 c 1
 157 0 l 1
 93 0 l 1
 93 607 l 1
 45 607 l 1
 45 651 l 1
 93 651 l 1
 93 752 l 1xf6
 157 760 l 1
 157 651 l 1
 290 651 l 1
 290 607 l 1
 157 607 l 1
 157 480 l 1
 202 513 258 533 317 533 c 0
 414 533 476 496 486 393 c 0xee
EndSplineSet
EndChar

StartChar: i
Encoding: 105 105 150
Width: 249
GlyphClass: 2
Flags: MW
HStem: 1.15514 119
LayerCount: 2
Fore
SplineSet
92 627 m 1
 92 710 l 1
 108 715 140 715 156 710 c 1
 156 627 l 1
 140 622 108 622 92 627 c 1
93 0 m 5
 93 517 l 5
 157 526 l 5
 157 0 l 5
 93 0 l 5
EndSplineSet
EndChar

StartChar: dotlessi
Encoding: 372 305 151
Width: 249
GlyphClass: 2
Flags: MW
HStem: 0 21G<93 93 93 157> 506 20G<157 157>
VStem: 93 64<0 517 517 517>
LayerCount: 2
Fore
SplineSet
93 0 m 1
 93 517 l 1
 157 526 l 1
 157 0 l 1
 93 0 l 1
EndSplineSet
EndChar

StartChar: iacute
Encoding: 373 237 152
Width: 249
GlyphClass: 2
Flags: MW
HStem: 0 21G<93 93 93 157> 506 20G<157 157> 604 156<93 249 93 249>
VStem: 93 64<0 517 517 517>
LayerCount: 2
Fore
SplineSet
93 604 m 1
 171 760 l 1
 249 760 l 1
 134 604 l 1
 93 604 l 1
93 0 m 1
 93 517 l 1
 157 526 l 1
 157 0 l 1
 93 0 l 1
EndSplineSet
EndChar

StartChar: icircumflex
Encoding: 374 238 153
Width: 249
GlyphClass: 2
Flags: MW
HStem: 0 21G<93 93 93 157> 506 20G<157 157> 604 156<0 151 0 151 94 245 94 194> 714 46<121 121>
VStem: 93 64<0 517 517 517>
LayerCount: 2
Fore
SplineSet
151 760 m 1xe8
 245 604 l 1
 194 604 l 1xe8
 121 714 l 1xd8
 47 604 l 1
 0 604 l 1
 94 760 l 1
 151 760 l 1xe8
93 0 m 1
 93 517 l 1
 157 526 l 1
 157 0 l 1
 93 0 l 1
EndSplineSet
EndChar

StartChar: idieresis
Encoding: 375 239 154
Width: 249
GlyphClass: 2
Flags: MW
HStem: 0 21G<93 93 93 157> 506 20G<157 157> 623.25 90.5
VStem: 26 64<627 710 627 710> 93 64<0 517 517 517> 160 64<627 710 627 710>
LayerCount: 2
Fore
SplineSet
26 627 m 1
 26 710 l 1
 42 715 74 715 90 710 c 1
 90 627 l 1
 74 622 42 622 26 627 c 1
160 627 m 1
 160 710 l 1
 176 715 207 715 224 710 c 1
 224 627 l 1
 207 622 176 622 160 627 c 1
93 0 m 1xe8
 93 517 l 1
 157 526 l 1
 157 0 l 1
 93 0 l 1xe8
EndSplineSet
EndChar

StartChar: igrave
Encoding: 376 236 155
Width: 249
GlyphClass: 2
Flags: MW
HStem: 0 21G<93 93 93 157> 506 20G<157 157> 604 156<4 119 4 160>
VStem: 93 64<0 517 517 517>
LayerCount: 2
Fore
SplineSet
119 604 m 1
 4 760 l 1
 82 760 l 1
 160 604 l 1
 119 604 l 1
93 0 m 1
 93 517 l 1
 157 526 l 1
 157 0 l 1
 93 0 l 1
EndSplineSet
EndChar

StartChar: ij
Encoding: 377 307 156
Width: 514
GlyphClass: 2
Flags: MW
HStem: 1.15514 119
LayerCount: 2
Fore
SplineSet
92 627 m 1
 92 710 l 1
 108 715 140 715 156 710 c 1
 156 627 l 1
 140 622 108 622 92 627 c 1
356 627 m 1
 356 710 l 1
 372 715 404 715 420 710 c 1
 420 627 l 1
 404 622 372 622 356 627 c 1
289 -220 m 1
 263 -169 l 1
 338 -151 357 -105 357 -1 c 2
 357 521 l 1
 421 529 l 1
 421 48 l 2
 421 9 421 -29 420 -54 c 0
 415 -137 380 -194 289 -220 c 1
93 0 m 1
 93 517 l 1
 157 526 l 1
 157 0 l 1
 93 0 l 1
EndSplineSet
EndChar

StartChar: imacron
Encoding: 378 299 157
Width: 249
GlyphClass: 2
Flags: MW
HStem: 0 21G<93 93 93 157> 506 20G<157 157> 652 44<27 222 27 222>
VStem: 93 64<0 517 517 517>
LayerCount: 2
Fore
SplineSet
27 652 m 1
 27 696 l 1
 222 696 l 1
 222 652 l 1
 27 652 l 1
93 0 m 1
 93 517 l 1
 157 526 l 1
 157 0 l 1
 93 0 l 1
EndSplineSet
EndChar

StartChar: iogonek
Encoding: 379 303 158
Width: 249
GlyphClass: 2
Flags: MW
HStem: -220 43<96.5 105> 0 21G<157 157> 506 20G<157 157> 623.25 90.5
VStem: -3 60<-136.5 -98.5> 93 64<8 517 517 517 627 710>
LayerCount: 2
Fore
SplineSet
157 627 m 1
 141 622 109 622 93 627 c 1
 93 710 l 1
 109 715 141 715 157 710 c 1
 157 627 l 1
114 -177 m 0
 130 -177 148 -173 166 -164 c 1
 162 -199 l 1
 138 -213 117 -220 93 -220 c 0
 39 -220 -3 -190 -3 -126 c 0
 -3 -71 42 -13 93 8 c 1
 93 517 l 1
 157 526 l 1
 157 0 l 1
 89 -25 57 -67 57 -117 c 0
 57 -156 79 -177 114 -177 c 0
EndSplineSet
EndChar

StartChar: j
Encoding: 106 106 159
Width: 265
GlyphClass: 2
Flags: MW
HStem: 1.15514 119
LayerCount: 2
Fore
SplineSet
107 627 m 1
 107 710 l 1
 123 715 155 715 171 710 c 1
 171 627 l 1
 155 622 123 622 107 627 c 1
40 -220 m 1
 14 -169 l 1
 89 -151 108 -105 108 -1 c 2
 108 521 l 1
 172 529 l 1
 172 48 l 2
 172 9 172 -29 171 -54 c 0
 166 -137 131 -194 40 -220 c 1
EndSplineSet
EndChar

StartChar: uni0237
Encoding: 380 567 160
Width: 265
GlyphClass: 2
Flags: MW
HStem: -220 21G<40 40> 501 20G<108 108> 509 20G<172 172>
VStem: 108 64<28.5 48 48 521 521 521>
LayerCount: 2
Fore
SplineSet
40 -220 m 1xb0
 14 -169 l 1
 89 -151 108 -105 108 -1 c 2
 108 521 l 1xd0
 172 529 l 1
 172 48 l 2
 172 9 172 -29 171 -54 c 0
 166 -137 131 -194 40 -220 c 1xb0
EndSplineSet
EndChar

StartChar: k
Encoding: 107 107 161
Width: 531
GlyphClass: 2
Flags: MW
HStem: 0 21G<93 93 93 157 414 414 414 502> 499 20G<490 490> 509 20G<420 420> 732 20G<93 93> 740 20G<157 157>
VStem: 93 64<0 752 752 752>
AnchorPoint: "Anchor-0" 262 0 basechar 0
LayerCount: 2
Fore
SplineSet
93 0 m 1xac
 93 752 l 1xd4
 157 760 l 1
 157 0 l 1
 93 0 l 1xac
245 278 m 1
 502 0 l 1
 414 0 l 1
 173 270 l 1
 420 529 l 1xac
 490 519 l 1
 245 278 l 1
EndSplineSet
EndChar

StartChar: kcommaaccent
Encoding: 381 311 162
Width: 531
GlyphClass: 2
Flags: MW
HStem: 0 21G<93 93 93 157 414 414 414 502> 499 20G<490 490> 509 20G<420 420> 732 20G<93 93> 740 20G<157 157>
VStem: 93 64<0 752 752 752> 231 62
AnchorPoint: "Anchor-0" 262 0 basechar 0
LayerCount: 2
Fore
SplineSet
93 0 m 1xac
 93 752 l 1xd4
 157 760 l 1
 157 0 l 1
 93 0 l 1xac
245 278 m 1
 502 0 l 1
 414 0 l 1
 173 270 l 1
 420 529 l 1xae
 490 519 l 1
 245 278 l 1
231 -66 m 1
 243 -58 276 -50 293 -51 c 1
 296 -132 267 -195 216 -252 c 1
 169 -252 l 1
 214 -176 229 -124 231 -66 c 1
EndSplineSet
EndChar

StartChar: l
Encoding: 108 108 163
Width: 249
GlyphClass: 2
Flags: MW
HStem: 0 21G<93 93 93 157> 732 20G<93 93> 740 20G<157 157>
VStem: 93 64<0 752 752 752>
AnchorPoint: "Anchor-0" 125 0 basechar 0
LayerCount: 2
Fore
SplineSet
93 0 m 1xb0
 93 752 l 1xd0
 157 760 l 1
 157 0 l 1
 93 0 l 1xb0
EndSplineSet
EndChar

StartChar: lacute
Encoding: 382 314 164
Width: 249
GlyphClass: 2
Flags: MW
HStem: 0 21G<93 93 93 157> 732 20G<93 93> 740 20G<157 157> 824 156<93 249 93 249>
VStem: 93 64<0 752 752 752>
AnchorPoint: "Anchor-0" 125 0 basechar 0
LayerCount: 2
Fore
SplineSet
93 824 m 1xb8
 171 980 l 1
 249 980 l 1
 134 824 l 1
 93 824 l 1xb8
93 0 m 1
 93 752 l 1xd8
 157 760 l 1
 157 0 l 1
 93 0 l 1
EndSplineSet
EndChar

StartChar: lcaron
Encoding: 383 318 165
Width: 246
GlyphClass: 2
Flags: MW
HStem: 0 21G<93 93 93 157> 732 20G<93 93> 737 20G 740 20G<157 157>
VStem: 93 64<0 752 752 752> 258 62
AnchorPoint: "Anchor-0" 125 0 basechar 0
LayerCount: 2
Fore
SplineSet
93 0 m 1x98
 93 752 l 1xcc
 157 760 l 1
 157 0 l 1
 93 0 l 1x98
197 556 m 1
 241 632 256 684 258 742 c 1
 271 750 304 758 320 757 c 1xac
 324 676 295 613 244 556 c 1
 197 556 l 1
EndSplineSet
EndChar

StartChar: lcommaaccent
Encoding: 384 316 166
Width: 249
GlyphClass: 2
Flags: MW
HStem: 0 21G<93 93 93 157> 732 20G<93 93> 740 20G<157 157>
VStem: 93 64<0 752 752 752>
AnchorPoint: "Anchor-0" 125 0 basechar 0
LayerCount: 2
Fore
SplineSet
93 0 m 1xb0
 93 752 l 1xd0
 157 760 l 1
 157 0 l 1
 93 0 l 1xb0
32 -252 m 1
 77 -176 92 -124 94 -66 c 1
 106 -58 139 -50 156 -51 c 1
 159 -132 130 -195 79 -252 c 1
 32 -252 l 1
EndSplineSet
EndChar

StartChar: ldot
Encoding: 385 320 167
Width: 398
GlyphClass: 2
Flags: MW
HStem: 0 21G<93 93 93 157> 299 115<243 312 243 312> 732 20G<93 93> 740 20G<157 157>
VStem: 93 64<0 752 752 752> 243 69<299 414 299 414>
AnchorPoint: "Anchor-0" 125 0 basechar 0
LayerCount: 2
Fore
SplineSet
93 0 m 1xdc
 93 752 l 1xec
 157 760 l 1
 157 0 l 1
 93 0 l 1xdc
243 299 m 1
 243 414 l 1
 260 419 295 419 312 414 c 1
 312 299 l 1
 295 295 260 295 243 299 c 1
EndSplineSet
Ligature2: "Ligature Substitution lookup 2 subtable" l periodcentered
EndChar

StartChar: lslash
Encoding: 386 322 168
Width: 249
GlyphClass: 2
Flags: MW
HStem: 0 21G<93 157 93 93> 732 20G<93 93> 740 20G<157 157>
VStem: 93 64<0 322 322 322 0 422 422 752 752 752>
AnchorPoint: "Anchor-0" 125 0 basechar 0
LayerCount: 2
Fore
SplineSet
219 465 m 1xb0
 219 410 l 1
 157 367 l 1
 157 0 l 1
 93 0 l 1
 93 322 l 1
 30 279 l 1
 30 334 l 1
 93 377 l 1
 93 752 l 1xd0
 157 760 l 1
 157 422 l 1
 219 465 l 1xb0
EndSplineSet
EndChar

StartChar: m
Encoding: 109 109 169
Width: 862
GlyphClass: 2
Flags: MW
HStem: 0 21G<93 157 93 93 406 470 406 406 720 784 720 720> 480 53<279 325 590 640> 506 20G<157 157>
VStem: 93 64<0 441 0 488 488 517 517 517> 406 64<0 314 0 337 0 389> 720 64<0 314 0 337 0 389>
LayerCount: 2
Fore
SplineSet
782 393 m 0xdc
 784 370 784 348 784 314 c 2
 784 0 l 1
 720 0 l 1
 720 337 l 2
 720 441 680 480 600 480 c 0
 548 480 508 467 461 432 c 1
 465 420 467 407 468 393 c 0
 470 370 470 348 470 314 c 2
 470 0 l 1
 406 0 l 1
 406 337 l 2
 406 441 367 480 283 480 c 0
 237 480 197 469 157 441 c 1xdc
 157 0 l 1
 93 0 l 1
 93 517 l 1
 157 526 l 1xbc
 157 488 l 1
 201 517 251 533 307 533 c 0
 371 533 419 515 446 471 c 1
 499 512 556 533 624 533 c 0
 714 533 772 496 782 393 c 0xdc
EndSplineSet
EndChar

StartChar: n
Encoding: 110 110 170
Width: 566
GlyphClass: 2
Flags: MW
HStem: 0 21G<93 157 93 93 424 488 424 424> 480 53<287.5 338.5> 506 20G<157 157>
VStem: 93 64<0 428 0 480 480 517 517 517> 424 64<0 314 0 337 0 389>
AnchorPoint: "Anchor-0" 285 0 basechar 0
LayerCount: 2
Fore
SplineSet
486 393 m 4xd8
 488 370 488 348 488 314 c 6
 488 0 l 5
 424 0 l 5
 424 337 l 6
 424 441 384 480 293 480 c 4
 244 480 201 463 157 428 c 5xd8
 157 0 l 5
 93 0 l 5
 93 517 l 5
 157 526 l 5xb8
 157 480 l 5
 202 513 258 533 317 533 c 4
 414 533 477 496 486 393 c 4xd8
EndSplineSet
EndChar

StartChar: nacute
Encoding: 387 324 171
Width: 566
GlyphClass: 2
Flags: MW
HStem: 0 21G<93 157 93 93 424 488 424 424> 480 53<287.5 338.5> 506 20G<157 157> 604 156<254 410 254 410>
VStem: 93 64<0 428 0 480 480 517 517 517> 424 64<0 314 0 337 0 389>
AnchorPoint: "Anchor-0" 285 0 basechar 0
LayerCount: 2
Fore
SplineSet
410 760 m 1xdc
 295 604 l 1
 254 604 l 1
 332 760 l 1
 410 760 l 1xdc
486 393 m 0
 488 370 488 348 488 314 c 2
 488 0 l 1
 424 0 l 1
 424 337 l 2
 424 441 384 480 293 480 c 0
 244 480 201 463 157 428 c 1xdc
 157 0 l 1
 93 0 l 1
 93 517 l 1
 157 526 l 1xbc
 157 480 l 1
 202 513 258 533 317 533 c 0
 414 533 477 496 486 393 c 0
EndSplineSet
EndChar

StartChar: ncaron
Encoding: 388 328 172
Width: 566
GlyphClass: 2
Flags: MW
HStem: 0 21G<93 157 93 93 424 488 424 424> 480 53<287.5 338.5> 506 20G<157 157> 604 47<288 288 288 314 257 288> 604 156<163 314 163 257>
VStem: 93 64<0 428 0 480 480 517 517 517> 424 64<0 314 0 337 0 389>
AnchorPoint: "Anchor-0" 285 0 basechar 0
LayerCount: 2
Fore
SplineSet
314 604 m 1xce
 257 604 l 1
 163 760 l 1
 214 760 l 1xce
 288 651 l 1xd6
 362 760 l 1
 408 760 l 1
 314 604 l 1xce
486 393 m 0
 488 370 488 348 488 314 c 2
 488 0 l 1
 424 0 l 1
 424 337 l 2
 424 441 384 480 293 480 c 0
 244 480 201 463 157 428 c 1xce
 157 0 l 1
 93 0 l 1
 93 517 l 1
 157 526 l 1xae
 157 480 l 1
 202 513 258 533 317 533 c 0
 414 533 477 496 486 393 c 0
EndSplineSet
EndChar

StartChar: ncommaaccent
Encoding: 389 326 173
Width: 566
GlyphClass: 2
Flags: MW
HStem: 0 21G<93 157 93 93 424 488 424 424> 480 53<287.5 338.5> 506 20G<157 157>
VStem: 93 64<0 428 0 480 480 517 517 517> 255 62 424 64<0 314 0 337 0 389>
AnchorPoint: "Anchor-0" 285 0 basechar 0
LayerCount: 2
Fore
SplineSet
486 393 m 0xd4
 488 370 488 348 488 314 c 2
 488 0 l 1
 424 0 l 1
 424 337 l 2
 424 441 384 480 293 480 c 0
 244 480 201 463 157 428 c 1xd4
 157 0 l 1
 93 0 l 1
 93 517 l 1
 157 526 l 1xb4
 157 480 l 1
 202 513 258 533 317 533 c 0
 414 533 477 496 486 393 c 0xd4
255 -66 m 1xdc
 267 -58 300 -50 317 -51 c 1
 320 -132 291 -195 240 -252 c 1
 193 -252 l 1
 238 -176 253 -124 255 -66 c 1xdc
EndSplineSet
EndChar

StartChar: eng
Encoding: 390 331 174
Width: 566
GlyphClass: 2
Flags: MW
HStem: -223 52<307 307> 0 21G<93 157 93 93 424 424 488 488> 480 53<287.5 338.5> 506 20G<157 157>
VStem: 93 64<0 428 0 480 480 517 517 517> 424 64<-17.5 0 -17.5 0 0 314>
AnchorPoint: "Anchor-0" 285 0 basechar 0
LayerCount: 2
Fore
SplineSet
488 0 m 2xec
 488 -35 488 -58 485 -92 c 0
 478 -161 440 -227 307 -223 c 1
 307 -171 l 1
 403 -169 424 -130 424 -19 c 2
 424 0 l 1
 424 337 l 2
 424 441 384 480 293 480 c 0
 244 480 201 463 157 428 c 1xec
 157 0 l 1
 93 0 l 1
 93 517 l 1
 157 526 l 1xdc
 157 480 l 1
 202 513 258 533 317 533 c 0
 414 533 477 496 486 393 c 0
 488 370 488 348 488 314 c 2
 488 0 l 2xec
EndSplineSet
EndChar

StartChar: ntilde
Encoding: 391 241 175
Width: 566
GlyphClass: 2
Flags: MW
HStem: 0 21G<93 157 93 93 424 488 424 424> 480 53<287.5 338.5> 506 20G<157 157> 625 51<346 362 346 377> 677 52<208 224>
VStem: 93 64<0 428 0 480 480 517 517 517> 145 38<619 623> 387 38<730 734> 424 64<0 314 0 337 0 389>
AnchorPoint: "Anchor-0" 285 0 basechar 0
LayerCount: 2
Fore
SplineSet
218 677 m 0xca80
 198 677 189 664 183 619 c 1
 145 623 l 1
 150 694 172 729 214 729 c 0xca80
 235 729 252 722 291 701 c 0
 329 680 340 676 352 676 c 0
 372 676 381 690 387 734 c 1
 425 730 l 1
 420 659 398 625 356 625 c 0xd5
 335 625 318 632 279 653 c 0
 240 674 230 677 218 677 c 0xca80
486 393 m 0xcc80
 488 370 488 348 488 314 c 2
 488 0 l 1
 424 0 l 1
 424 337 l 2
 424 441 384 480 293 480 c 0
 244 480 201 463 157 428 c 1xcc80
 157 0 l 1
 93 0 l 1
 93 517 l 1
 157 526 l 1xac80
 157 480 l 1
 202 513 258 533 317 533 c 0
 414 533 477 496 486 393 c 0xcc80
EndSplineSet
EndChar

StartChar: o
Encoding: 111 111 176
Width: 572
GlyphClass: 2
Flags: MW
HStem: -14 53<236.5 335 236.5 357.5> 480 52<236.5 335>
VStem: 52 67<182.5 336 182.5 349.5> 453 67<182.5 336>
LayerCount: 2
Fore
SplineSet
286 532 m 0
 429 532 520 440 520 259 c 0
 520 79 429 -14 286 -14 c 0
 143 -14 52 79 52 259 c 0
 52 440 143 532 286 532 c 0
286 39 m 0
 384 39 453 106 453 259 c 0
 453 413 384 480 286 480 c 0
 187 480 119 413 119 259 c 0
 119 106 187 39 286 39 c 0
EndSplineSet
EndChar

StartChar: oacute
Encoding: 392 243 177
Width: 572
GlyphClass: 2
Flags: MW
HStem: -14 53<236.5 335 236.5 357.5> 480 52<236.5 335> 604 156<255 411 255 411>
VStem: 52 67<182.5 336 182.5 349.5> 453 67<182.5 336>
LayerCount: 2
Fore
SplineSet
411 760 m 1
 296 604 l 1
 255 604 l 1
 333 760 l 1
 411 760 l 1
286 532 m 0
 429 532 520 440 520 259 c 0
 520 79 429 -14 286 -14 c 0
 143 -14 52 79 52 259 c 0
 52 440 143 532 286 532 c 0
286 39 m 0
 384 39 453 106 453 259 c 0
 453 413 384 480 286 480 c 0
 187 480 119 413 119 259 c 0
 119 106 187 39 286 39 c 0
EndSplineSet
EndChar

StartChar: ocircumflex
Encoding: 393 244 178
Width: 572
GlyphClass: 2
Flags: MW
HStem: -14 53<236.5 335 236.5 357.5> 480 52<236.5 335> 604 156<161 312 161 312 255 355 255 406> 714 46<282 282>
VStem: 52 67<182.5 336 182.5 349.5> 453 67<182.5 336>
LayerCount: 2
Fore
SplineSet
282 714 m 1xdc
 208 604 l 1
 161 604 l 1
 255 760 l 1
 312 760 l 1
 406 604 l 1
 355 604 l 1xec
 282 714 l 1xdc
286 532 m 0
 429 532 520 440 520 259 c 0
 520 79 429 -14 286 -14 c 0
 143 -14 52 79 52 259 c 0
 52 440 143 532 286 532 c 0
286 39 m 0
 384 39 453 106 453 259 c 0
 453 413 384 480 286 480 c 0
 187 480 119 413 119 259 c 0
 119 106 187 39 286 39 c 0
EndSplineSet
EndChar

StartChar: odieresis
Encoding: 394 246 179
Width: 572
GlyphClass: 2
Flags: MW
HStem: -14 53<236.5 335 236.5 357.5> 480 52<236.5 335> 623.25 90.5
VStem: 52 67<182.5 336 182.5 349.5> 187 64<627 710> 321 64<627 710> 453 67<182.5 336>
LayerCount: 2
Fore
SplineSet
251 627 m 1
 235 622 203 622 187 627 c 1
 187 710 l 1
 203 715 235 715 251 710 c 1
 251 627 l 1
385 627 m 1
 368 622 337 622 321 627 c 1
 321 710 l 1
 337 715 368 715 385 710 c 1
 385 627 l 1
286 532 m 0
 429 532 520 440 520 259 c 0
 520 79 429 -14 286 -14 c 0
 143 -14 52 79 52 259 c 0
 52 440 143 532 286 532 c 0
286 39 m 0
 384 39 453 106 453 259 c 0
 453 413 384 480 286 480 c 0
 187 480 119 413 119 259 c 0
 119 106 187 39 286 39 c 0
EndSplineSet
EndChar

StartChar: ograve
Encoding: 395 242 180
Width: 572
GlyphClass: 2
Flags: MW
HStem: -14 53<236.5 335 236.5 357.5> 480 52<236.5 335> 604 156<165 321 165 280>
VStem: 52 67<182.5 336 182.5 349.5> 453 67<182.5 336>
LayerCount: 2
Fore
SplineSet
321 604 m 1
 280 604 l 1
 165 760 l 1
 243 760 l 1
 321 604 l 1
286 532 m 0
 429 532 520 440 520 259 c 0
 520 79 429 -14 286 -14 c 0
 143 -14 52 79 52 259 c 0
 52 440 143 532 286 532 c 0
286 39 m 0
 384 39 453 106 453 259 c 0
 453 413 384 480 286 480 c 0
 187 480 119 413 119 259 c 0
 119 106 187 39 286 39 c 0
EndSplineSet
EndChar

StartChar: ohungarumlaut
Encoding: 396 337 181
Width: 572
GlyphClass: 2
Flags: MW
HStem: -14 53<236.5 335 236.5 357.5> 480 52<236.5 335> 604 156<174 330 174 330 309 309 309 330 252 350>
VStem: 52 67<182.5 336 182.5 349.5> 453 67<182.5 336>
LayerCount: 2
Fore
SplineSet
330 760 m 1
 215 604 l 1
 174 604 l 1
 252 760 l 1
 330 760 l 1
350 604 m 1
 309 604 l 1
 387 760 l 1
 465 760 l 1
 350 604 l 1
286 532 m 0
 429 532 520 440 520 259 c 0
 520 79 429 -14 286 -14 c 0
 143 -14 52 79 52 259 c 0
 52 440 143 532 286 532 c 0
286 39 m 0
 384 39 453 106 453 259 c 0
 453 413 384 480 286 480 c 0
 187 480 119 413 119 259 c 0
 119 106 187 39 286 39 c 0
EndSplineSet
EndChar

StartChar: omacron
Encoding: 397 333 182
Width: 572
GlyphClass: 2
Flags: MW
HStem: -14 53<236.5 335 236.5 357.5> 480 52<236.5 335> 652 44<188 383 188 383>
VStem: 52 67<182.5 336 182.5 349.5> 188 195<652 696 652 696> 453 67<182.5 336>
LayerCount: 2
Fore
SplineSet
383 696 m 1
 383 652 l 1
 188 652 l 1
 188 696 l 1
 383 696 l 1
286 532 m 0
 429 532 520 440 520 259 c 0
 520 79 429 -14 286 -14 c 0
 143 -14 52 79 52 259 c 0
 52 440 143 532 286 532 c 0
286 39 m 0
 384 39 453 106 453 259 c 0
 453 413 384 480 286 480 c 0
 187 480 119 413 119 259 c 0
 119 106 187 39 286 39 c 0
EndSplineSet
EndChar

StartChar: oslash
Encoding: 398 248 183
Width: 576
GlyphClass: 2
Flags: MW
HStem: -14 53<265.5 335 265.5 357.5> -2 21G<64 64> 480 52<236.5 304> 500 20G<494 494>
VStem: 52 67<229 336 229 349.5> 453 67<182.5 292>
LayerCount: 2
Fore
SplineSet
455 465 m 1x9c
 497 419 520 351 520 259 c 0
 520 79 429 -14 286 -14 c 0
 232 -14 185 -1 148 26 c 1
 111 -28 l 1xac
 64 -2 l 1
 109 63 l 1
 72 108 52 174 52 259 c 0
 52 440 143 532 286 532 c 0
 335 532 379 521 414 499 c 1
 447 546 l 1x6c
 494 520 l 1
 455 465 l 1x9c
119 259 m 0xac
 119 199 129 153 148 118 c 1
 381 452 l 1
 354 471 322 480 286 480 c 0
 187 480 119 413 119 259 c 0xac
286 39 m 0
 384 39 453 106 453 259 c 0
 453 325 440 376 418 411 c 1
 182 74 l 1
 210 50 245 39 286 39 c 0
EndSplineSet
EndChar

StartChar: otilde
Encoding: 399 245 184
Width: 572
GlyphClass: 2
Flags: MW
HStem: -14 53<236.5 335 236.5 357.5> 480 52<236.5 335> 625 51<347 363 347 378> 677 52<209 225>
VStem: 52 67<182.5 336 182.5 349.5> 146 38<619 623> 388 38<730 734> 453 67<182.5 336>
LayerCount: 2
Fore
SplineSet
219 677 m 0
 199 677 190 664 184 619 c 1
 146 623 l 1
 151 694 173 729 215 729 c 0xdd
 236 729 253 722 292 701 c 0
 330 680 341 676 353 676 c 0
 373 676 382 690 388 734 c 1
 426 730 l 1
 421 659 399 625 357 625 c 0xeb
 336 625 319 632 280 653 c 0
 241 674 231 677 219 677 c 0
286 532 m 0xc9
 429 532 520 440 520 259 c 0
 520 79 429 -14 286 -14 c 0
 143 -14 52 79 52 259 c 0
 52 440 143 532 286 532 c 0xc9
286 39 m 0
 384 39 453 106 453 259 c 0
 453 413 384 480 286 480 c 0
 187 480 119 413 119 259 c 0
 119 106 187 39 286 39 c 0
EndSplineSet
EndChar

StartChar: oe
Encoding: 400 339 185
Width: 907
GlyphClass: 2
Flags: MW
HStem: -14 53<236.5 332> 247 50<516 789 516 851 515 789> 480 52<236.5 333.5 214.5 337.5> 480 53<623.5 708>
VStem: 52 67<182.5 336 182.5 349.5> 451 65<240 297 252 297 269.5 297> 789 62<247 297>
AnchorPoint: "Anchor-0" 664 0 basechar 0
LayerCount: 2
Fore
SplineSet
673 40 m 0xee
 729 40 775 49 820 69 c 1
 836 22 l 1
 779 -5 725 -14 669 -14 c 0
 565 -14 501 24 471 108 c 1
 439 33 378 -14 286 -14 c 0
 143 -14 52 79 52 259 c 0
 52 440 143 532 286 532 c 0xee
 381 532 443 482 474 403 c 1
 508 494 578 533 669 533 c 0xde
 785 533 841 466 850 334 c 0
 851 301 851 279 851 247 c 1
 515 247 l 1
 518 90 574 40 673 40 c 0xee
665 480 m 0
 575 480 523 430 516 297 c 1
 789 297 l 1
 787 437 751 480 665 480 c 0
286 39 m 0
 388 39 446 111 451 240 c 1
 451 252 l 2
 451 259 451 266 451 273 c 0
 448 405 389 480 286 480 c 0
 187 480 119 413 119 259 c 0
 119 106 187 39 286 39 c 0
EndSplineSet
EndChar

StartChar: p
Encoding: 112 112 186
Width: 560
GlyphClass: 2
Flags: MW
HStem: -209 21G<93 93> -14 52<251.5 322.5 251.5 348> -4 21G<157 157> 480 53<242 322>
VStem: 93 64<-200 -4 -200 52 52 468> 442 66<182.5 341.5>
LayerCount: 2
Fore
SplineSet
276 533 m 0xdc
 417 533 508 468 508 272 c 0
 508 93 432 -14 264 -14 c 0xdc
 223 -14 189 -11 157 -4 c 1xbc
 157 -200 l 1
 93 -209 l 1
 93 505 l 1
 158 525 208 533 276 533 c 0xdc
270 38 m 0
 375 38 442 102 442 262 c 0
 442 421 382 480 262 480 c 0
 222 480 193 478 157 468 c 1
 157 52 l 1
 200 42 233 38 270 38 c 0
EndSplineSet
EndChar

StartChar: thorn
Encoding: 401 254 187
Width: 560
GlyphClass: 2
Flags: MW
HStem: -209 21G<93 93> -14 52<251.5 322.5 251.5 348> -4 21G<157 157> 480 53<254 322> 732 20G<93 93> 740 20G<157 157>
VStem: 93 64<-200 -4 -200 52 52 468 521 752 752 752> 442 66<182.5 341.5>
AnchorPoint: "Anchor-0" 125 0 basechar 0
LayerCount: 2
Fore
SplineSet
276 533 m 0xd7
 417 533 508 468 508 272 c 0
 508 93 432 -14 264 -14 c 0xd7
 223 -14 189 -11 157 -4 c 1
 157 -200 l 1
 93 -209 l 1
 93 505 l 1
 93 752 l 1xbb
 157 760 l 1
 157 521 l 1
 195 529 232 533 276 533 c 0xd7
270 38 m 0
 375 38 442 102 442 262 c 0
 442 421 382 480 262 480 c 0
 222 480 193 478 157 468 c 1
 157 52 l 1
 200 42 233 38 270 38 c 0
EndSplineSet
EndChar

StartChar: q
Encoding: 113 113 188
Width: 560
GlyphClass: 2
Flags: MW
HStem: -209 21G<403 403> -14 52<238 305.5> 480 53<237.5 308.5>
VStem: 52 66<177.5 336> 403 64<-200 -1 -1 -1 50 467 467 467>
LayerCount: 2
Fore
SplineSet
296 533 m 0
 363 533 413 524 467 506 c 1
 467 -200 l 1
 403 -209 l 1
 403 -1 l 1
 364 -11 327 -14 284 -14 c 0
 143 -14 52 50 52 247 c 0
 52 425 128 533 296 533 c 0
298 38 m 0
 338 38 367 41 403 50 c 1
 403 467 l 1
 360 477 327 480 290 480 c 0
 185 480 118 417 118 257 c 0
 118 98 178 38 298 38 c 0
EndSplineSet
EndChar

StartChar: r
Encoding: 114 114 189
Width: 342
GlyphClass: 2
Flags: MW
HStem: 0 21G<93 93 93 157> 472 61<242 267.5> 503 20G<157 157>
VStem: 93 64<0 401 459 514 514 514>
AnchorPoint: "Anchor-0" 125 0 basechar 0
LayerCount: 2
Fore
SplineSet
93 0 m 1xd0
 93 514 l 1
 157 523 l 1xb0
 157 459 l 1
 182 513 222 533 262 533 c 0
 288 533 303 527 316 518 c 1
 309 464 l 1
 293 469 279 472 256 472 c 0
 210 472 177 447 157 401 c 1
 157 0 l 1
 93 0 l 1xd0
EndSplineSet
EndChar

StartChar: racute
Encoding: 402 341 190
Width: 342
GlyphClass: 2
Flags: MW
HStem: 0 21G<93 93 93 157> 472 61<242 267.5> 503 20G<157 157> 604 156<159 315 159 315>
VStem: 93 64<0 401 459 514 514 514>
AnchorPoint: "Anchor-0" 125 0 basechar 0
LayerCount: 2
Fore
SplineSet
159 604 m 1xd8
 237 760 l 1
 315 760 l 1
 200 604 l 1
 159 604 l 1xd8
93 0 m 1
 93 514 l 1
 157 523 l 1xb8
 157 459 l 1
 182 513 222 533 262 533 c 0
 288 533 303 527 316 518 c 1
 309 464 l 1
 293 469 279 472 256 472 c 0
 210 472 177 447 157 401 c 1
 157 0 l 1
 93 0 l 1
EndSplineSet
EndChar

StartChar: rcaron
Encoding: 403 345 191
Width: 342
GlyphClass: 2
Flags: MW
HStem: 0 21G<93 157 93 93> 472 61<242 267.5> 503 20G<157 157> 604 47<193 193 193 219 162 193> 604 156<68 219 68 162>
VStem: 93 64<0 401 0 459 459 514 514 514>
AnchorPoint: "Anchor-0" 125 0 basechar 0
LayerCount: 2
Fore
SplineSet
219 604 m 1xcc
 162 604 l 1
 68 760 l 1
 119 760 l 1xcc
 193 651 l 1xd4
 267 760 l 1
 313 760 l 1
 219 604 l 1xcc
262 533 m 0
 288 533 303 527 316 518 c 1
 309 464 l 1
 293 469 279 472 256 472 c 0
 210 472 177 447 157 401 c 1xcc
 157 0 l 1
 93 0 l 1
 93 514 l 1
 157 523 l 1xac
 157 459 l 1
 182 513 222 533 262 533 c 0
EndSplineSet
EndChar

StartChar: rcommaaccent
Encoding: 404 343 192
Width: 342
GlyphClass: 2
Flags: MW
HStem: 0 21G<93 93 93 157> 472 61<242 267.5> 503 20G<157 157>
VStem: 93 64<0 401 459 514 514 514>
AnchorPoint: "Anchor-0" 125 0 basechar 0
LayerCount: 2
Fore
SplineSet
93 0 m 1xd0
 93 514 l 1
 157 523 l 1xb0
 157 459 l 1
 182 513 222 533 262 533 c 0
 288 533 303 527 316 518 c 1
 309 464 l 1
 293 469 279 472 256 472 c 0
 210 472 177 447 157 401 c 1
 157 0 l 1
 93 0 l 1xd0
32 -252 m 1
 77 -176 92 -124 94 -66 c 1
 106 -58 139 -50 156 -51 c 1
 159 -132 130 -195 79 -252 c 1
 32 -252 l 1
EndSplineSet
EndChar

StartChar: s
Encoding: 115 115 193
Width: 460
GlyphClass: 2
Flags: MW
HStem: -14 52<192 251.5 192 264> 482 52<213.5 270>
VStem: 79 65<375 427.5 375 439> 331 65<100 157>
AnchorPoint: "Anchor-0" 230 0 basechar 0
LayerCount: 2
Fore
SplineSet
213 -14 m 0
 150 -14 96 3 53 41 c 1
 80 84 l 1
 119 55 167 38 217 38 c 0
 286 38 331 71 331 129 c 0
 331 185 298 209 207 249 c 0
 141 278 79 315 79 397 c 0
 79 481 146 534 247 534 c 0
 308 534 354 518 390 492 c 1
 368 446 l 1
 333 469 295 482 245 482 c 0
 182 482 144 453 144 402 c 0
 144 348 185 325 248 297 c 0
 340 255 396 220 396 134 c 0
 396 37 315 -14 213 -14 c 0
EndSplineSet
EndChar

StartChar: sacute
Encoding: 405 347 194
Width: 460
GlyphClass: 2
Flags: MW
HStem: -14 52<192 251.5 192 264> 482 52<213.5 270> 604 156<211 367 211 367>
VStem: 79 65<375 427.5 375 439> 331 65<100 157>
AnchorPoint: "Anchor-0" 230 0 basechar 0
LayerCount: 2
Fore
SplineSet
211 604 m 1
 289 760 l 1
 367 760 l 1
 252 604 l 1
 211 604 l 1
213 -14 m 0
 150 -14 96 3 53 41 c 1
 80 84 l 1
 119 55 167 38 217 38 c 0
 286 38 331 71 331 129 c 0
 331 185 298 209 207 249 c 0
 141 278 79 315 79 397 c 0
 79 481 146 534 247 534 c 0
 308 534 354 518 390 492 c 1
 368 446 l 1
 333 469 295 482 245 482 c 0
 182 482 144 453 144 402 c 0
 144 348 185 325 248 297 c 0
 340 255 396 220 396 134 c 0
 396 37 315 -14 213 -14 c 0
EndSplineSet
EndChar

StartChar: scaron
Encoding: 406 353 195
Width: 460
GlyphClass: 2
Flags: MW
HStem: -14 52<192 251.5 192 264> 482 52<213.5 270> 604 47<245 245 245 271 214 245> 604 156<120 271 120 214>
VStem: 79 65<375 427.5 375 439> 331 65<100 157>
AnchorPoint: "Anchor-0" 230 0 basechar 0
LayerCount: 2
Fore
SplineSet
271 604 m 1xdc
 214 604 l 1
 120 760 l 1
 171 760 l 1xdc
 245 651 l 1xec
 319 760 l 1
 365 760 l 1
 271 604 l 1xdc
248 297 m 0
 340 255 396 220 396 134 c 0
 396 37 315 -14 213 -14 c 0
 150 -14 96 3 53 41 c 1
 80 84 l 1
 119 55 167 38 217 38 c 0
 286 38 331 71 331 129 c 0
 331 185 298 209 207 249 c 0
 141 278 79 315 79 397 c 0
 79 481 146 534 247 534 c 0
 308 534 354 518 390 492 c 1
 368 446 l 1
 333 469 295 482 245 482 c 0
 182 482 144 453 144 402 c 0
 144 348 185 325 248 297 c 0
EndSplineSet
EndChar

StartChar: scedilla
Encoding: 407 351 196
Width: 460
GlyphClass: 2
Flags: MW
HStem: -210 41<190 217.5 190 233> -81 35 -14 52<205 205> 482 52<213.5 270>
VStem: 79 65<375 427.5 375 439> 267 52<-138.5 -106.5> 331 65<100 157>
AnchorPoint: "Anchor-0" 230 0 basechar 0
LayerCount: 2
Fore
SplineSet
396 134 m 0
 396 47 331 -3 245 -12 c 1
 229 -46 l 1
 285 -51 319 -81 319 -123 c 0
 319 -180 265 -210 201 -210 c 0
 174 -210 152 -205 135 -194 c 1
 151 -160 l 1
 167 -167 182 -169 198 -169 c 0
 237 -169 267 -154 267 -123 c 0
 267 -90 233 -76 175 -81 c 1
 205 -14 l 1xfe
 146 -13 94 5 53 41 c 1
 80 84 l 1
 119 55 167 38 217 38 c 0
 286 38 331 71 331 129 c 0
 331 185 298 209 207 249 c 0
 141 278 79 315 79 397 c 0
 79 481 146 534 247 534 c 0
 308 534 354 518 390 492 c 1
 368 446 l 1
 333 469 295 482 245 482 c 0
 182 482 144 453 144 402 c 0
 144 348 185 325 248 297 c 0
 340 255 396 220 396 134 c 0
EndSplineSet
EndChar

StartChar: germandbls
Encoding: 408 223 197
Width: 594
GlyphClass: 2
Flags: MW
HStem: -14 52<333 385.5 333 398> 0 21G<93 157 93 93> 509 20G 712 52<257 337.5>
VStem: 93 64<0 453 453 472> 317 62<422 447.5 422 457> 422 66<576 624> 470 67<122 184.5>
LayerCount: 2
Fore
SplineSet
443 344 m 0xbd
 508 284 537 233 537 165 c 0
 537 49 453 -14 343 -14 c 0xbd
 301 -14 263 -2 238 18 c 1x7d
 261 61 l 1
 288 44 318 38 348 38 c 0
 423 38 470 87 470 157 c 0xbd
 470 212 449 253 398 305 c 0
 332 372 317 397 317 433 c 0
 317 481 345 513 415 529 c 1
 420 548 422 565 422 587 c 0
 422 661 380 712 295 712 c 0
 219 712 157 659 157 537 c 2
 157 0 l 1
 93 0 l 1
 93 453 l 2
 93 491 93 542 97 582 c 0
 108 686 177 764 298 764 c 0
 436 764 488 683 488 587 c 0x7e
 488 553 481 521 466 490 c 1
 396 477 379 461 379 434 c 0
 379 410 398 385 443 344 c 0xbd
EndSplineSet
EndChar

StartChar: t
Encoding: 116 116 198
Width: 377
GlyphClass: 2
Flags: MW
HStem: -14 54<237 262.5> 469 50<44 120 44 120 184 330>
VStem: 120 64<178 469 519 648 648 648>
AnchorPoint: "Anchor-0" 229 0 basechar 0
LayerCount: 2
Fore
SplineSet
331 53 m 1
 344 11 l 1
 316 -3 284 -14 241 -14 c 0
 160 -14 126 33 122 91 c 0
 120 118 120 142 120 178 c 2
 120 469 l 1
 44 469 l 1
 44 519 l 1
 120 519 l 1
 120 648 l 1
 184 659 l 1
 184 519 l 1
 338 519 l 1
 330 469 l 1
 184 469 l 1
 184 152 l 2
 184 66 207 40 267 40 c 0
 288 40 307 43 331 53 c 1
EndSplineSet
EndChar

StartChar: tbar
Encoding: 409 359 199
Width: 377
GlyphClass: 2
Flags: MW
HStem: -14 54<237 262.5> 279 44<54 120 54 120 184 299> 469 50<44 120 44 120 184 330>
VStem: 120 64<178 279 323 469 519 648 648 648>
AnchorPoint: "Anchor-0" 229 0 basechar 0
LayerCount: 2
Fore
SplineSet
331 53 m 1
 344 11 l 1
 316 -3 284 -14 241 -14 c 0
 160 -14 126 33 122 91 c 0
 120 118 120 142 120 178 c 2
 120 279 l 1
 54 279 l 1
 54 323 l 1
 120 323 l 1
 120 469 l 1
 44 469 l 1
 44 519 l 1
 120 519 l 1
 120 648 l 1
 184 659 l 1
 184 519 l 1
 338 519 l 1
 330 469 l 1
 184 469 l 1
 184 323 l 1
 299 323 l 1
 299 279 l 1
 184 279 l 1
 184 152 l 2
 184 66 207 40 267 40 c 0
 288 40 307 43 331 53 c 1
EndSplineSet
EndChar

StartChar: tcaron
Encoding: 410 357 200
Width: 387
GlyphClass: 2
Flags: MW
HStem: -14 54<237 262.5> 469 50<44 120 44 120 184 330> 737 20G
VStem: 120 64<178 469 519 648 648 648> 285 62
AnchorPoint: "Anchor-0" 229 0 basechar 0
LayerCount: 2
Fore
SplineSet
347 757 m 1
 351 676 322 613 271 556 c 1
 224 556 l 1
 268 632 283 684 285 742 c 1
 298 750 331 758 347 757 c 1
267 40 m 0
 288 40 307 43 331 53 c 1
 344 11 l 1
 316 -3 284 -14 241 -14 c 0
 160 -14 126 33 122 91 c 0
 120 118 120 142 120 178 c 2
 120 469 l 1
 44 469 l 1
 44 519 l 1
 120 519 l 1
 120 648 l 1
 184 659 l 1
 184 519 l 1
 338 519 l 1
 330 469 l 1
 184 469 l 1
 184 152 l 2
 184 66 207 40 267 40 c 0
EndSplineSet
EndChar

StartChar: uni0163
Encoding: 411 355 201
Width: 377
GlyphClass: 2
Flags: MW
HStem: -210 41<189 216.5 189 232> -81 35 -14 54<243 264> -10 21G 469 50<44 120 44 120 184 330>
VStem: 120 64<178 469 519 648 648 648> 266 52<-138.5 -106.5>
AnchorPoint: "Anchor-0" 229 0 basechar 0
LayerCount: 2
Fore
SplineSet
228 -46 m 1xee
 284 -51 318 -81 318 -123 c 0
 318 -180 264 -210 200 -210 c 0
 173 -210 151 -205 134 -194 c 1
 150 -160 l 1
 166 -167 181 -169 197 -169 c 0
 236 -169 266 -154 266 -123 c 0
 266 -90 232 -76 174 -81 c 1
 206 -10 l 1xde
 150 1 125 42 122 91 c 0
 120 118 120 142 120 178 c 2
 120 469 l 1
 44 469 l 1
 44 519 l 1
 120 519 l 1
 120 648 l 1
 184 659 l 1
 184 519 l 1
 338 519 l 1
 330 469 l 1
 184 469 l 1
 184 152 l 2
 184 66 207 40 267 40 c 0
 288 40 307 43 331 53 c 1
 344 11 l 1
 316 -3 285 -14 243 -14 c 1
 228 -46 l 1xee
EndSplineSet
EndChar

StartChar: u
Encoding: 117 117 202
Width: 560
GlyphClass: 2
Flags: MW
HStem: -12 52<220.5 273> 0 21G<404 468 404 404> 0 92<404 468 404 404> 503 20G<137 137 468 468>
VStem: 73 64<213 514 514 514> 404 64<0 42 42 42 92 514 514 514>
LayerCount: 2
Fore
SplineSet
404 514 m 5x9c
 468 523 l 1
 468 0 l 1
 404 0 l 1x5c
 404 42 l 1
 359 6 302 -12 244 -12 c 0
 146 -12 84 30 75 133 c 0
 73 156 73 179 73 213 c 2
 73 514 l 1
 137 523 l 1
 137 184 l 2
 137 79 176 40 265 40 c 0x9c
 314 40 358 56 404 92 c 1x3c
 404 514 l 5x9c
EndSplineSet
EndChar

StartChar: uacute
Encoding: 412 250 203
Width: 560
GlyphClass: 2
Flags: MW
HStem: -12 52<220.5 273> 0 21G<404 468 404 404> 0 92<404 468 404 404> 503 20G<137 137 468 468> 604 156<246 402 246 402>
VStem: 73 64<213 514 514 514> 404 64<0 42 42 42 92 514 514 514>
LayerCount: 2
Fore
SplineSet
402 760 m 1x9e
 287 604 l 1
 246 604 l 1
 324 760 l 1
 402 760 l 1x9e
404 514 m 1
 468 523 l 1
 468 0 l 1
 404 0 l 1x5e
 404 42 l 1
 359 6 302 -12 244 -12 c 0
 146 -12 84 30 75 133 c 0
 73 156 73 179 73 213 c 2
 73 514 l 1
 137 523 l 1
 137 184 l 2
 137 79 176 40 265 40 c 0x9e
 314 40 358 56 404 92 c 1x3e
 404 514 l 1
EndSplineSet
EndChar

StartChar: ucircumflex
Encoding: 413 251 204
Width: 560
GlyphClass: 2
Flags: MW
HStem: -12 52<220.5 273> 0 21G<404 468 404 404> 0 92<404 468 404 404> 503 20G<137 137 468 468> 604 156<153 304 153 304 247 347 247 398> 714 46<274 274>
VStem: 73 64<213 514 514 514> 404 64<0 42 42 42 92 514 514 514>
LayerCount: 2
Fore
SplineSet
274 714 m 1x97
 200 604 l 1
 153 604 l 1
 247 760 l 1
 304 760 l 1
 398 604 l 1
 347 604 l 1x3b
 274 714 l 1x97
404 514 m 1
 468 523 l 1
 468 0 l 1
 404 0 l 1x5b
 404 42 l 1
 359 6 302 -12 244 -12 c 0
 146 -12 84 30 75 133 c 0
 73 156 73 179 73 213 c 2
 73 514 l 1
 137 523 l 1
 137 184 l 2
 137 79 176 40 265 40 c 0x9b
 314 40 358 56 404 92 c 1
 404 514 l 1
EndSplineSet
EndChar

StartChar: udieresis
Encoding: 414 252 205
Width: 560
GlyphClass: 2
Flags: MW
HStem: -12 52<220.5 273> 0 21G<404 468 404 404> 0 92<404 468 404 404> 503 20G<137 137 468 468> 623.25 90.5
VStem: 73 64<213 514 514 514> 179 64<627 710> 313 64<627 710> 404 64<0 42 42 42 92 514 514 514>
LayerCount: 2
Fore
SplineSet
243 627 m 1x9e80
 227 622 195 622 179 627 c 1
 179 710 l 1
 195 715 227 715 243 710 c 1
 243 627 l 1x9e80
377 627 m 1x9f80
 360 622 329 622 313 627 c 1
 313 710 l 1
 329 715 360 715 377 710 c 1
 377 627 l 1x9f80
404 514 m 1x3e80
 468 523 l 1
 468 0 l 1
 404 0 l 1x5e80
 404 42 l 1
 359 6 302 -12 244 -12 c 0
 146 -12 84 30 75 133 c 0
 73 156 73 179 73 213 c 2
 73 514 l 1
 137 523 l 1
 137 184 l 2
 137 79 176 40 265 40 c 0x9e80
 314 40 358 56 404 92 c 1
 404 514 l 1x3e80
EndSplineSet
EndChar

StartChar: ugrave
Encoding: 415 249 206
Width: 560
GlyphClass: 2
Flags: MW
HStem: -12 52<220.5 273> 0 21G<404 468 404 404> 0 92<404 468 404 404> 503 20G<137 137 468 468> 604 156<157 313 157 272>
VStem: 73 64<213 514 514 514> 404 64<0 42 42 42 92 514 514 514>
LayerCount: 2
Fore
SplineSet
313 604 m 1x9e
 272 604 l 1
 157 760 l 1
 235 760 l 1
 313 604 l 1x9e
404 514 m 1
 468 523 l 1
 468 0 l 1
 404 0 l 1x5e
 404 42 l 1
 359 6 302 -12 244 -12 c 0
 146 -12 84 30 75 133 c 0
 73 156 73 179 73 213 c 2
 73 514 l 1
 137 523 l 1
 137 184 l 2
 137 79 176 40 265 40 c 0x9e
 314 40 358 56 404 92 c 1x3e
 404 514 l 1
EndSplineSet
EndChar

StartChar: uhungarumlaut
Encoding: 416 369 207
Width: 560
GlyphClass: 2
Flags: MW
HStem: -12 52<220.5 273> 0 21G<404 468 404 404> 0 92<404 468 404 404> 503 20G<137 137 468 468> 604 156<166 322 166 322 301 301 301 322 244 342>
VStem: 73 64<213 514 514 514> 404 64<0 42 42 42 92 514 514 514>
LayerCount: 2
Fore
SplineSet
322 760 m 1x9e
 207 604 l 1
 166 604 l 1
 244 760 l 1
 322 760 l 1x9e
342 604 m 1
 301 604 l 1
 379 760 l 1
 457 760 l 1
 342 604 l 1
404 514 m 1
 468 523 l 1
 468 0 l 1
 404 0 l 1x5e
 404 42 l 1
 359 6 302 -12 244 -12 c 0
 146 -12 84 30 75 133 c 0
 73 156 73 179 73 213 c 2
 73 514 l 1
 137 523 l 1
 137 184 l 2
 137 79 176 40 265 40 c 0x9e
 314 40 358 56 404 92 c 1x3e
 404 514 l 1
EndSplineSet
EndChar

StartChar: umacron
Encoding: 417 363 208
Width: 560
GlyphClass: 2
Flags: MW
HStem: -12 52<220.5 273> 0 21G<404 468 404 404> 0 92<404 468 404 404> 503 20G<137 137 468 468> 652 44<180 375 180 375>
VStem: 73 64<213 514 514 514> 180 195<652 696 652 696> 404 64<0 42 42 42 92 514 514 514>
LayerCount: 2
Fore
SplineSet
375 696 m 1x9f
 375 652 l 1
 180 652 l 1
 180 696 l 1
 375 696 l 1x9f
404 514 m 1x3d
 468 523 l 1
 468 0 l 1
 404 0 l 1x5d
 404 42 l 1
 359 6 302 -12 244 -12 c 0
 146 -12 84 30 75 133 c 0
 73 156 73 179 73 213 c 2
 73 514 l 1
 137 523 l 1
 137 184 l 2
 137 79 176 40 265 40 c 0x9d
 314 40 358 56 404 92 c 1
 404 514 l 1x3d
EndSplineSet
EndChar

StartChar: uogonek
Encoding: 418 371 209
Width: 560
GlyphClass: 2
Flags: MW
HStem: -220 43<407.5 416> -12 21G<195 273> -12 52<220.5 273> 0 21G<468 468> 503 20G<137 137 468 468>
VStem: 73 64<213 514 514 514> 308 60<-136.5 -98.5> 404 64<8 42 42 42 92 514 514 514>
LayerCount: 2
Fore
SplineSet
425 -177 m 0xaf
 441 -177 459 -173 477 -164 c 1
 473 -199 l 1
 449 -213 428 -220 404 -220 c 0
 350 -220 308 -190 308 -126 c 0
 308 -71 353 -13 404 8 c 1xcf
 404 42 l 1
 359 6 302 -12 244 -12 c 0
 146 -12 84 30 75 133 c 0
 73 156 73 179 73 213 c 2
 73 514 l 1
 137 523 l 1
 137 184 l 2
 137 79 176 40 265 40 c 0
 314 40 358 56 404 92 c 1xaf
 404 514 l 1
 468 523 l 1
 468 0 l 1x9f
 400 -25 368 -67 368 -117 c 0
 368 -156 390 -177 425 -177 c 0xaf
EndSplineSet
EndChar

StartChar: uring
Encoding: 419 367 210
Width: 560
GlyphClass: 2
Flags: MW
HStem: -12 52<220.5 273> 0 21G<404 468 404 404> 0 92<404 468 404 404> 503 20G<137 137 468 468> 580 34<262.5 293 262.5 305> 726 34<262.5 293>
VStem: 73 64<213 514 514 514> 180 42<653 687 653 697> 333 42<653 687> 404 64<0 42 42 42 92 514 514 514>
LayerCount: 2
Fore
SplineSet
278 580 m 0x9fc0
 223 580 180 617 180 670 c 0
 180 724 223 760 278 760 c 0
 332 760 375 724 375 670 c 0
 375 617 332 580 278 580 c 0x9fc0
278 726 m 0
 247 726 222 704 222 670 c 0
 222 636 247 614 278 614 c 0
 308 614 333 636 333 670 c 0
 333 704 308 726 278 726 c 0
404 514 m 1x3f40
 468 523 l 1
 468 0 l 1
 404 0 l 1x5f40
 404 42 l 1
 359 6 302 -12 244 -12 c 0
 146 -12 84 30 75 133 c 0
 73 156 73 179 73 213 c 2
 73 514 l 1
 137 523 l 1
 137 184 l 2
 137 79 176 40 265 40 c 0x9f40
 314 40 358 56 404 92 c 1
 404 514 l 1x3f40
EndSplineSet
EndChar

StartChar: v
Encoding: 118 118 211
Width: 521
GlyphClass: 2
Flags: MW
HStem: 0 21G<230 285 230 230> 0 71<260 260 260 285 230 260> 499 20G<28 100 100 100 430 496 496 496>
VStem: 28 468<519 519>
LayerCount: 2
Fore
SplineSet
430 519 m 1xb0
 496 519 l 1
 285 0 l 1
 230 0 l 1
 28 519 l 1
 100 519 l 1
 260 71 l 1x70
 430 519 l 1xb0
EndSplineSet
EndChar

StartChar: w
Encoding: 119 119 212
Width: 789
GlyphClass: 2
Flags: MW
HStem: 0 21G<199 257 199 199 528 585 528 528> 0 77<231 231 231 257 199 231> 499 20G<36 108 108 108 692 756 756 756>
VStem: 36 720<519 519>
LayerCount: 2
Fore
SplineSet
692 519 m 1xb0
 756 519 l 1
 585 0 l 1
 528 0 l 1
 397 406 l 1
 257 0 l 1
 199 0 l 1
 36 519 l 1
 108 519 l 1
 231 77 l 1
 378 506 l 1
 422 506 l 1
 558 77 l 1x70
 692 519 l 1xb0
EndSplineSet
EndChar

StartChar: wacute
Encoding: 420 7811 213
Width: 789
GlyphClass: 2
Flags: MW
HStem: 0 21G<199 257 199 199 528 585 528 528> 0 77<231 231 231 257 199 231> 499 20G<36 108 108 108 692 756 756 756> 604 156<369 525 369 525>
VStem: 36 720<519 519>
LayerCount: 2
Fore
SplineSet
525 760 m 1xb8
 410 604 l 1
 369 604 l 1
 447 760 l 1
 525 760 l 1xb8
692 519 m 1
 756 519 l 1
 585 0 l 1
 528 0 l 1
 397 406 l 1
 257 0 l 1
 199 0 l 1
 36 519 l 1
 108 519 l 1
 231 77 l 1
 378 506 l 1
 422 506 l 1
 558 77 l 1x78
 692 519 l 1
EndSplineSet
EndChar

StartChar: wcircumflex
Encoding: 421 373 214
Width: 789
GlyphClass: 2
Flags: MW
HStem: 0 21G<199 257 199 199 528 585 528 528> 0 77<231 231 231 257 199 231> 499 20G<36 108 108 108 692 756 756 756> 604 156<275 426 275 426 369 469 369 520> 714 46<396 396>
VStem: 36 720<519 519>
LayerCount: 2
Fore
SplineSet
396 714 m 1xac
 322 604 l 1
 275 604 l 1
 369 760 l 1
 426 760 l 1
 520 604 l 1
 469 604 l 1x74
 396 714 l 1xac
692 519 m 1
 756 519 l 1
 585 0 l 1
 528 0 l 1
 397 406 l 1
 257 0 l 1
 199 0 l 1
 36 519 l 1
 108 519 l 1
 231 77 l 1
 378 506 l 1
 422 506 l 1
 558 77 l 1
 692 519 l 1
EndSplineSet
EndChar

StartChar: wdieresis
Encoding: 422 7813 215
Width: 789
GlyphClass: 2
Flags: MW
HStem: 0 21G<199 257 199 199 528 585 528 528> 0 77<231 231 231 257 199 231> 499 20G<36 108 108 108 692 756 756 756> 623.25 90.5
VStem: 301 64<627 710> 435 64<627 710>
LayerCount: 2
Fore
SplineSet
365 627 m 1xbc
 349 622 317 622 301 627 c 1
 301 710 l 1
 317 715 349 715 365 710 c 1
 365 627 l 1xbc
499 627 m 1
 482 622 451 622 435 627 c 1
 435 710 l 1
 451 715 482 715 499 710 c 1
 499 627 l 1
692 519 m 1
 756 519 l 1
 585 0 l 1
 528 0 l 1
 397 406 l 1
 257 0 l 1
 199 0 l 1
 36 519 l 1
 108 519 l 1
 231 77 l 1
 378 506 l 1
 422 506 l 1
 558 77 l 1x7c
 692 519 l 1
EndSplineSet
EndChar

StartChar: wgrave
Encoding: 423 7809 216
Width: 789
GlyphClass: 2
Flags: MW
HStem: 0 21G<199 257 199 199 528 585 528 528> 0 77<231 231 231 257 199 231> 499 20G<36 108 108 108 692 756 756 756> 604 156<279 435 279 394>
VStem: 36 720<519 519>
LayerCount: 2
Fore
SplineSet
435 604 m 1xb8
 394 604 l 1
 279 760 l 1
 357 760 l 1
 435 604 l 1xb8
692 519 m 1
 756 519 l 1
 585 0 l 1
 528 0 l 1
 397 406 l 1
 257 0 l 1
 199 0 l 1
 36 519 l 1
 108 519 l 1
 231 77 l 1
 378 506 l 1
 422 506 l 1
 558 77 l 1x78
 692 519 l 1
EndSplineSet
EndChar

StartChar: x
Encoding: 120 120 217
Width: 517
GlyphClass: 2
Flags: MW
HStem: 0 21G<37 112 37 37 394 473 394 394> 499 20G<48 127 127 127 397 475 475 475>
VStem: 37 438
LayerCount: 2
Fore
SplineSet
475 519 m 5
 290 265 l 1
 473 0 l 1
 394 0 l 1
 254 221 l 1
 112 0 l 1
 37 0 l 1
 221 260 l 1
 48 519 l 1
 127 519 l 1
 257 303 l 1
 397 519 l 1
 475 519 l 5
EndSplineSet
EndChar

StartChar: y
Encoding: 121 121 218
Width: 521
GlyphClass: 2
Flags: MW
HStem: -220 21G<65 65> 499 20G<27 100 100 100 424 496 496 496>
VStem: 27 469<519 519>
LayerCount: 2
Fore
SplineSet
424 519 m 1
 496 519 l 1
 307 74 l 2
 229 -111 168 -184 65 -220 c 1
 31 -171 l 1
 115 -139 178 -75 220 18 c 1
 27 519 l 1
 100 519 l 1
 254 75 l 1
 424 519 l 1
EndSplineSet
EndChar

StartChar: yacute
Encoding: 424 253 219
Width: 521
GlyphClass: 2
Flags: MW
HStem: -220 21G<65 65> 499 20G<27 100 100 100 424 496 496 496> 604 156<229 385 229 385>
VStem: 27 469<519 519>
LayerCount: 2
Fore
SplineSet
385 760 m 1
 270 604 l 1
 229 604 l 1
 307 760 l 1
 385 760 l 1
424 519 m 1
 496 519 l 1
 307 74 l 2
 229 -111 168 -184 65 -220 c 1
 31 -171 l 1
 115 -139 178 -75 220 18 c 1
 27 519 l 1
 100 519 l 1
 254 75 l 1
 424 519 l 1
EndSplineSet
EndChar

StartChar: ycircumflex
Encoding: 425 375 220
Width: 521
GlyphClass: 2
Flags: MW
HStem: -220 21G<65 65> 499 20G<27 100 100 100 424 496 496 496> 604 156<135 286 135 286 229 329 229 380> 714 46<256 256>
VStem: 27 469<519 519>
LayerCount: 2
Fore
SplineSet
256 714 m 1xd8
 182 604 l 1
 135 604 l 1
 229 760 l 1
 286 760 l 1
 380 604 l 1
 329 604 l 1xe8
 256 714 l 1xd8
424 519 m 1
 496 519 l 1
 307 74 l 2
 229 -111 168 -184 65 -220 c 1
 31 -171 l 1
 115 -139 178 -75 220 18 c 1
 27 519 l 1
 100 519 l 1
 254 75 l 1
 424 519 l 1
EndSplineSet
EndChar

StartChar: ydieresis
Encoding: 426 255 221
Width: 521
GlyphClass: 2
Flags: MW
HStem: -220 21G<65 65> 499 20G<27 100 100 100 424 496 496 496> 623.25 90.5
VStem: 161 64<627 710> 295 64<627 710>
LayerCount: 2
Fore
SplineSet
225 627 m 1
 209 622 177 622 161 627 c 1
 161 710 l 1
 177 715 209 715 225 710 c 1
 225 627 l 1
359 627 m 1
 342 622 311 622 295 627 c 1
 295 710 l 1
 311 715 342 715 359 710 c 1
 359 627 l 1
424 519 m 1
 496 519 l 1
 307 74 l 2
 229 -111 168 -184 65 -220 c 1
 31 -171 l 1
 115 -139 178 -75 220 18 c 1
 27 519 l 1
 100 519 l 1
 254 75 l 1
 424 519 l 1
EndSplineSet
EndChar

StartChar: ygrave
Encoding: 427 7923 222
Width: 521
GlyphClass: 2
Flags: MW
HStem: -220 21G<65 65> 499 20G<27 100 100 100 424 496 496 496> 604 156<139 295 139 254>
VStem: 27 469<519 519>
LayerCount: 2
Fore
SplineSet
295 604 m 1
 254 604 l 1
 139 760 l 1
 217 760 l 1
 295 604 l 1
424 519 m 1
 496 519 l 1
 307 74 l 2
 229 -111 168 -184 65 -220 c 1
 31 -171 l 1
 115 -139 178 -75 220 18 c 1
 27 519 l 1
 100 519 l 1
 254 75 l 1
 424 519 l 1
EndSplineSet
EndChar

StartChar: z
Encoding: 122 122 223
Width: 492
GlyphClass: 2
Flags: MW
HStem: 0 50<142 447> 469 50<85 342 85 423>
VStem: 59 397<0 50 36 50>
LayerCount: 2
Fore
SplineSet
142 50 m 1
 456 50 l 1
 447 0 l 1
 59 0 l 1
 59 36 l 1
 342 469 l 1
 85 469 l 1
 85 519 l 1
 423 519 l 1
 423 485 l 1
 142 50 l 1
EndSplineSet
EndChar

StartChar: zacute
Encoding: 428 378 224
Width: 492
GlyphClass: 2
Flags: MW
HStem: 0 50<142 447> 469 50<85 342 85 423> 604 156<224 380 224 380>
VStem: 59 397<0 50 36 50>
LayerCount: 2
Fore
SplineSet
380 760 m 1
 265 604 l 1
 224 604 l 1
 302 760 l 1
 380 760 l 1
142 50 m 1
 456 50 l 1
 447 0 l 1
 59 0 l 1
 59 36 l 1
 342 469 l 1
 85 469 l 1
 85 519 l 1
 423 519 l 1
 423 485 l 1
 142 50 l 1
EndSplineSet
EndChar

StartChar: zcaron
Encoding: 429 382 225
Width: 492
GlyphClass: 2
Flags: MW
HStem: 0 50<142 447> 469 50<85 342 85 423> 604 47<258 258 258 284 227 258> 604 156<133 284 133 227>
VStem: 59 397<0 50 36 50>
LayerCount: 2
Fore
SplineSet
284 604 m 1xd8
 227 604 l 1
 133 760 l 1
 184 760 l 1xd8
 258 651 l 1xe8
 332 760 l 1
 378 760 l 1
 284 604 l 1xd8
142 50 m 1
 456 50 l 1
 447 0 l 1
 59 0 l 1
 59 36 l 1
 342 469 l 1
 85 469 l 1
 85 519 l 1
 423 519 l 1
 423 485 l 1
 142 50 l 1
EndSplineSet
EndChar

StartChar: zdotaccent
Encoding: 430 380 226
Width: 492
GlyphClass: 2
Flags: MW
HStem: 0 50<142 447> 469 50<85 342 85 423> 623.25 90.5
VStem: 223 64<627 710>
LayerCount: 2
Fore
SplineSet
287 627 m 1
 271 622 239 622 223 627 c 1
 223 710 l 1
 239 715 271 715 287 710 c 1
 287 627 l 1
142 50 m 1
 456 50 l 1
 447 0 l 1
 59 0 l 1
 59 36 l 1
 342 469 l 1
 85 469 l 1
 85 519 l 1
 423 519 l 1
 423 485 l 1
 142 50 l 1
EndSplineSet
EndChar

StartChar: fi
Encoding: 431 64257 227
Width: 603
GlyphClass: 3
Flags: MW
HStem: 1.15514 119
LayerCount: 2
Fore
SplineSet
130 605 m 0
 134 700 199 764 286 764 c 0
 317 764 348 754 365 738 c 1
 347 701 l 1
 331 708 315 712 296 712 c 0
 230 712 193 674 193 585 c 2
 193 518 l 1
 321 518 l 1
 313 469 l 1
 193 469 l 1
 193 0 l 1
 129 0 l 1
 129 469 l 1
 50 469 l 1
 50 518 l 1
 129 518 l 1
 129 532 l 2
 129 553 129 574 130 605 c 0
510 627 m 1
 494 622 462 622 446 627 c 1
 446 710 l 1
 462 715 494 715 510 710 c 1
 510 627 l 1
447 517 m 1
 511 526 l 1
 511 0 l 1
 447 0 l 1
 447 517 l 1
EndSplineSet
Ligature2: "'liga' Standard Ligatures in Latin lookup 1 subtable" f i
EndChar

StartChar: fl
Encoding: 432 64258 228
Width: 603
GlyphClass: 3
Flags: MW
HStem: 0 21G<129 193 129 129 447 447 447 511> 469 49<50 129 50 129 193 313> 712 52<263 301.5 242.5 305.5> 732 20G<447 447> 740 20G<511 511>
VStem: 129 64<0 469 0 469 518 532 532 542.5> 447 64<0 752 752 752>
LayerCount: 2
Fore
SplineSet
130 605 m 0xe6
 134 700 199 764 286 764 c 0xe6
 317 764 348 754 365 738 c 1xce
 347 701 l 1
 331 708 315 712 296 712 c 0
 230 712 193 674 193 585 c 2
 193 518 l 1
 321 518 l 1
 313 469 l 1
 193 469 l 1
 193 0 l 1
 129 0 l 1
 129 469 l 1
 50 469 l 1
 50 518 l 1
 129 518 l 1
 129 532 l 2
 129 553 129 574 130 605 c 0xe6
447 752 m 1xd6
 511 760 l 1xce
 511 0 l 1
 447 0 l 1
 447 752 l 1xd6
EndSplineSet
Ligature2: "'liga' Standard Ligatures in Latin lookup 1 subtable" f l
EndChar

StartChar: zero
Encoding: 48 48 229
Width: 560
Flags: MW
HStem: -14 56<224.5 335.5 224.5 360> 698 56<224.5 335.5>
VStem: 53 68<268.5 472 268.5 484.5> 439 68<268.5 472>
LayerCount: 2
Fore
SplineSet
280 754 m 0
 442 754 507 599 507 370 c 0
 507 141 440 -14 280 -14 c 0
 118 -14 53 141 53 370 c 0
 53 599 120 754 280 754 c 0
280 42 m 0
 391 42 439 167 439 370 c 0
 439 574 391 698 280 698 c 0
 169 698 121 574 121 370 c 0
 121 167 169 42 280 42 c 0
EndSplineSet
EndChar

StartChar: one
Encoding: 49 49 230
Width: 560
Flags: MW
HStem: 0 21G<327 392 327 327> 726 20G<339 392 392 392>
VStem: 327 65<0 672 672 672>
LayerCount: 2
Fore
SplineSet
339 746 m 1
 392 746 l 1
 392 0 l 1
 327 0 l 1
 327 672 l 1
 130 582 l 1
 107 626 l 1
 339 746 l 1
EndSplineSet
EndChar

StartChar: two
Encoding: 50 50 231
Width: 560
Flags: MW
HStem: 0 55.5 698 56<234.5 299>
VStem: 398 71<538 617>
LayerCount: 2
Fore
SplineSet
155 56 m 1
 496 55 l 1
 488 0 l 1
 59 0 l 1
 59 29 l 1
 263 305 l 2
 356 429 398 500 398 574 c 0
 398 660 339 698 259 698 c 0
 204 698 160 679 111 645 c 1
 86 686 l 1
 134 727 197 754 272 754 c 0
 392 754 469 688 469 577 c 0
 469 499 430 431 316 277 c 2
 155 56 l 1
EndSplineSet
EndChar

StartChar: three
Encoding: 51 51 232
Width: 560
Flags: MW
HStem: -14 56<198 283 198 293> 370 55<170 255 170 170> 698 56<235.5 298.5>
VStem: 403 69<538.5 613> 421 71<162 251.5 139.5 259.5>
LayerCount: 2
Fore
SplineSet
341 404 m 1xe8
 461 375 492 288 492 215 c 0
 492 64 360 -14 226 -14 c 0
 162 -14 99 0 56 33 c 1
 76 76 l 1
 122 52 171 42 225 42 c 0
 341 42 421 108 421 216 c 0xe8
 421 303 371 370 255 370 c 2
 170 370 l 1
 169 425 l 1
 268 425 l 2
 351 425 403 494 403 570 c 0
 403 656 340 698 257 698 c 0
 209 698 159 685 110 654 c 1
 88 696 l 1
 138 734 201 754 270 754 c 0
 384 754 472 690 472 577 c 0xf0
 472 500 426 432 341 404 c 1xe8
EndSplineSet
EndChar

StartChar: four
Encoding: 52 52 233
Width: 560
Flags: MW
HStem: 0 21G<366 431 366 366> 215.5 55.5 721 20G<373 431 431 431>
VStem: 366 65<0 216 0 216 271 640 640 640>
LayerCount: 2
Fore
SplineSet
533 271 m 1
 525 216 l 1
 431 216 l 1
 431 0 l 1
 366 0 l 1
 366 216 l 1
 32 215 l 1
 32 243 l 1
 373 741 l 1
 431 741 l 1
 431 271 l 1
 533 271 l 1
366 640 m 1
 116 271 l 1
 366 271 l 1
 366 640 l 1
EndSplineSet
EndChar

StartChar: five
Encoding: 53 53 234
Width: 560
Flags: MW
HStem: -14 56<205.5 288.5 205.5 298.5> 395 55<179 203 132 222> 686 55<206 474 206 206>
VStem: 416 71<165 215>
LayerCount: 2
Fore
SplineSet
222 450 m 2
 372 450 487 379 487 223 c 0
 487 70 364 -14 233 -14 c 0
 166 -14 110 2 65 33 c 1
 87 76 l 1
 134 52 177 42 234 42 c 0
 343 42 416 115 416 215 c 0
 417 330 348 395 203 395 c 2
 132 395 l 1
 115 410 l 1
 154 741 l 1
 482 741 l 1
 474 686 l 1
 206 686 l 1
 179 450 l 1
 222 450 l 2
EndSplineSet
EndChar

StartChar: six
Encoding: 54 54 235
Width: 560
Flags: MW
HStem: -14 56<244.5 338.5 244.5 353> 398 57<266 332.5> 698 56<281.5 377.5>
VStem: 57 68<206 290.5 206 430.5> 446 71<169.5 281.5>
LayerCount: 2
Fore
SplineSet
301 455 m 0
 429 455 517 365 517 230 c 0
 517 82 417 -14 289 -14 c 0
 153 -14 57 82 57 327 c 0
 57 534 126 754 350 754 c 0
 410 754 462 739 493 713 c 1
 472 671 l 1
 431 691 397 698 358 698 c 0
 205 698 135 562 127 380 c 1
 168 431 231 455 301 455 c 0
295 42 m 0
 382 42 446 113 446 226 c 0
 446 337 378 398 287 398 c 0
 217 398 166 373 126 319 c 1
 125 308 125 297 125 284 c 0
 125 128 194 42 295 42 c 0
EndSplineSet
EndChar

StartChar: seven
Encoding: 55 55 236
Width: 560
Flags: MW
HStem: 0 21G<145 215 145 145> 685 55<75 457 67 540>
VStem: 67 473<685 740>
LayerCount: 2
Fore
SplineSet
75 740 m 1
 540 740 l 1
 540 709 l 1
 380 493 271 239 215 0 c 1
 145 0 l 1
 218 263 309 481 457 685 c 1
 67 685 l 1
 75 740 l 1
EndSplineSet
EndChar

StartChar: eight
Encoding: 56 56 237
Width: 560
Flags: MW
HStem: -14 55<234.5 323 234.5 340> 699 55<256 336>
VStem: 54 69<146 234> 94 68<538.5 607 538.5 619.5> 424 68<536 603.5> 438 69<138.5 224>
LayerCount: 2
Fore
SplineSet
356 387 m 1xe4
 445 345 507 283 507 187 c 0
 507 68 407 -14 273 -14 c 0
 148 -14 54 55 54 186 c 0xe4
 54 282 115 356 208 394 c 1
 136 433 94 490 94 568 c 0
 94 671 179 754 298 754 c 0
 421 754 492 672 492 575 c 0xd8
 492 494 443 427 356 387 c 1xe4
162 571 m 0xd8
 162 506 198 451 302 409 c 1
 386 444 424 504 424 568 c 0
 424 639 377 699 295 699 c 0
 217 699 162 643 162 571 c 0xd8
280 41 m 0xe4
 366 41 438 92 438 185 c 0
 438 263 392 311 253 373 c 1
 172 334 123 279 123 197 c 0
 123 95 189 41 280 41 c 0xe4
EndSplineSet
EndChar

StartChar: nine
Encoding: 57 57 238
Width: 560
Flags: MW
HStem: -14 56<183 278 183 322.5> 286 56<227.5 294> 698 56<222 315.5>
VStem: 43 71<458.5 570.5 458.5 584> 435 68<450.5 534.5>
LayerCount: 2
Fore
SplineSet
271 754 m 0
 407 754 503 658 503 413 c 0
 503 206 434 -14 211 -14 c 0
 150 -14 99 1 67 27 c 1
 88 69 l 1
 130 49 164 42 202 42 c 0
 354 42 424 178 432 360 c 1
 391 309 329 286 259 286 c 0
 131 286 43 375 43 510 c 0
 43 658 143 754 271 754 c 0
273 342 m 0
 344 342 394 367 434 421 c 1
 435 433 435 444 435 457 c 0
 435 612 366 698 265 698 c 0
 179 698 114 627 114 514 c 0
 114 403 182 342 273 342 c 0
EndSplineSet
EndChar

StartChar: fraction
Encoding: 433 8260 239
Width: 602
Flags: MW
HStem: 730 20G<593 662 662 662>
VStem: -60 722
LayerCount: 2
Fore
SplineSet
-60 -30 m 1
 593 750 l 1
 662 750 l 1
 9 -30 l 1
 -60 -30 l 1
EndSplineSet
EndChar

StartChar: asterisk
Encoding: 42 42 240
Width: 553
Flags: MW
HStem: 82 394<179 308 252 381>
VStem: 255.5 49
LayerCount: 2
Fore
SplineSet
179 82 m 1
 133 116 l 1
 245 257 l 1
 80 302 l 1
 98 356 l 1
 259 294 l 1
 252 476 l 1
 308 476 l 1
 301 294 l 1
 462 356 l 1
 480 302 l 1
 315 257 l 1
 427 116 l 1
 381 82 l 1
 280 236 l 1
 179 82 l 1
EndSplineSet
EndChar

StartChar: backslash
Encoding: 92 92 241
Width: 339
Flags: MW
HStem: 730 20G<31 85 85 85>
VStem: 31 277
LayerCount: 2
Fore
SplineSet
308 -30 m 1
 254 -30 l 1
 31 750 l 1
 85 750 l 1
 308 -30 l 1
EndSplineSet
EndChar

StartChar: periodcentered
Encoding: 434 183 242
Width: 204
Flags: MW
HStem: 208 115<64 133 64 133>
VStem: 64 69<208 323 208 323>
LayerCount: 2
Fore
SplineSet
64 208 m 1
 64 323 l 1
 81 328 116 328 133 323 c 1
 133 208 l 1
 116 204 81 204 64 208 c 1
EndSplineSet
EndChar

StartChar: bullet
Encoding: 435 8226 243
Width: 265
Flags: MW
HStem: 224 163<84 182 84 182>
VStem: 84 98<224 387 224 387>
LayerCount: 2
Fore
SplineSet
84 224 m 1
 84 387 l 1
 109 393 156 393 182 387 c 1
 182 224 l 1
 156 218 109 218 84 224 c 1
EndSplineSet
EndChar

StartChar: colon
Encoding: 58 58 244
Width: 249
Flags: MW
HStem: -5 118 -2 115<69 138 69 138> 404 115<69 138 69 138> 404 118
VStem: 69 69<-2 113 -2 113 404 519>
LayerCount: 2
Fore
SplineSet
69 404 m 1x68
 69 519 l 1x58
 86 523 121 523 138 519 c 1
 138 404 l 1
 121 399 86 399 69 404 c 1x68
69 -2 m 1
 69 113 l 1
 86 118 121 118 138 113 c 1x68
 138 -2 l 1xa8
 121 -6 86 -6 69 -2 c 1
EndSplineSet
EndChar

StartChar: comma
Encoding: 44 44 245
Width: 249
Flags: MW
HStem: -164 279
VStem: 78 65
LayerCount: 2
Fore
SplineSet
3 -164 m 1
 60 -76 86 0 78 103 c 1
 94 110 126 116 143 115 c 1
 153 2 121 -77 55 -164 c 1
 3 -164 l 1
EndSplineSet
EndChar

StartChar: ellipsis
Encoding: 436 8230 246
Width: 643
Flags: MW
HStem: -3.75 118.75 0 115<69 138 69 138 265 334 461 530>
VStem: 69 69<0 115 0 115> 265 69<0 115 0 115> 461 69<0 115 0 115>
LayerCount: 2
Fore
SplineSet
265 0 m 1x78
 265 115 l 1
 282 120 317 120 334 115 c 1x78
 334 0 l 1xb8
 317 -5 282 -5 265 0 c 1x78
461 0 m 1
 461 115 l 1
 479 120 513 120 530 115 c 1x78
 530 0 l 1xb8
 513 -5 479 -5 461 0 c 1
69 0 m 1
 69 115 l 1
 86 120 121 120 138 115 c 1x78
 138 0 l 1xb8
 121 -5 86 -5 69 0 c 1
EndSplineSet
EndChar

StartChar: exclam
Encoding: 33 33 247
Width: 251
Flags: MW
HStem: -3.75 118.75 0 115<87 156 87 156> 720 20G<88 164 164 164>
VStem: 87 69<0 115 0 115> 92 67.5
LayerCount: 2
Fore
SplineSet
96 210 m 1x68
 88 740 l 1
 164 740 l 1
 155 210 l 1
 96 210 l 1x68
87 0 m 1x70
 87 115 l 1
 105 120 139 120 156 115 c 1x70
 156 0 l 1xb0
 139 -5 105 -5 87 0 c 1x70
EndSplineSet
EndChar

StartChar: exclamdown
Encoding: 437 161 248
Width: 251
Flags: MW
HStem: 404 115<95 164 95 164> 404 118.75
VStem: 92 67.5 95 69<404 519>
LayerCount: 2
Fore
SplineSet
164 519 m 1x90
 164 404 l 1
 146 399 112 399 95 404 c 1x90
 95 519 l 1x50
 112 524 146 524 164 519 c 1x90
155 309 m 1xa0
 164 -222 l 1
 88 -222 l 1
 96 309 l 1
 155 309 l 1xa0
EndSplineSet
EndChar

StartChar: numbersign
Encoding: 35 35 249
Width: 560
Flags: MW
HStem: 0 21G<103 156 103 103 254 307 254 254> 247 47<71 154 71 164 217 305 71 207 368 464> 397 47<96 185 96 195 96 238 248 337 399 489>
VStem: 71 418<247 397 294 397>
LayerCount: 2
Fore
SplineSet
489 397 m 1
 389 397 l 1
 368 294 l 1
 464 294 l 1
 464 247 l 1
 358 247 l 1
 307 0 l 1
 254 0 l 1
 305 247 l 1
 207 247 l 1
 156 0 l 1
 103 0 l 1
 154 247 l 1
 71 247 l 1
 71 294 l 1
 164 294 l 1
 185 397 l 1
 96 397 l 1
 96 444 l 1
 195 444 l 1
 246 690 l 1
 299 690 l 1
 248 444 l 1
 346 444 l 1
 397 690 l 1
 450 690 l 1
 399 444 l 1
 489 444 l 1
 489 397 l 1
315 294 m 1
 337 397 l 1
 238 397 l 1
 217 294 l 1
 315 294 l 1
EndSplineSet
EndChar

StartChar: period
Encoding: 46 46 250
Width: 251
Flags: MW
HStem: -3.75 118.75 0 115<69 138 69 138>
VStem: 69 69<0 115 0 115>
LayerCount: 2
Fore
SplineSet
69 0 m 1x60
 69 115 l 1
 86 120 121 120 138 115 c 1x60
 138 0 l 1xa0
 121 -5 86 -5 69 0 c 1x60
EndSplineSet
EndChar

StartChar: question
Encoding: 63 63 251
Width: 467
Flags: MW
HStem: -3.75 118.75 0 115<166 235 166 235> 698 56<178.5 245.5>
VStem: 166 69<0 115 0 115> 173 63<210 335 210 374 210 374> 356 69<502 602.5>
LayerCount: 2
Fore
SplineSet
425 556 m 0x6c
 425 448 345 364 236 335 c 1
 236 210 l 1
 173 210 l 1
 173 374 l 1
 269 388 356 445 356 553 c 0
 356 652 286 698 205 698 c 0
 148 698 97 676 55 639 c 1
 26 683 l 1
 76 728 145 754 212 754 c 0
 338 754 425 681 425 556 c 0x6c
166 115 m 1x74
 183 120 218 120 235 115 c 1x74
 235 0 l 1xb4
 218 -5 183 -5 166 0 c 1
 166 115 l 1x74
EndSplineSet
EndChar

StartChar: questiondown
Encoding: 438 191 252
Width: 425
Flags: MW
HStem: -236 57<221 288.5> 404 115<232 301 232 301> 404 118.75
VStem: 42 69<-84.5 16.5> 231 63<183 309 145 309> 232 69<404 519>
LayerCount: 2
Fore
SplineSet
301 404 m 1xd4
 284 399 249 399 232 404 c 1xd4
 232 519 l 1xb4
 249 524 284 524 301 519 c 1
 301 404 l 1xd4
412 -121 m 1xd8
 440 -164 l 1
 390 -209 322 -236 255 -236 c 0
 129 -236 42 -163 42 -38 c 0
 42 71 122 155 231 183 c 1
 231 309 l 1
 294 309 l 1
 294 145 l 1
 198 130 111 74 111 -35 c 0
 111 -134 180 -179 262 -179 c 0
 319 -179 369 -158 412 -121 c 1xd8
EndSplineSet
EndChar

StartChar: quotedbl
Encoding: 34 34 253
Width: 276
Flags: MW
HStem: 455 265<44 44 44 98 178 178 178 232>
VStem: 41.5 59 175.5 59
LayerCount: 2
Fore
SplineSet
178 455 m 1
 173 720 l 1
 190 725 220 725 237 720 c 1
 232 455 l 1
 178 455 l 1
44 455 m 1
 39 720 l 1
 56 725 86 725 103 720 c 1
 98 455 l 1
 44 455 l 1
EndSplineSet
EndChar

StartChar: quotesingle
Encoding: 39 39 254
Width: 142
Flags: MW
HStem: 455 265<44 44 44 98>
VStem: 41.5 59
LayerCount: 2
Fore
SplineSet
44 455 m 1
 39 720 l 1
 56 725 86 725 103 720 c 1
 98 455 l 1
 44 455 l 1
EndSplineSet
EndChar

StartChar: semicolon
Encoding: 59 59 255
Width: 249
Flags: MW
HStem: 404 115<68 137 68 137> 404 118
VStem: 68 69<404 519 404 519> 71 66
LayerCount: 2
Fore
SplineSet
68 404 m 1xa0
 68 519 l 1x60
 85 523 119 523 137 519 c 1
 137 404 l 1
 119 399 85 399 68 404 c 1xa0
-4 -164 m 1x90
 53 -76 79 0 71 103 c 1
 87 110 119 116 137 115 c 1
 146 2 114 -77 48 -164 c 1
 -4 -164 l 1x90
EndSplineSet
EndChar

StartChar: slash
Encoding: 47 47 256
Width: 339
Flags: MW
HStem: 730 20G<254 308 308 308>
VStem: 31 277
LayerCount: 2
Fore
SplineSet
31 -30 m 1
 254 750 l 1
 308 750 l 1
 85 -30 l 1
 31 -30 l 1
EndSplineSet
EndChar

StartChar: underscore
Encoding: 95 95 257
Width: 500
Flags: MW
HStem: -77 49<92 408 92 408>
VStem: 92 316<-77 -28 -77 -28>
LayerCount: 2
Fore
SplineSet
92 -77 m 1
 92 -28 l 1
 408 -28 l 1
 408 -77 l 1
 92 -77 l 1
EndSplineSet
EndChar

StartChar: braceleft
Encoding: 123 123 258
Width: 324
Flags: MW
HStem: -89 49<274 275 275 286> 706 49<251.5 286 275 286 275 286>
VStem: 151 53<6 36.5 629.5 660> 166 53<212 249.5 416.5 454>
LayerCount: 2
Fore
SplineSet
274 706 m 2xe0
 229 706 204 684 204 636 c 0xe0
 204 621 205 603 210 558 c 0
 216 506 219 475 219 444 c 0
 219 379 191 340 140 333 c 1
 191 326 219 287 219 222 c 0xd0
 219 191 216 160 210 108 c 0
 205 63 204 45 204 30 c 0
 204 -18 232 -41 274 -40 c 2
 286 -40 l 1
 286 -89 l 1
 275 -89 l 2
 196 -89 151 -59 151 26 c 0xe0
 151 47 152 67 158 118 c 0
 164 173 166 200 166 224 c 0
 166 275 147 302 87 308 c 1
 87 358 l 1
 147 364 166 391 166 442 c 0xd0
 166 466 164 493 158 548 c 0
 152 599 151 619 151 640 c 0
 151 725 196 755 275 755 c 2
 286 755 l 1
 286 706 l 1
 274 706 l 2xe0
EndSplineSet
EndChar

StartChar: braceright
Encoding: 125 125 259
Width: 324
Flags: MW
HStem: -89 49<38 49 38 50> 706 49<38 49 49 50 38 49>
VStem: 105 52<212 249.5 212 254.5 416.5 454> 120 52<6 36.5 -16.5 37.5 629.5 660>
LayerCount: 2
Fore
SplineSet
157 442 m 0xe0
 157 391 176 364 236 358 c 1
 236 308 l 1
 176 302 157 275 157 224 c 0xe0
 157 200 159 173 165 118 c 0
 171 67 172 47 172 26 c 0
 172 -59 127 -89 49 -89 c 2
 38 -89 l 1
 38 -40 l 1
 50 -40 l 2
 94 -40 120 -18 120 30 c 0xd0
 120 45 119 63 114 108 c 0
 108 160 105 191 105 222 c 0
 105 287 132 326 183 333 c 1
 132 340 105 379 105 444 c 0xe0
 105 475 108 506 114 558 c 0
 119 603 120 621 120 636 c 0
 120 684 91 707 50 706 c 2
 38 706 l 1
 38 755 l 1
 49 755 l 2
 127 755 172 725 172 640 c 0xd0
 172 619 171 599 165 548 c 0
 159 493 157 466 157 442 c 0xe0
EndSplineSet
EndChar

StartChar: bracketleft
Encoding: 91 91 260
Width: 333
Flags: MW
HStem: -80 49<170 288 170 288> 697 49<118 288 170 288 170 170>
VStem: 118 52<-31 697 -31 697 -31 746 -31 746>
LayerCount: 2
Fore
SplineSet
288 697 m 1
 170 697 l 1
 170 -31 l 1
 288 -31 l 1
 288 -80 l 1
 118 -80 l 1
 118 697 l 1
 118 746 l 1
 288 746 l 1
 288 697 l 1
EndSplineSet
EndChar

StartChar: bracketright
Encoding: 93 93 261
Width: 333
Flags: MW
HStem: -80 49<45 163 45 215 45 163> 697 49<45 163 45 215>
VStem: 163 52<-31 697 697 697>
LayerCount: 2
Fore
SplineSet
215 746 m 1
 215 -31 l 1
 215 -80 l 1
 45 -80 l 1
 45 -31 l 1
 163 -31 l 1
 163 697 l 1
 45 697 l 1
 45 746 l 1
 215 746 l 1
EndSplineSet
EndChar

StartChar: parenleft
Encoding: 40 40 262
Width: 339
Flags: MW
HStem: 740 20G<253 253>
VStem: 98 54<243.5 436.5 243.5 449>
LayerCount: 2
Fore
SplineSet
253 -80 m 1
 161 13 98 122 98 340 c 0
 98 558 161 667 253 760 c 1
 295 732 l 1
 207 633 152 533 152 340 c 0
 152 147 208 43 295 -52 c 1
 253 -80 l 1
EndSplineSet
EndChar

StartChar: parenright
Encoding: 41 41 263
Width: 339
Flags: MW
HStem: 740 20G<86 86>
VStem: 187 54<243.5 436.5>
LayerCount: 2
Fore
SplineSet
86 760 m 1
 178 667 241 558 241 340 c 0
 241 122 178 13 86 -80 c 1
 44 -52 l 1
 131 47 187 147 187 340 c 0
 187 533 131 637 44 732 c 1
 86 760 l 1
EndSplineSet
EndChar

StartChar: emdash
Encoding: 439 8212 264
Width: 1000
Flags: MW
HStem: 266 49<92 908 92 908>
VStem: 92 816<266 315 266 315>
LayerCount: 2
Fore
SplineSet
92 266 m 1
 92 315 l 1
 908 315 l 1
 908 266 l 1
 92 266 l 1
EndSplineSet
EndChar

StartChar: endash
Encoding: 440 8211 265
Width: 500
Flags: MW
HStem: 266 49<92 408 92 408>
VStem: 92 316<266 315 266 315>
LayerCount: 2
Fore
SplineSet
92 266 m 1
 92 315 l 1
 408 315 l 1
 408 266 l 1
 92 266 l 1
EndSplineSet
EndChar

StartChar: hyphen
Encoding: 45 45 266
Width: 388
Flags: MW
HStem: 266 49<92 296 92 296>
VStem: 92 204<266 315 266 315>
LayerCount: 2
Fore
SplineSet
92 266 m 1
 92 315 l 1
 296 315 l 1
 296 266 l 1
 92 266 l 1
EndSplineSet
EndChar

StartChar: guillemotleft
Encoding: 441 171 267
Width: 503
Flags: MW
HStem: 84 328<237 237 237 419>
VStem: 76 376<108 248>
LayerCount: 2
Fore
SplineSet
237 84 m 1
 76 248 l 1
 237 412 l 1
 269 388 l 1
 142 248 l 1
 269 108 l 1
 237 84 l 1
419 84 m 1
 258 248 l 1
 419 412 l 1
 452 388 l 1
 324 248 l 1
 452 108 l 1
 419 84 l 1
EndSplineSet
EndChar

StartChar: guillemotright
Encoding: 442 187 268
Width: 503
Flags: MW
HStem: 84 328<84 84 84 267>
VStem: 51 377<108 248 248 388>
LayerCount: 2
Fore
SplineSet
84 412 m 1
 245 248 l 1
 84 84 l 1
 51 108 l 1
 179 248 l 1
 51 388 l 1
 84 412 l 1
267 412 m 1
 428 248 l 1
 267 84 l 1
 234 108 l 1
 362 248 l 1
 234 388 l 1
 267 412 l 1
EndSplineSet
EndChar

StartChar: guilsinglleft
Encoding: 443 8249 269
Width: 320
Flags: MW
HStem: 84 328<237 237>
VStem: 76 193<108 248>
LayerCount: 2
Fore
SplineSet
237 84 m 1
 76 248 l 1
 237 412 l 1
 269 388 l 1
 142 248 l 1
 269 108 l 1
 237 84 l 1
EndSplineSet
EndChar

StartChar: guilsinglright
Encoding: 444 8250 270
Width: 320
Flags: MW
HStem: 84 328<84 84>
VStem: 51 194<108 248 248 388>
LayerCount: 2
Fore
SplineSet
84 412 m 1
 245 248 l 1
 84 84 l 1
 51 108 l 1
 179 248 l 1
 51 388 l 1
 84 412 l 1
EndSplineSet
EndChar

StartChar: quotedblbase
Encoding: 445 8222 271
Width: 392
Flags: MW
HStem: -164 279
VStem: 78 65 222 65
LayerCount: 2
Fore
SplineSet
147 -164 m 1
 204 -76 229 0 222 103 c 1
 238 110 269 116 287 115 c 1
 296 2 265 -77 199 -164 c 1
 147 -164 l 1
3 -164 m 1
 60 -76 86 0 78 103 c 1
 94 110 126 116 143 115 c 1
 153 2 121 -77 55 -164 c 1
 3 -164 l 1
EndSplineSet
EndChar

StartChar: quotedblleft
Encoding: 446 8220 272
Width: 362
Flags: MW
HStem: 720 20G<155 206 206 206 298 349 349 349>
VStem: 66 66 209 66
LayerCount: 2
Fore
SplineSet
206 740 m 1
 150 652 124 576 132 473 c 1
 116 466 84 460 66 461 c 1
 57 574 89 653 155 740 c 1
 206 740 l 1
349 740 m 1
 293 652 267 576 275 473 c 1
 259 466 227 460 209 461 c 1
 200 574 232 653 298 740 c 1
 349 740 l 1
EndSplineSet
EndChar

StartChar: quotedblright
Encoding: 447 8221 273
Width: 362
Flags: MW
HStem: 734 20G
VStem: 87 66 231 65
LayerCount: 2
Fore
SplineSet
156 475 m 1
 213 563 239 639 231 742 c 1
 247 749 279 755 296 754 c 1
 306 641 274 562 208 475 c 1
 156 475 l 1
13 475 m 1
 70 563 95 639 87 742 c 1
 103 749 135 755 153 754 c 1
 162 641 130 562 64 475 c 1
 13 475 l 1
EndSplineSet
EndChar

StartChar: quoteleft
Encoding: 448 8216 274
Width: 219
Flags: MW
HStem: 720 20G<154 206 206 206>
VStem: 66 65
LayerCount: 2
Fore
SplineSet
206 740 m 1
 149 651 124 576 131 473 c 1
 115 465 84 460 66 461 c 1
 57 573 88 653 154 740 c 1
 206 740 l 1
EndSplineSet
EndChar

StartChar: quoteright
Encoding: 449 8217 275
Width: 219
Flags: MW
HStem: 734 20G
VStem: 87 66
LayerCount: 2
Fore
SplineSet
13 475 m 1
 70 563 95 639 87 742 c 1
 103 749 135 755 153 754 c 1
 162 641 130 562 64 475 c 1
 13 475 l 1
EndSplineSet
EndChar

StartChar: quotesinglbase
Encoding: 450 8218 276
Width: 249
Flags: MW
HStem: -164 279
VStem: 78 65
LayerCount: 2
Fore
SplineSet
3 -164 m 1
 60 -76 86 0 78 103 c 1
 94 110 126 116 143 115 c 1
 153 2 121 -77 55 -164 c 1
 3 -164 l 1
EndSplineSet
EndChar

StartChar: cent
Encoding: 451 162 278
Width: 560
GlyphClass: 2
Flags: MW
HStem: 23 51<272 272 325 325> 480 53<328.5 345> 509 20G<275 275> 513 20G<328.5 352>
VStem: 82 67<207.5 346> 272 53<-64 23 -64 23> 275 53<532 620 532 620 532 620>
LayerCount: 2
Fore
SplineSet
442 103 m 1xca
 454 56 l 1
 411 35 374 25 325 23 c 1
 325 -64 l 1
 272 -64 l 1
 272 23 l 1xcc
 155 32 82 108 82 271 c 0
 82 421 152 510 275 529 c 1
 275 620 l 1
 328 620 l 1xaa
 328 532 l 1
 328 532 328 533 329 533 c 0xca
 375 533 420 525 455 512 c 1x9a
 445 463 l 1
 405 476 366 480 324 480 c 0
 214 480 149 417 149 277 c 0
 149 138 204 74 309 74 c 0
 354 74 392 82 442 103 c 1xca
EndSplineSet
EndChar

StartChar: currency
Encoding: 452 164 279
Width: 560
GlyphClass: 2
Flags: MW
HStem: 121 45<258.5 300> 437 44<258.5 300 258.5 317>
VStem: 101 48<280 322.5> 410 48<280 322 280 340>
LayerCount: 2
Fore
SplineSet
458 301 m 0
 458 259 444 220 421 190 c 1
 480 131 l 1
 448 100 l 1
 390 158 l 1
 359 135 321 121 279 121 c 0
 238 121 200 135 169 158 c 1
 111 100 l 1
 79 132 l 1
 138 190 l 1
 115 220 101 259 101 301 c 0
 101 344 115 382 138 413 c 1
 79 472 l 1
 111 503 l 1
 170 444 l 1
 200 467 238 481 279 481 c 0
 321 481 359 467 389 444 c 1
 448 503 l 1
 480 472 l 1
 421 412 l 1
 444 382 458 343 458 301 c 0
279 166 m 0
 355 166 410 223 410 301 c 0
 410 379 355 437 279 437 c 0
 204 437 149 379 149 301 c 0
 149 223 204 166 279 166 c 0
EndSplineSet
EndChar

StartChar: dollar
Encoding: 36 36 280
Width: 560
GlyphClass: 2
Flags: MW
HStem: 23 60<250 250> 651 59<308 335>
VStem: 107 68<514.5 578 514.5 582> 250 52<-68 23 23 23> 255 53<710 802 710 802 710 802> 407 70<158 222.5>
LayerCount: 2
Fore
SplineSet
477 197 m 0xec
 477 102 402 39 302 26 c 1
 302 -68 l 1
 250 -68 l 1
 250 23 l 1xf4
 188 25 128 43 83 75 c 1
 109 123 l 1
 146 99 204 83 263 83 c 0
 343 83 407 121 407 195 c 0
 407 250 371 284 269 343 c 0
 164 404 107 447 107 540 c 0
 107 624 170 687 255 705 c 1
 255 802 l 1
 308 802 l 1
 308 710 l 1
 370 710 425 696 464 671 c 1
 443 624 l 1
 398 643 362 651 308 651 c 0
 233 651 175 611 175 545 c 0
 175 484 214 449 302 400 c 0
 435 326 477 277 477 197 c 0xec
EndSplineSet
EndChar

StartChar: Euro
Encoding: 453 8364 281
Width: 560
GlyphClass: 2
Flags: MW
HStem: -15 56<311 383.5> 276 50<32 99 32 101 24 99 172 408 172 172> 415 50<50 100 42 105 174 426> 698 55<313.5 392>
VStem: 98 70<356.5 366>
LayerCount: 2
Fore
SplineSet
172 276 m 1
 189 103 258 41 364 41 c 0
 418 41 471 55 516 81 c 1
 512 25 l 1
 462 -5 411 -15 356 -15 c 0
 217 -15 120 62 101 276 c 1
 24 276 l 1
 32 326 l 1
 99 326 l 1
 98 336 98 346 98 356 c 0
 98 376 99 396 100 415 c 1
 42 415 l 1
 50 465 l 1
 105 465 l 1
 130 660 227 753 369 753 c 0
 437 753 491 732 525 701 c 1
 504 655 l 1
 469 681 417 698 367 698 c 0
 260 698 193 622 174 465 c 1
 435 465 l 1
 426 415 l 1
 170 415 l 1
 169 398 168 381 168 363 c 0
 168 350 169 338 169 326 c 1
 415 326 l 1
 408 276 l 1
 172 276 l 1
EndSplineSet
EndChar

StartChar: sterling
Encoding: 454 163 282
Width: 560
GlyphClass: 2
Flags: MW
HStem: 0 55<166 511 166 511> 328 50<64 156 64 164 64 156 236 236 236 422> 697 56<308.5 373.5>
VStem: 140 70<510.5 590.5 509 595> 180 70<172.5 210.5>
LayerCount: 2
Fore
SplineSet
166 55 m 1xe8
 511 55 l 1
 511 0 l 1
 55 0 l 1
 55 31 l 1
 134 58 180 120 180 195 c 0
 180 226 175 265 164 328 c 1xe8
 64 328 l 1
 64 378 l 1
 156 378 l 1
 145 440 140 486 140 535 c 0
 140 655 210 753 347 753 c 0
 413 753 458 735 492 700 c 1
 470 659 l 1
 430 685 396 697 351 697 c 0
 266 697 210 645 210 536 c 0
 210 482 215 448 227 378 c 1xf0
 422 378 l 1
 422 328 l 1
 236 328 l 1
 244 278 250 238 250 203 c 0
 250 142 225 84 166 55 c 1xe8
EndSplineSet
EndChar

StartChar: yen
Encoding: 455 165 283
Width: 560
GlyphClass: 2
Flags: MW
HStem: 0 21G<239 304 239 239> 193 50<91 239 91 239 304 460> 326 50<91 214 91 239 91 214 333 460> 720 20G<26 104 104 104 462 535 535 535>
VStem: 239 65<0 193 0 193 243 324>
LayerCount: 2
Fore
SplineSet
535 740 m 1
 333 376 l 1
 460 376 l 1
 460 326 l 1
 305 326 l 1
 304 324 l 1
 304 243 l 1
 460 243 l 1
 460 193 l 1
 304 193 l 1
 304 0 l 1
 239 0 l 1
 239 193 l 1
 91 193 l 1
 91 243 l 1
 239 243 l 1
 239 326 l 1
 91 326 l 1
 91 376 l 1
 214 376 l 1
 26 740 l 1
 104 740 l 1
 275 371 l 1
 462 740 l 1
 535 740 l 1
EndSplineSet
EndChar

StartChar: approxequal
Encoding: 456 8776 284
Width: 587
GlyphClass: 2
Flags: MW
HStem: 174 48<383 400 383 413> 249 48<192 209> 306 48<383 400 383 413> 381 48<192 209>
VStem: 116 360<220 251 251 352>
LayerCount: 2
Fore
SplineSet
391 306 m 0
 362 306 339 314 283 347 c 0
 242 371 218 381 200 381 c 0
 184 381 171 371 156 336 c 1
 116 352 l 1
 133 403 157 429 201 429 c 0x58
 230 429 253 420 309 388 c 0
 350 364 374 354 392 354 c 0
 408 354 421 364 436 399 c 1
 476 383 l 1
 459 332 435 306 391 306 c 0
391 174 m 0xd8
 362 174 339 183 283 215 c 0
 242 239 218 249 200 249 c 0
 184 249 171 239 156 204 c 1
 116 220 l 1
 133 271 157 297 201 297 c 0x58
 230 297 253 289 309 256 c 0
 350 232 374 222 392 222 c 0
 408 222 421 232 436 267 c 1
 476 251 l 1
 459 200 435 174 391 174 c 0xd8
EndSplineSet
EndChar

StartChar: asciitilde
Encoding: 126 126 285
Width: 592
GlyphClass: 2
Flags: MW
HStem: 227 52<387.5 414 387.5 428.5> 300 52<165 191.5>
VStem: 85 49<235 258.5 235 279> 445 50<320.5 344>
LayerCount: 2
Fore
SplineSet
397 227 m 0
 363 227 328 239 273 267 c 0
 228 290 204 300 179 300 c 0
 151 300 134 282 134 235 c 1
 85 235 l 1
 85 323 119 352 182 352 c 0x70
 216 352 250 340 306 312 c 0
 351 290 375 279 400 279 c 0
 428 279 445 297 445 344 c 1
 495 344 l 1
 495 256 460 227 397 227 c 0
EndSplineSet
EndChar

StartChar: divide
Encoding: 457 247 286
Width: 600
GlyphClass: 2
Flags: MW
HStem: 85 103<257 326 257 326> 274 50<80 500 80 500> 410 103<257 326 257 326>
VStem: 257 69<85 188 85 188 410 513>
LayerCount: 2
Fore
SplineSet
257 410 m 1
 257 513 l 1
 274 518 309 518 326 513 c 1
 326 410 l 1
 309 405 274 405 257 410 c 1
80 274 m 1
 80 324 l 1
 500 324 l 1
 500 274 l 1
 80 274 l 1
257 85 m 1
 257 188 l 1
 274 193 309 193 326 188 c 1
 326 85 l 1
 309 81 274 81 257 85 c 1
EndSplineSet
EndChar

StartChar: emptyset
Encoding: 458 8709 287
Width: 838
GlyphClass: 2
Flags: MW
HStem: -27 45<376.5 510.5 376.5 523.5> -7 21G<89 89> 692 45<328 461.5>
VStem: 43 48<313 449 313 462> 747 48<260.5 397>
LayerCount: 2
Fore
SplineSet
703 607 m 1xb8
 760 540 795 452 795 355 c 0
 795 142 628 -27 419 -27 c 0
 322 -27 233 10 167 71 c 1xb8
 89 -7 l 1
 57 25 l 1x78
 135 103 l 1
 78 170 43 258 43 355 c 0
 43 569 210 737 419 737 c 0
 516 737 605 700 671 639 c 1
 749 717 l 1
 781 685 l 1
 703 607 l 1xb8
91 355 m 0
 91 271 120 195 168 136 c 1
 639 607 l 1
 581 660 504 692 419 692 c 0
 237 692 91 543 91 355 c 0
419 18 m 0
 602 18 747 166 747 355 c 0
 747 439 718 515 670 574 c 1
 199 103 l 1
 257 50 334 18 419 18 c 0
EndSplineSet
EndChar

StartChar: equal
Encoding: 61 61 288
Width: 592
GlyphClass: 2
Flags: MW
HStem: 193 50<118 474 118 474> 337 50<118 474 118 474>
VStem: 118 356<193 243 193 243 337 387 193 387>
LayerCount: 2
Fore
SplineSet
118 337 m 1
 118 387 l 1
 474 387 l 1
 474 337 l 1
 118 337 l 1
118 193 m 1
 118 243 l 1
 474 243 l 1
 474 193 l 1
 118 193 l 1
EndSplineSet
EndChar

StartChar: greater
Encoding: 62 62 289
Width: 467
GlyphClass: 2
Flags: MW
HStem: 58 415<56 56>
VStem: 56 331<58 287 119 287 244 473 244 473>
LayerCount: 2
Fore
SplineSet
56 473 m 1
 387 287 l 1
 387 244 l 1
 56 58 l 1
 56 119 l 1
 327 265 l 1
 56 410 l 1
 56 473 l 1
EndSplineSet
EndChar

StartChar: greaterequal
Encoding: 459 8805 290
Width: 548
GlyphClass: 2
Flags: MW
HStem: 0 50<90 473 90 473>
VStem: 90 383<0 50 0 50 0 169 0 169>
LayerCount: 2
Fore
SplineSet
90 513 m 1
 473 336 l 1
 473 287 l 1
 90 109 l 1
 90 169 l 1
 412 311 l 1
 90 454 l 1
 90 513 l 1
90 0 m 1
 90 50 l 1
 473 50 l 1
 473 0 l 1
 90 0 l 1
EndSplineSet
EndChar

StartChar: infinity
Encoding: 460 8734 291
Width: 1009
GlyphClass: 2
Flags: MW
HStem: 50 52<239.5 321.5 239.5 327.5 696 769> 434 52<240.5 313.5 688 769.5>
VStem: 75 67<224.5 315 224.5 326> 868 66<221.5 311.5>
LayerCount: 2
Fore
SplineSet
726 486 m 0
 855 486 934 388 934 268 c 0
 934 152 851 50 726 50 c 0
 642 50 566 95 503 198 c 1
 439 98 371 50 284 50 c 0
 154 50 75 148 75 268 c 0
 75 384 158 486 284 486 c 0
 367 486 443 441 506 339 c 1
 571 439 638 486 726 486 c 0
284 102 m 0
 359 102 429 162 471 266 c 1
 423 380 346 434 281 434 c 0
 200 434 142 362 142 268 c 0
 142 181 195 102 284 102 c 0
729 102 m 0
 809 102 868 175 868 268 c 0
 868 355 814 434 725 434 c 0
 651 434 581 374 538 270 c 1
 586 156 663 102 729 102 c 0
EndSplineSet
EndChar

StartChar: integral
Encoding: 461 8747 292
Width: 431
GlyphClass: 2
Flags: MW
HStem: -160 49<165.5 196.5 165.5 209.5> 715 49<235 265.5> 744 20G<221.5 268.5>
VStem: 135 53<564 641 564 656.5> 243 53<-37 40>
LayerCount: 2
Fore
SplineSet
177 -160 m 0xd8
 148 -160 127 -154 104 -138 c 1
 120 -96 l 1
 139 -107 155 -111 176 -111 c 0
 217 -111 243 -77 243 3 c 0
 243 77 234 128 190 297 c 0
 146 463 135 529 135 598 c 0
 135 715 189 764 254 764 c 0xd8
 283 764 304 758 327 742 c 1xb8
 311 700 l 1
 292 711 276 715 255 715 c 0
 215 715 188 681 188 601 c 0
 188 527 197 476 241 308 c 0
 285 141 296 75 296 6 c 0
 296 -111 242 -160 177 -160 c 0xd8
EndSplineSet
EndChar

StartChar: less
Encoding: 60 60 293
Width: 467
GlyphClass: 2
Flags: MW
HStem: 58 415<412 412>
VStem: 81 331<58 287 58 287>
LayerCount: 2
Fore
SplineSet
412 473 m 1
 412 411 l 1
 140 265 l 1
 412 120 l 1
 412 58 l 1
 81 244 l 1
 81 287 l 1
 412 473 l 1
EndSplineSet
EndChar

StartChar: lessequal
Encoding: 462 8804 294
Width: 548
GlyphClass: 2
Flags: MW
HStem: 0 50<75 458 75 458>
VStem: 75 383<0 50 0 50 0 336 0 336>
LayerCount: 2
Fore
SplineSet
458 513 m 1
 458 454 l 1
 135 311 l 1
 458 169 l 1
 458 109 l 1
 75 287 l 1
 75 336 l 1
 458 513 l 1
75 0 m 1
 75 50 l 1
 458 50 l 1
 458 0 l 1
 75 0 l 1
EndSplineSet
EndChar

StartChar: logicalnot
Encoding: 463 172 295
Width: 600
GlyphClass: 2
Flags: MW
HStem: 336 50<100 414 100 466>
VStem: 414 52<210 336 336 336>
LayerCount: 2
Fore
SplineSet
414 210 m 1
 414 336 l 1
 100 336 l 1
 100 386 l 1
 466 386 l 1
 466 210 l 1
 414 210 l 1
EndSplineSet
EndChar

StartChar: minus
Encoding: 464 8722 296
Width: 600
GlyphClass: 2
Flags: MW
HStem: 282 50<80 500 80 500>
VStem: 80 420<282 332 282 332>
LayerCount: 2
Fore
SplineSet
80 282 m 1
 80 332 l 1
 500 332 l 1
 500 282 l 1
 80 282 l 1
EndSplineSet
EndChar

StartChar: multiply
Encoding: 465 215 297
Width: 584
GlyphClass: 2
Flags: MW
HStem: 121 354<148 148 148 428>
VStem: 111 354<158 158 158 438>
LayerCount: 2
Fore
SplineSet
465 438 m 1
 325 298 l 1
 465 158 l 1
 428 121 l 1
 288 261 l 1
 148 121 l 1
 111 158 l 1
 251 298 l 1
 111 438 l 1
 148 475 l 1
 288 335 l 1
 428 475 l 1
 465 438 l 1
EndSplineSet
EndChar

StartChar: notequal
Encoding: 466 8800 298
Width: 600
GlyphClass: 2
Flags: MW
HStem: 193 50<118 215 118 243 300 474 118 272> 337 50<118 296 118 324 380 474 118 353>
VStem: 118 356<193 243 193 243 337 387 193 387>
LayerCount: 2
Fore
SplineSet
474 337 m 1
 353 337 l 1
 300 243 l 1
 474 243 l 1
 474 193 l 1
 272 193 l 1
 211 85 l 1
 155 85 l 1
 215 193 l 1
 118 193 l 1
 118 243 l 1
 243 243 l 1
 296 337 l 1
 118 337 l 1
 118 387 l 1
 324 387 l 1
 385 495 l 1
 441 495 l 1
 380 387 l 1
 474 387 l 1
 474 337 l 1
EndSplineSet
EndChar

StartChar: partialdiff
Encoding: 467 8706 299
Width: 594
GlyphClass: 2
Flags: MW
HStem: -14 52<233 328 233 343> 434 50<237 320 213 322> 706 52<223 313.5>
VStem: 67 68<172 295.5 172 305> 441 64
LayerCount: 2
Fore
SplineSet
250 758 m 0
 431 758 505 621 505 362 c 0
 505 116 416 -14 270 -14 c 0
 151 -14 67 74 67 230 c 0
 67 380 146 484 280 484 c 0
 360 484 418 447 441 381 c 1
 436 593 382 706 245 706 c 0
 201 706 153 695 112 670 c 1
 96 717 l 1
 141 744 189 758 250 758 c 0
277 38 m 0
 379 38 433 139 437 299 c 1
 418 385 359 434 285 434 c 0
 189 434 135 355 135 236 c 0
 135 108 189 38 277 38 c 0
EndSplineSet
EndChar

StartChar: percent
Encoding: 37 37 300
Width: 718
GlyphClass: 2
Flags: MW
HStem: -14 50<496.5 549.5 496.5 566.5> 255 49<496.5 549.5> 436 50<169.5 222.5 169.5 239.5> 705 49<169.5 222.5>
VStem: 56 54<565 625.5 565 638.5> 282 54<565 625.5> 383 54<115 175.5 115 188.5> 609 54<115 175.5>
LayerCount: 2
Fore
SplineSet
196 436 m 0
 108 436 56 510 56 595 c 0
 56 682 108 754 196 754 c 0
 283 754 336 682 336 595 c 0
 336 510 283 436 196 436 c 0
83 -14 m 1
 573 754 l 1
 636 754 l 1
 145 -14 l 1
 83 -14 l 1
196 486 m 0
 249 486 282 535 282 595 c 0
 282 656 249 705 196 705 c 0
 143 705 110 656 110 595 c 0
 110 535 143 486 196 486 c 0
523 -14 m 0
 435 -14 383 60 383 145 c 0
 383 232 435 304 523 304 c 0
 610 304 663 232 663 145 c 0
 663 60 610 -14 523 -14 c 0
523 36 m 0
 576 36 609 85 609 145 c 0
 609 206 576 255 523 255 c 0
 470 255 437 206 437 145 c 0
 437 85 470 36 523 36 c 0
EndSplineSet
EndChar

StartChar: perthousand
Encoding: 468 8240 301
Width: 1055
GlyphClass: 2
Flags: MW
HStem: -14 50<496.5 549.5 496.5 566.5 833.5 886.5> 255 49<496.5 549.5 833.5 886.5> 436 50<169.5 222.5 169.5 239.5> 705 49<169.5 222.5>
VStem: 56 54<565 625.5 565 638.5> 282 54<565 625.5> 383 54<115 175.5 115 188.5> 609 54<115 175.5> 720 54<115 175.5 115 188.5> 946 54<115 175.5>
LayerCount: 2
Fore
SplineSet
196 436 m 0
 108 436 56 510 56 595 c 0
 56 682 108 754 196 754 c 0
 283 754 336 682 336 595 c 0
 336 510 283 436 196 436 c 0
83 -14 m 1
 573 754 l 1
 636 754 l 1
 145 -14 l 1
 83 -14 l 1
196 486 m 0
 249 486 282 535 282 595 c 0
 282 656 249 705 196 705 c 0
 143 705 110 656 110 595 c 0
 110 535 143 486 196 486 c 0
523 -14 m 0
 435 -14 383 60 383 145 c 0
 383 232 435 304 523 304 c 0
 610 304 663 232 663 145 c 0
 663 60 610 -14 523 -14 c 0
860 -14 m 0
 772 -14 720 60 720 145 c 0
 720 232 772 304 860 304 c 0
 947 304 1000 232 1000 145 c 0
 1000 60 947 -14 860 -14 c 0
523 36 m 0
 576 36 609 85 609 145 c 0
 609 206 576 255 523 255 c 0
 470 255 437 206 437 145 c 0
 437 85 470 36 523 36 c 0
860 36 m 0
 913 36 946 85 946 145 c 0
 946 206 913 255 860 255 c 0
 807 255 774 206 774 145 c 0
 774 85 807 36 860 36 c 0
EndSplineSet
EndChar

StartChar: plus
Encoding: 43 43 302
Width: 592
GlyphClass: 2
Flags: MW
HStem: 308 50<71 270 71 270 322 521>
VStem: 270 52<78 308 78 308 358 588>
LayerCount: 2
Fore
SplineSet
521 358 m 1
 521 308 l 1
 322 308 l 1
 322 78 l 1
 270 78 l 1
 270 308 l 1
 71 308 l 1
 71 358 l 1
 270 358 l 1
 270 588 l 1
 322 588 l 1
 322 358 l 1
 521 358 l 1
EndSplineSet
EndChar

StartChar: plusminus
Encoding: 469 177 303
Width: 580
GlyphClass: 2
Flags: MW
HStem: 0 50<90 490 90 490> 295 50<90 264 90 264 316 490> 500 20G<264 316 316 316>
VStem: 264 52<116 295 116 295 345 520>
LayerCount: 2
Fore
SplineSet
264 116 m 1
 264 295 l 1
 90 295 l 1
 90 345 l 1
 264 345 l 1
 264 520 l 1
 316 520 l 1
 316 345 l 1
 490 345 l 1
 490 295 l 1
 316 295 l 1
 316 116 l 1
 264 116 l 1
90 0 m 1
 90 50 l 1
 490 50 l 1
 490 0 l 1
 90 0 l 1
EndSplineSet
EndChar

StartChar: product
Encoding: 470 8719 304
Width: 620
GlyphClass: 2
Flags: MW
HStem: 641 49<51 139 51 191 191 429 51 191 481 569>
VStem: 139 52<-110 641 -110 641> 429 52<-110 641 -110 641>
LayerCount: 2
Fore
SplineSet
569 690 m 1
 569 641 l 1
 481 641 l 1
 481 -110 l 1
 429 -110 l 1
 429 641 l 1
 191 641 l 1
 191 -110 l 1
 139 -110 l 1
 139 641 l 1
 51 641 l 1
 51 690 l 1
 191 690 l 1
 481 690 l 1
 569 690 l 1
EndSplineSet
EndChar

StartChar: radical
Encoding: 471 8730 305
Width: 570
GlyphClass: 2
Flags: MW
HStem: 261 49<60 125 60 167>
VStem: 60 483
LayerCount: 2
Fore
SplineSet
487 800 m 1
 543 800 l 1
 317 -160 l 1
 252 -160 l 1
 125 261 l 1
 60 261 l 1
 60 310 l 1
 167 310 l 1
 284 -88 l 1
 487 800 l 1
EndSplineSet
EndChar

StartChar: summation
Encoding: 472 8721 306
Width: 600
GlyphClass: 2
Flags: MW
HStem: -110 52<125 536 125 536> 688 52<152 530 152 152>
VStem: 47 489<-110 -84 -84 -84>
LayerCount: 2
Fore
SplineSet
125 -58 m 1
 536 -58 l 1
 536 -110 l 1
 47 -110 l 1
 47 -84 l 1
 233 325 l 1
 76 714 l 1
 76 740 l 1
 530 740 l 1
 530 688 l 1
 152 688 l 1
 298 325 l 1
 125 -58 l 1
EndSplineSet
EndChar

StartChar: lozenge
Encoding: 473 9674 307
Width: 575
GlyphClass: 2
Flags: MW
HStem: 0 21G<262 313 262 262> 0 54<287 287 287 313 262 287> 636 54<287 287>
VStem: 95 385<345 345>
LayerCount: 2
Fore
SplineSet
313 690 m 1xb0
 480 345 l 1
 313 0 l 1
 262 0 l 1
 95 345 l 1
 262 690 l 1
 313 690 l 1xb0
287 54 m 1x70
 415 345 l 1
 287 636 l 1
 160 345 l 1
 287 54 l 1x70
EndSplineSet
EndChar

StartChar: bar
Encoding: 124 124 308
Width: 331
GlyphClass: 2
Flags: MW
HStem: -200 1000<142 195 142 195>
VStem: 142 53<-200 800 -200 800>
LayerCount: 2
Fore
SplineSet
142 -200 m 1
 142 800 l 1
 195 800 l 1
 195 -200 l 1
 142 -200 l 1
EndSplineSet
EndChar

StartChar: brokenbar
Encoding: 474 166 309
Width: 331
GlyphClass: 2
Flags: MW
HStem: -160 850<142 195 142 195>
VStem: 142 53<-160 180 -160 180 350 690>
LayerCount: 2
Fore
SplineSet
142 350 m 1
 142 690 l 1
 195 690 l 1
 195 350 l 1
 142 350 l 1
142 -160 m 1
 142 180 l 1
 195 180 l 1
 195 -160 l 1
 142 -160 l 1
EndSplineSet
EndChar

StartChar: at
Encoding: 64 64 310
Width: 1030
GlyphClass: 2
Flags: MW
HStem: -153 49<398 551 398 551> 54 52<458.5 511> 64 54<696.5 742> 462 52<478.5 538.5> 665 49<424.5 639>
VStem: 84 52<148 380 148 388.5> 313 68<212 342 212 353> 610 63 874 53<262.5 436.5>
LayerCount: 2
Fore
SplineSet
530 514 m 0xdf80
 584 514 626 502 673 476 c 1
 673 190 l 2
 673 134 685 118 708 118 c 0
 781 118 874 178 874 347 c 0
 874 526 744 665 534 665 c 0
 315 665 136 495 136 265 c 0
 136 31 297 -104 499 -104 c 0
 603 -104 700 -76 786 -27 c 1
 803 -63 l 1
 707 -123 605 -153 497 -153 c 0
 275 -153 84 -9 84 263 c 0
 84 514 282 714 536 714 c 0
 773 714 927 555 927 347 c 0
 927 152 802 64 682 64 c 0xbf80
 642 64 617 82 611 122 c 1
 580 79 540 54 482 54 c 0
 388 54 313 104 313 273 c 0
 313 433 399 514 530 514 c 0xdf80
492 106 m 0
 539 106 580 127 609 182 c 1
 611 444 l 1
 586 456 556 462 521 462 c 0
 436 462 381 408 381 276 c 0
 381 148 425 106 492 106 c 0
EndSplineSet
EndChar

StartChar: ampersand
Encoding: 38 38 311
Width: 818
GlyphClass: 2
Flags: MW
HStem: -14 56<278.5 379 278.5 379> 698 56<331 386>
VStem: 83 68<148 235 148 241.5> 202 66<588 634.5 588 649> 444 66<586 636>
LayerCount: 2
Fore
SplineSet
761 9 m 1
 704 -25 l 1
 592 100 l 1
 522 22 430 -14 328 -14 c 0
 187 -14 83 54 83 187 c 0
 83 296 163 368 284 444 c 1
 224 509 202 553 202 608 c 0
 202 690 268 754 361 754 c 0
 459 754 510 691 510 622 c 0
 510 546 462 503 366 436 c 1
 589 195 l 1
 619 248 642 315 654 397 c 1
 714 385 l 1
 699 288 669 210 630 150 c 1
 761 9 l 1
358 698 m 0
 304 698 268 661 268 608 c 0
 268 568 285 529 334 475 c 1
 407 521 444 558 444 614 c 0
 444 658 414 698 358 698 c 0
336 42 m 0
 422 42 497 75 554 144 c 1
 320 406 l 1
 209 336 151 277 151 193 c 0
 151 103 221 42 336 42 c 0
EndSplineSet
EndChar

StartChar: paragraph
Encoding: 475 182 312
Width: 600
GlyphClass: 2
Flags: MW
HStem: 641 49<341 439 341 341>
VStem: 289 52<-110 320 320 320> 439 52<-110 641 641 641>
LayerCount: 2
Fore
SplineSet
491 690 m 1
 491 -110 l 1
 439 -110 l 1
 439 641 l 1
 341 641 l 1
 341 -110 l 1
 289 -110 l 1
 289 320 l 1
 257 320 l 2
 239 320 218 320 201 321 c 0
 99 327 44 410 44 505 c 0
 44 600 99 683 201 689 c 0
 218 690 239 690 257 690 c 2
 491 690 l 1
EndSplineSet
EndChar

StartChar: copyright
Encoding: 476 169 313
Width: 906
GlyphClass: 2
Flags: MW
HStem: -64 47<358.5 547 358.5 560.5> 117 50<438 486.5> 490 50<434 493.5> 667 47<358.5 547>
VStem: 70 50<227.5 422.5 227.5 435> 277 62<267.5 380 267.5 395> 786 50<227.5 422.5>
LayerCount: 2
Fore
SplineSet
453 -64 m 0
 238 -64 70 105 70 325 c 0
 70 545 238 714 453 714 c 0
 668 714 836 545 836 325 c 0
 836 105 668 -64 453 -64 c 0
453 -17 m 0
 641 -17 786 130 786 325 c 0
 786 520 641 667 453 667 c 0
 264 667 120 520 120 325 c 0
 120 130 264 -17 453 -17 c 0
460 117 m 0
 356 117 277 183 277 323 c 0
 277 467 365 540 475 540 c 0
 517 540 555 531 586 513 c 1
 571 472 l 1
 545 483 512 490 475 490 c 0
 393 490 339 434 339 326 c 0
 339 209 407 167 469 167 c 0
 509 167 540 175 569 194 c 1
 588 154 l 1
 550 130 513 117 460 117 c 0
EndSplineSet
EndChar

StartChar: registered
Encoding: 477 174 314
Width: 906
GlyphClass: 2
Flags: MW
HStem: -64 47<358.5 547 358.5 560.5> 293 46<391 461 391 469> 488 43 488 46<391 420 420 433 334 452 391 391> 667 47<358.5 547>
VStem: 70 50<227.5 422.5 227.5 435> 334 57<127 293 339 488> 531 61<392 439> 786 50<227.5 422.5>
LayerCount: 2
Fore
SplineSet
453 714 m 0xef80
 668 714 836 545 836 325 c 0
 836 105 668 -64 453 -64 c 0
 238 -64 70 105 70 325 c 0
 70 545 238 714 453 714 c 0xef80
453 -17 m 0
 641 -17 786 130 786 325 c 0
 786 520 641 667 453 667 c 0
 264 667 120 520 120 325 c 0
 120 130 264 -17 453 -17 c 0
592 417 m 0
 592 367 569 325 515 303 c 1
 599 127 l 1
 532 127 l 1
 461 293 l 1
 391 293 l 1
 391 127 l 1
 334 127 l 1
 334 534 l 1
 420 534 l 2
 446 534 468 533 485 531 c 0xdf80
 552 524 592 481 592 417 c 0
391 339 m 1
 469 339 l 2
 507 339 531 368 531 412 c 0
 531 466 501 488 452 488 c 2
 391 488 l 1
 391 339 l 1
EndSplineSet
EndChar

StartChar: section
Encoding: 253 167 315
Width: 567
GlyphClass: 2
Flags: MW
HStem: -195 56<234.5 296.5 234.5 316> 618 56<267.5 327.5>
VStem: 68 70<251 299.5> 111 70<499 554 499 568> 383 70<-75 -20.5> 430 70<183 232>
LayerCount: 2
Fore
SplineSet
500 214 m 0xd4
 500 152 470 112 397 68 c 1
 438 36 453 4 453 -44 c 0
 453 -136 370 -195 262 -195 c 0
 188 -195 137 -176 101 -145 c 1
 126 -102 l 1
 162 -126 209 -139 260 -139 c 0
 333 -139 383 -102 383 -48 c 0
 383 7 348 37 236 87 c 0
 146 128 68 173 68 269 c 0xe8
 68 330 97 369 169 413 c 1
 127 444 111 473 111 521 c 0
 111 615 194 674 303 674 c 0
 371 674 422 655 458 624 c 1
 434 581 l 1
 397 605 350 618 305 618 c 0
 230 618 181 581 181 527 c 0
 181 471 220 446 332 396 c 0
 422 355 500 310 500 214 c 0xd4
363 91 m 1
 408 125 430 160 430 204 c 0
 430 260 396 293 308 337 c 0
 265 358 231 375 204 391 c 1
 159 357 138 323 138 279 c 0xe4
 138 223 172 190 260 146 c 0
 302 125 336 107 363 91 c 1
EndSplineSet
EndChar

StartChar: trademark
Encoding: 478 8482 316
Width: 668
GlyphClass: 2
Flags: MW
HStem: 0.730988 63 1.38889 119
LayerCount: 2
Fore
SplineSet
32 224 m 1x00
 32 271 l 1
 277 271 l 1
 273 224 l 1
 179 224 l 1
 179 0 l 1
 127 0 l 1
 127 224 l 1
 32 224 l 1x00
622 0 m 1
 570 0 l 1
 547 202 l 1
 475 8 l 1
 432 8 l 1
 368 193 l 1
 348 0 l 1
 300 0 l 1
 328 271 l 1
 391 271 l 1
 456 75 l 1
 526 271 l 1
 593 271 l 1
 622 0 l 1
EndSplineSet
EndChar

StartChar: degree
Encoding: 479 176 317
Width: 350
GlyphClass: 2
Flags: MW
HStem: 466 43<144.5 186 144.5 200> 661 43<144.5 186>
VStem: 46 47<562.5 607.5 562.5 620> 237 48<562.5 607.5>
LayerCount: 2
Fore
SplineSet
165 466 m 0
 96 466 46 515 46 585 c 0
 46 655 96 704 165 704 c 0
 235 704 285 655 285 585 c 0
 285 515 235 466 165 466 c 0
165 509 m 0
 207 509 237 540 237 585 c 0
 237 630 207 661 165 661 c 0
 124 661 93 630 93 585 c 0
 93 540 124 509 165 509 c 0
EndSplineSet
EndChar

StartChar: asciicircum
Encoding: 94 94 318
Width: 499
GlyphClass: 2
Flags: MW
HStem: 270 331<69 272 69 272 228 430 228 368>
VStem: 69 361<270 270>
LayerCount: 2
Fore
SplineSet
430 270 m 1
 368 270 l 1
 250 536 l 1
 130 270 l 1
 69 270 l 1
 228 601 l 1
 272 601 l 1
 430 270 l 1
EndSplineSet
EndChar

StartChar: dagger
Encoding: 480 8224 319
Width: 569
GlyphClass: 2
Flags: MW
HStem: 386.5 53
VStem: 245.5 59
LayerCount: 2
Fore
SplineSet
494 442 m 1
 494 384 l 1
 301 389 l 1
 308 -160 l 1
 242 -160 l 1
 249 389 l 1
 56 384 l 1
 56 442 l 1
 249 437 l 1
 242 690 l 1
 308 690 l 1
 301 437 l 1
 494 442 l 1
EndSplineSet
EndChar

StartChar: daggerdbl
Encoding: 481 8225 320
Width: 569
GlyphClass: 2
Flags: MW
HStem: 90.5 53 386.5 53
VStem: 245.5 59 249 52<93 93 141 389>
LayerCount: 2
Fore
SplineSet
494 384 m 1xd0
 301 389 l 1
 301 141 l 1xd0
 494 146 l 1
 494 88 l 1
 301 93 l 1
 308 -160 l 1
 242 -160 l 1
 249 93 l 1xe0
 56 88 l 1
 56 146 l 1
 249 141 l 1
 249 389 l 1xd0
 56 384 l 1
 56 442 l 1
 249 437 l 1
 242 690 l 1
 308 690 l 1
 301 437 l 1xe0
 494 442 l 1
 494 384 l 1xd0
EndSplineSet
EndChar

StartChar: uni0326
Encoding: 482 806 321
Width: 0
GlyphClass: 4
Flags: MW
HStem: -252 201
VStem: -102 62
AnchorPoint: "Anchor-0" -71 0 mark 0
LayerCount: 2
Fore
SplineSet
-164 -252 m 1
 -119 -176 -104 -124 -102 -66 c 1
 -90 -58 -57 -50 -40 -51 c 1
 -37 -132 -66 -195 -117 -252 c 1
 -164 -252 l 1
EndSplineSet
EndChar

StartChar: acute
Encoding: 483 180 322
Width: 236
Flags: MW
HStem: 604 156<40 196 40 196>
VStem: 40 156
LayerCount: 2
Fore
SplineSet
40 604 m 1
 118 760 l 1
 196 760 l 1
 81 604 l 1
 40 604 l 1
EndSplineSet
EndChar

StartChar: breve
Encoding: 484 728 323
Width: 318
Flags: MW
HStem: 588 52<134 184 134 199> 734 20G<41 85 85 85 234 277 277 277>
VStem: 41 44<754 754> 234 43<754 754>
LayerCount: 2
Fore
SplineSet
159 588 m 0
 78 588 32 642 41 754 c 1
 85 754 l 1
 82 677 109 640 159 640 c 0
 209 640 236 677 234 754 c 1
 277 754 l 1
 286 642 239 588 159 588 c 0
EndSplineSet
EndChar

StartChar: caron
Encoding: 485 711 324
Width: 325
Flags: MW
HStem: 604 46<165 165 165 191 134 165> 604 156<40 191 40 134>
VStem: 40 245<760 760>
LayerCount: 2
Fore
SplineSet
239 760 m 1x60
 285 760 l 1
 191 604 l 1
 134 604 l 1
 40 760 l 1
 91 760 l 1x60
 165 650 l 1xa0
 239 760 l 1x60
EndSplineSet
EndChar

StartChar: cedilla
Encoding: 486 184 325
Width: 264
Flags: MW
HStem: -210 41<95 122.5 95 138> -81 87<80 158>
VStem: 172 52<-138.5 -106.5>
LayerCount: 2
Fore
SplineSet
134 -46 m 1
 190 -51 224 -81 224 -123 c 0
 224 -180 170 -210 106 -210 c 0
 79 -210 57 -205 40 -194 c 1
 56 -160 l 1
 72 -167 87 -169 103 -169 c 0
 142 -169 172 -154 172 -123 c 0
 172 -90 138 -76 80 -81 c 1
 119 6 l 1
 158 6 l 1
 134 -46 l 1
EndSplineSet
EndChar

StartChar: circumflex
Encoding: 487 710 326
Width: 325
Flags: MW
HStem: 604 156<40 191 40 191 134 285 134 234> 714 46<160 160>
VStem: 40 245<604 604>
LayerCount: 2
Fore
SplineSet
285 604 m 1xa0
 234 604 l 1xa0
 160 714 l 1x60
 87 604 l 1
 40 604 l 1
 134 760 l 1
 191 760 l 1
 285 604 l 1xa0
EndSplineSet
EndChar

StartChar: dieresis
Encoding: 488 168 327
Width: 278
Flags: MW
HStem: 623.25 90.5
VStem: 40 64<627 710 627 710> 174 64<627 710 627 710>
LayerCount: 2
Fore
SplineSet
40 627 m 1
 40 710 l 1
 56 715 88 715 104 710 c 1
 104 627 l 1
 88 622 56 622 40 627 c 1
174 627 m 1
 174 710 l 1
 190 715 221 715 238 710 c 1
 238 627 l 1
 221 622 190 622 174 627 c 1
EndSplineSet
EndChar

StartChar: dotaccent
Encoding: 489 729 328
Width: 144
Flags: MW
HStem: 623.25 90.5
VStem: 40 64<627 710 627 710>
LayerCount: 2
Fore
SplineSet
40 627 m 1
 40 710 l 1
 56 715 88 715 104 710 c 1
 104 627 l 1
 88 622 56 622 40 627 c 1
EndSplineSet
EndChar

StartChar: grave
Encoding: 96 96 329
Width: 236
Flags: MW
HStem: 604 156<40 155 40 196>
VStem: 40 156
LayerCount: 2
Fore
SplineSet
155 604 m 1
 40 760 l 1
 118 760 l 1
 196 604 l 1
 155 604 l 1
EndSplineSet
EndChar

StartChar: hungarumlaut
Encoding: 490 733 330
Width: 371
Flags: MW
HStem: 604 156<40 196 40 196 175 196 118 216 175 175>
VStem: 40 291<604 760>
LayerCount: 2
Fore
SplineSet
40 604 m 1
 118 760 l 1
 196 760 l 1
 81 604 l 1
 40 604 l 1
175 604 m 1
 253 760 l 1
 331 760 l 1
 216 604 l 1
 175 604 l 1
EndSplineSet
EndChar

StartChar: macron
Encoding: 491 175 331
Width: 275
Flags: MW
HStem: 652 44<40 235 40 235>
VStem: 40 195<652 696 652 696>
LayerCount: 2
Fore
SplineSet
40 652 m 1
 40 696 l 1
 235 696 l 1
 235 652 l 1
 40 652 l 1
EndSplineSet
EndChar

StartChar: ogonek
Encoding: 492 731 332
Width: 249
Flags: MW
HStem: -220 43<139.5 148> 0 21G<200 200>
VStem: 40 60<-136.5 -98>
LayerCount: 2
Fore
SplineSet
157 -177 m 0
 173 -177 191 -173 209 -164 c 1
 205 -199 l 1
 181 -213 160 -220 136 -220 c 0
 82 -220 40 -190 40 -126 c 0
 40 -70 86 -11 138 9 c 1
 200 0 l 1
 132 -25 100 -67 100 -117 c 0
 100 -156 122 -177 157 -177 c 0
EndSplineSet
EndChar

